<svg width="1001" height="1001" viewBox="0 0 1001 1001" fill="none" xmlns="http://www.w3.org/2000/svg">
<path opacity="0.2" d="M408.5 916.84C400.337 916.746 392.193 916.024 384.14 914.68C377.71 913.68 371.14 912.73 364.9 910.82C357.1 908.42 349.64 904.06 344.47 897.66C340.42 892.28 337.05 886.13 335.78 879.46C333.19 864.56 333.48 850.28 322.43 838.46C318.43 833.85 313 830.84 307.6 828.17C301.983 825.301 296.215 822.741 290.32 820.5C279.56 816.81 268.32 813.5 259.14 806.56C248.86 799.5 241.5 790.43 242.29 777.3C244.05 762.71 254.83 751.23 263.82 740.35C264.15 740.35 297.19 733.12 296.28 732.82C302.98 730.5 310.28 729.12 317.22 727.82C342.08 722.82 367.35 719.45 392.43 715.82C404.14 713.88 415.5 709.51 426.65 705.58C437.27 701.91 448.4 699.01 459.12 695.67C469.84 692.33 480.24 687.11 490.88 683.22C510.57 676.81 531.06 671.22 551.88 670.69C566.68 670.8 586.26 670.62 598.88 678.88C607.1 685.15 609.32 696.63 608.96 706.44C608.65 712.99 607.7 719.59 608.16 726.15C608.687 730.668 609.745 735.109 611.31 739.38C614.428 747.9 618.133 756.193 622.4 764.2C627.108 772.408 631.122 780.994 634.4 789.87C640.34 806.3 638.8 813.23 624.4 823.5C619.4 827.23 614.18 831.87 607.59 832.04C596.59 833.04 585.59 833.25 574.66 834.94C557.29 837.31 542.26 846.89 527.44 855.59C520.62 859.59 513.44 863.16 506.39 866.77C498.99 870.77 491.52 874.77 484.01 878.53C472.32 884.738 461.053 891.71 450.28 899.4C436.71 909.38 426.5 917.68 408.5 916.84Z" fill="black"/>
<path d="M409.39 913.99C406.508 913.968 403.632 913.713 400.79 913.23C398.44 912.75 395.95 912.12 394.21 910.37C390.21 905.87 388.44 899.87 386.21 894.37C384.5 888.91 382.92 883.37 379.65 878.54C377.267 875.124 375.23 871.48 373.57 867.66C371.82 863.38 370.83 858.83 369.17 854.52C367.49 850.43 364.46 847.07 362.1 843.37C360.123 840.437 358.69 837.171 357.87 833.73C357.62 832.73 357.38 831.8 357.2 830.83C355.84 824.5 357.51 818.08 357.27 811.7C357.04 808.91 355.73 805.83 353.2 804.41C351.28 803.41 349.13 804.34 347.2 804.84C342.92 806.34 338.35 806.37 333.96 807.39C330.39 808.1 326.87 809.19 323.23 809.56C320.232 809.57 317.24 809.279 314.3 808.69C310.34 808.077 306.446 807.092 302.67 805.75C298.39 804.15 294.81 801.17 291.38 798.22C288.14 795.36 285.67 791.77 283.1 788.32C279.02 788.2 271.53 778.93 268.96 776.32L266.2 777.75C263.589 777.397 261.036 776.697 258.61 775.67C256.53 774.61 254.61 773.29 252.61 772.05C250.61 770.81 248.34 769.82 246.36 768.45C244.08 766.65 241.68 764.98 239.53 763.03C235.73 759.54 231.94 755.96 229.31 751.47C225.86 746.32 222.66 741 219.39 735.73C215.941 729.455 213.402 722.72 211.85 715.73C210.73 710.91 209.63 706 208.64 701.16C207.925 698.216 207.628 695.186 207.76 692.16C208.023 686.894 208.797 681.666 210.07 676.55C212.162 671.184 214.6 665.96 217.37 660.91C220.11 656.13 222.63 651.14 225.84 646.65C229.66 641.15 234.32 636.25 238.19 630.79C240.52 627.405 243.104 624.203 245.92 621.21C250.81 616.36 256.38 612.21 261.18 607.21C265.98 602.21 270.08 596.53 274.94 591.6C281.62 585.1 288.79 579.01 295.17 572.19C302.17 564.98 309.71 558.27 317.07 551.47C324.61 544.38 331.88 536.85 339.36 529.69C344.05 525.3 349.01 520.99 353.36 516.27C358.03 511.27 362.46 505.85 367.36 501.07C374.85 493.77 383.3 487.26 392.8 482.78C397.53 480.5 402.66 479.05 407.5 477.04C412.288 474.857 416.931 472.368 421.4 469.59C426.56 466.48 432.09 463.89 437.17 460.64C443.181 456.673 448.935 452.331 454.4 447.64C465.97 438.27 477.05 428.16 489.58 420.08C496.861 415.679 504.498 411.896 512.41 408.77C518.63 406.57 525.14 405.03 531.46 403.14C540.46 400.47 549.69 398.05 558.6 394.95C564.177 392.805 569.586 390.244 574.78 387.29C583.78 382.61 592.58 376.73 597.78 367.84C604.14 357.02 604.16 343.96 604.45 331.77C604.62 323.89 605.05 315.96 605.78 308.12C606.39 299.37 608.48 290.64 613.18 283.12C614.46 281.12 615.85 279.01 617.96 277.87C619.513 277.183 621.23 276.953 622.91 277.208C624.589 277.463 626.161 278.192 627.44 279.31C631.51 282.89 633.92 287.92 637.67 291.79C640.4 294.86 648.85 300.73 652.67 297.46C655.2 294.651 657.348 291.521 659.06 288.15C660.227 285.498 661.196 282.764 661.96 279.97C663.973 273.106 665.517 266.114 666.58 259.04C667.05 255.89 667.12 252.67 667.58 249.52C668.351 244.749 669.491 240.045 670.99 235.45L671.18 235.32C672.05 236.74 676.68 244.5 677.01 245.85C677.42 246.98 677.84 248.14 678.22 249.27C680.83 257.32 683.22 265.44 686.77 273.16C689.981 280.107 692.818 287.22 695.27 294.47C696.21 297.31 697.04 300.2 697.92 303.06C698.82 305.77 699.74 308.62 701.55 310.88C703.36 313.14 706.12 314.29 708.64 315.65C711.589 317.227 714.45 318.963 717.21 320.85C724.45 325.85 730.62 332.23 737.4 337.85C742.605 342.273 748.384 345.974 754.58 348.85C762.369 352.306 769.542 357.008 775.82 362.77C779.54 366.21 782.74 370.16 786.29 373.77C788.49 376.13 791.08 378.1 793.44 380.3C796.58 383.17 797.44 387.5 797.75 391.57C798.02 395.19 798.02 398.83 798.07 402.45C798.089 407.04 798.38 411.624 798.94 416.18C799.48 420.37 800.7 424.99 804.57 427.3C808.11 429.69 812.27 431.19 815.36 434.22C821.04 439.64 821.36 444.1 820.92 451.55C820.13 464.19 818.14 476.73 817.24 489.37C816.51 496.01 816.24 502.76 814.85 509.31C813.854 514.085 811.831 518.586 808.92 522.5C800.83 533.01 787.38 536.76 775.37 540.92C763.75 544.92 752.17 549.12 740.37 552.52C728.37 556.02 716.11 558.64 704 561.73C701.487 562.252 699.04 563.046 696.7 564.1C693.621 565.607 691.018 567.937 689.18 570.83C688.307 572.609 687.636 574.481 687.18 576.41C686.47 578.8 685.72 581.21 684.85 583.55C681.85 592.17 677.31 600.17 673.29 608.36C670.92 613.3 668.92 618.36 666.76 623.44C662.93 632.17 658.96 641.09 658.47 650.75C657.76 661.98 658.07 673.32 656.12 684.45C654.4 695.45 650.43 706.03 650.32 717.23C650.12 724.02 650.16 730.84 649.17 737.58C647.86 747.28 645.78 757.1 647.01 766.91C647.701 771.564 649.226 776.056 651.51 780.17C653.27 783.72 655.11 787.25 657.09 790.68C661.28 797.91 666.61 804.38 671.95 810.78C674.719 813.816 677.244 817.066 679.5 820.5C681.84 824.151 683.239 828.326 683.57 832.65C683.57 836.8 682.27 842.2 677.68 843.28C673.86 844.18 669.83 843.42 666.04 844.5C663.38 845.21 660.8 846.31 658.04 846.63C654.45 846.84 650.98 845.47 647.46 844.97C642.29 844.14 636.98 843.63 632.09 841.63C629.158 840.316 626.367 838.708 623.76 836.83L623.36 836.58L623.18 836.44C620.711 834.546 618.446 832.401 616.42 830.04C614.514 828.016 612.779 825.839 611.23 823.53C608.64 819.02 607.06 813.97 605.57 809C603.57 802 604.05 794.59 603.36 787.38C602.7 779.94 602.26 772.49 601.64 765.06C601.24 759.06 600.3 752.96 600.73 746.9C600.734 746.452 600.764 746.005 600.82 745.56C601.19 738.87 601.88 732.09 600.44 725.48C598.76 718.23 593.69 703.97 584.01 709.81C575.86 715.05 568.48 721.44 560.6 727.07C550.99 734.13 541.01 740.71 530.87 746.98C526.48 749.66 521.7 751.65 517.28 754.27C511.61 757.67 506.28 761.66 500.86 765.38C495.19 769.19 489.3 772.69 483.3 775.97C479.01 778.48 474.22 780.38 470.47 783.71C469.04 785.17 468.28 787.12 467.22 788.83C463.96 794.23 461.02 794.76 455.29 796.04C450.7 797.23 446.29 798.93 441.71 800.25C438.71 801.25 435.46 801.25 432.54 802.37C430.773 803.318 429.247 804.659 428.08 806.29C426.483 808.374 425.481 810.852 425.18 813.46C424.46 817.46 423.77 821.46 423.36 825.52C421.67 843.52 428.22 846.72 441.47 856.3C445.95 859.74 449.27 864.4 453.33 868.3C457.39 872.2 461.57 876.4 464.7 881.3C466.4 884.02 467.99 886.96 468.39 890.19L468.23 890.44L468.43 890.63C468.44 890.783 468.44 890.937 468.43 891.09L468.26 891.31L468.44 891.52C467.8 903.14 460.26 899.38 452.17 899.64C448.87 899.64 447.03 902.64 445.17 904.96C443.594 907.108 441.634 908.945 439.39 910.38C438.005 911.352 436.425 912.01 434.76 912.31C432.3 912.39 429.89 911.64 427.51 911.14C425.423 910.64 423.245 910.664 421.17 911.21C417.24 912.1 413.5 914.1 409.39 913.99Z" fill="white"/>
<path d="M704.99 337.1C704.851 334.561 704.3 332.062 703.36 329.7C700.53 326.8 694.6 320.98 692.87 317.41C689.36 311.83 686.27 305.89 681.65 301.11C679.57 298.9 677.44 296.58 674.71 295.16C672.84 294.28 670.86 293.22 668.71 293.16C664.71 293.29 661.01 295.66 657.3 297.06C655.66 297.7 653.98 298.54 652.18 298.47C649.4 298.15 647.18 296.16 645.07 294.47C639.18 288.63 635.26 281.18 631.16 274.05C628.99 270.32 627 266.42 624.24 263.05C621.459 259.791 618.016 257.163 614.14 255.34C610.04 253.34 607.75 253.03 605.01 257.26C603.896 259.146 603.051 261.179 602.5 263.3C601.5 266.52 600.43 269.8 599.44 273.04C595.55 285.71 590.81 298.33 589.6 311.62C588.477 326.452 588.143 341.333 588.6 356.2C588.6 360.67 588.69 365.2 588.79 369.63C588.88 374.47 589.01 379.39 590.27 384.09C591.286 388.582 593.478 392.723 596.62 396.09C598.96 398.54 601.45 400.96 602.88 404.09C606.41 411.09 606.94 419.47 611.82 425.76C613.61 427.83 616.06 429.14 618.36 430.56H618.63C618.641 430.644 618.674 430.724 618.724 430.793C618.775 430.861 618.842 430.915 618.92 430.95C620.63 431.95 622.32 433.09 624.1 434C624.768 434.438 625.53 434.712 626.324 434.8C627.118 434.889 627.922 434.79 628.67 434.51C631.413 433.181 633.851 431.298 635.83 428.98C640.51 423.69 643.61 417.26 646.75 410.98C650.12 404.07 653.6 397.18 657.46 390.52C662.64 381.44 668.46 372.44 676.51 365.67C678.87 363.73 681.4 361.99 683.84 360.15C686.75 357.91 689.62 355.61 692.68 353.57C699.42 349 705.15 346.33 704.99 337.1Z" fill="#E4D8DA"/>
<path d="M679.93 562.64C673.16 562.18 666.08 561.96 659.67 559.53C655.35 557.7 651.73 554.53 648.11 551.61C642.43 547.14 637.39 541.86 631.91 537.16C626.265 532.653 620.216 528.677 613.84 525.28C601.18 518.5 606.74 543.5 606.5 549.5C607.76 562.66 602.93 572.19 590.13 576.61C583.65 579 576.6 579.43 570.01 581.43C550.74 586.78 539.9 600.31 529.7 616.52C526.32 622.66 518.09 633.52 530.21 635.05C541.4 635.87 552.65 633.84 563.81 633.05C571.39 632.53 579.19 631.31 586.74 632.6C593.93 634.1 599.65 639.14 600.74 646.6C603.22 658.47 594.74 668.34 589.86 678.34C586.694 685.483 584.634 693.067 583.75 700.83C583.47 703.52 586.44 704.91 588.25 706.31C589.806 707.418 591.261 708.659 592.6 710.02C597.01 714.52 599.42 720.51 601.17 726.46C603.077 733.025 604.563 739.706 605.62 746.46C606.08 749.02 606.53 751.59 607.01 754.15C607.45 756.49 607.85 760.37 611.34 757.81C616 754.13 618.34 748.34 620.77 743.09C625.95 731.94 626.02 719.48 626.84 707.45C627.6 696.06 630.1 684.86 632.84 673.8C634.02 669.06 635.18 664.24 637.41 659.86C639.1 656.22 641.93 653.19 643.33 649.42C644.391 646.148 645.079 642.767 645.38 639.34C645.471 637.221 645.738 635.114 646.18 633.04C647.37 629.17 650.83 626.52 653.68 623.86C657.33 620.64 661 617.28 663.5 613.06C667.919 605.583 671.776 597.788 675.04 589.74C676.69 585.74 678.31 581.74 679.83 577.74C680.83 577.15 680.11 563.79 680.38 562.82C680.44 562.61 680.1 562.65 679.93 562.64Z" fill="#E4D8DA"/>
<path d="M570.81 706.59C565.81 701.3 559.65 695.82 552.08 695.09C548.08 694.81 544.29 696.38 540.82 698.09C537.129 700.017 533.553 702.158 530.11 704.5C524.11 708.42 518.6 712.95 512.89 717.23C506.49 721.55 499.53 725.09 492.73 728.72C489.236 730.426 485.639 731.912 481.96 733.17C477.11 735.04 471.68 735.84 466.68 734.17C463.05 732.96 459.9 730.64 456.48 728.99C454.48 728.09 452.35 727.07 450.15 727.47C447.2 728.38 444.75 730.6 442.73 732.87C441.221 734.885 440.112 737.169 439.46 739.6C437.91 745.6 436.15 751.6 434.05 757.48C432.15 763.2 430.42 768.98 428.41 774.66C426.97 778.48 424.91 782.06 423.71 785.97C422.688 789.647 422.22 793.455 422.32 797.27C422.266 799.291 422.963 801.26 424.276 802.796C425.589 804.333 427.425 805.328 429.43 805.59C434.65 805.87 439.04 802.41 443.36 799.95C444.853 798.971 446.417 798.105 448.04 797.36C451.17 796.584 454.362 796.089 457.58 795.88C462.74 795.01 468.15 785.95 470.66 781.63C471.92 779.19 474.48 777.88 476.88 776.75C480.2 775.34 483.68 774.24 486.99 772.75C497.546 768.198 507.845 763.071 517.84 757.39C524.02 753.93 529.84 749.84 535.74 745.89C540.56 742.53 545.54 739.33 550.17 735.7C555.73 731.738 560.973 727.348 565.85 722.57C567.71 722.19 570.85 708.81 571.64 707.47L570.81 706.59Z" fill="#E4D8DA"/>
<path d="M351.9 720.66C333.66 714.23 331.2 702.26 322.15 687.41C317.59 679.58 313.78 671.31 309.97 663.1C308.18 659.17 305.97 655.36 304.39 651.35C302.39 646.24 300.53 641.01 297.74 636.25C296.428 634.093 294.961 632.034 293.35 630.09C292.02 628.39 290.77 626.59 289.3 625.02C288.232 623.942 287.056 622.977 285.79 622.14C285.154 621.597 284.399 621.21 283.586 621.01C282.774 620.811 281.926 620.804 281.11 620.99C278.74 621.74 277.11 623.85 275.77 625.8C272.709 630.337 270.769 635.536 270.11 640.97C269.178 647.507 268.681 654.098 268.62 660.7C268.55 662.7 268.5 664.84 268.29 666.87C268.12 668.29 267.99 669.94 266.7 670.81L266.5 670.94C263.813 672.9 261.584 675.422 259.97 678.33C257.48 683.8 256.76 689.89 255.44 695.7C252.696 706.924 253.453 718.719 257.61 729.5C259.34 734.3 261.69 738.9 263.09 743.82C264.63 749.35 264.74 755.18 264.93 760.88C265 766.04 264.87 770.78 269.65 774C275.12 777.93 282.28 777.45 288.65 777.66C291.245 777.565 293.843 777.774 296.39 778.28C297.7 778.65 298.83 779.48 300.11 779.93C304.82 781.36 309.61 779.43 314.36 779.2C315.604 779.089 316.851 779.387 317.91 780.05C319.246 781.3 320.499 782.636 321.66 784.05C326.66 789.05 329.1 792.42 336.86 791.75C339.613 791.889 342.371 791.571 345.02 790.81C346.752 790.434 348.386 789.702 349.82 788.66C351.814 787.459 353.274 785.542 353.9 783.3C355.44 778.51 355.15 773.38 355.32 768.41C355.24 758.74 355.75 749.06 356.07 739.41C356.07 738.19 356.07 736.71 356.13 735.49V734.49L352.07 720.76L351.9 720.66Z" fill="#E4D8DA"/>
<path d="M603.44 426.13C603.319 423.586 602.278 421.173 600.51 419.34C599.45 418.18 598.15 417.1 597.69 415.53C596.63 412.17 596.02 408.66 594.95 405.3C594.2 403.05 593.16 400.9 592.26 398.71C590.63 394.48 588.79 390.32 586.9 386.2C585.344 382.424 583.52 378.765 581.44 375.25C580.586 373.673 579.504 372.231 578.23 370.97C572.09 366.26 563.05 373.14 556.91 375.33C548.3 378.61 540.13 382.93 531.73 386.7C527.49 388.53 523 389.87 518.73 391.75C514 393.89 509.4 396.43 504.84 398.9C496.961 403.219 489.655 408.506 483.09 414.64C478.16 419.48 473.87 425.03 468.27 429.15C460.16 435.15 451.12 439.84 442.5 445.06C429.68 452.81 416.62 460.16 403.16 466.75C395.48 470.75 387.96 475.05 380.21 478.9C375.15 481.39 370.21 484.18 365.21 486.8C360.02 489.59 354.66 492.12 349.6 495.13C343.6 498.99 337.77 503.24 331.69 507.02C324.15 511.63 316.51 516.19 309.99 522.22C305.77 526.04 301.9 530.3 297.94 534.39C294.018 538.268 290.391 542.432 287.09 546.85C278.49 558.68 267.7 568.65 258.15 579.67C249.64 589.5 240.12 598.5 232.5 609.14C227.05 617.47 224.27 627.32 223.17 637.14C216.17 640.26 211.25 646.69 209.11 653.93C207.342 659.145 206.004 664.496 205.11 669.93C204.18 676.75 202.73 683.6 202.97 690.52C203.13 695.06 204.22 699.52 204.97 703.96C205.818 709.105 206.382 714.293 206.66 719.5C207.329 724.737 209.273 729.729 212.32 734.04C213.979 736.501 216.342 738.404 219.1 739.5C221.33 740.44 224.43 741.41 226.22 739.2L230.71 742.53L230.91 742.33C230.85 736.53 230.14 730.69 230.4 724.89C230.509 724.611 230.676 724.358 230.89 724.148C231.103 723.937 231.359 723.775 231.64 723.67L231.84 723.86C237.78 725.86 240.47 734.16 242.64 739.49C243.547 742.097 244.996 744.482 246.89 746.49C249.897 749.109 252.736 751.914 255.39 754.89C257.303 757.377 258.949 760.058 260.3 762.89C263.3 768.57 265.3 772.81 272.55 773.05C274.76 772.95 277.88 773.66 279.46 771.76C280.74 769.92 280.24 767.51 280.01 765.44C279.61 762.53 279.09 759.57 278.57 756.68C276.2 743.43 275.48 740.73 266.09 730.96C261.09 725.66 257.15 721.24 257.47 713.46C257.711 709.657 258.643 705.929 260.22 702.46C262.37 697.15 268.39 701.24 271.74 703.01C275.74 705.36 275.74 702.6 274.47 699.52C272.84 695.52 270.04 692.04 267.87 688.3C264.21 681.66 263.16 673.86 263.42 666.37C263.3 651.6 270.83 668.82 273.1 672.92C275.54 677.48 278.45 681.82 281.2 686.19C284.2 690.58 286.9 696.04 292 698.3C293.44 698.5 294 696.81 294.16 695.66C294.68 692.54 293.64 689.37 292.58 686.47C291.58 683.84 290.39 681.16 289.18 678.63C287.18 674.51 285.13 670.34 283.39 666.1C282.44 663.66 280.59 660.59 282.3 658.1C284.24 656.18 287.17 658 289.3 658.73C292.1 660.02 291.58 656.21 291.04 654.64C290.11 651.64 288.43 648.84 287.18 645.94C285.706 642.824 284.657 639.525 284.06 636.13C283.84 634.13 283.06 632.05 283.59 630.08C284.159 629.134 284.912 628.313 285.806 627.665C286.699 627.018 287.714 626.557 288.79 626.31C290.81 626.005 292.871 626.484 294.55 627.65C299.43 631.65 300.77 638.05 303.08 643.65C304.97 648.81 307.21 653.85 309.08 659.03C309.95 661.6 310.73 664.21 311.65 666.76C312.354 668.386 312.952 670.057 313.44 671.76C314.44 675.63 314.44 679.76 316.01 683.48C317.385 686.175 319.062 688.705 321.01 691.02C323.14 693.86 325.23 696.76 327.4 699.57C329.77 702.18 333.32 710.09 337.19 705.21L337.33 705.02C338.461 703.123 339.199 701.018 339.5 698.83C340.167 695.908 340.201 692.877 339.6 689.94C338.6 686 335.37 683.24 332.89 680.2C322.79 666.76 320.98 649.02 321.99 632.7C323.54 626.08 332.3 648.7 332.99 650.18C333.89 652.59 334.6 655.1 335.39 657.54C335.88 659.417 336.733 661.18 337.9 662.73C340.118 665.417 342.027 668.346 343.59 671.46C346.52 678.12 348.23 685.25 350.71 692.08C351.81 694.77 352.44 697.91 354.58 699.99C358.74 702.06 362.81 695.26 364.07 691.99C366.76 684.88 368.07 677.29 369.71 669.91C370.15 667.67 370.66 665.41 371.26 663.21C371.497 661.845 371.999 660.541 372.74 659.37H373.03C378.09 666.08 373.12 683.37 371.89 691.37C370.069 701.869 369.239 712.516 369.41 723.17C369.41 728.03 369.12 733.01 370.88 737.64C371.69 739.638 372.339 741.698 372.82 743.8C373.195 746.372 373.365 748.971 373.33 751.57C373.33 753.17 373.33 754.81 373.33 756.41C373.33 757.75 373.19 759.25 374.16 760.31C375.72 762.12 377.95 760.42 379.16 759.06C383.51 753.9 384.57 746.88 386.7 740.65C387.38 738.32 387.92 735.93 388.7 733.65C389.4 731.6 390.34 729.65 391.04 727.58C392.72 721.34 395.04 714.84 395.92 708.49C396.252 705.836 396.419 703.164 396.42 700.49C396.42 698.2 394.42 696.75 392.42 696.09C387.94 694.97 386.53 690.01 386.04 685.95C385.445 681.383 385.445 676.757 386.04 672.19C386.636 668.342 387.536 664.547 388.73 660.84C390.29 654.37 391.73 647.84 393.79 641.49C395.358 636.644 397.528 632.015 400.25 627.71C402.8 623.8 405.64 619.96 406.69 615.33C407.448 612.248 407.831 609.085 407.83 605.91C407.83 603.98 407.28 602.03 407.83 600.13C408.95 594.13 414.03 593.13 418.66 590.51C421.438 588.851 423.987 586.833 426.24 584.51C428.847 582.139 430.996 579.309 432.58 576.16C434.5 572.16 434.11 567.62 433.52 563.38C433.06 559.58 432.76 555.7 432.58 551.87C432.01 545.898 432.896 539.876 435.16 534.32C439.3 524.58 444.16 519.68 438.89 508.61C437.62 506.12 435.98 503.77 434.57 501.37C433.63 499.74 432.57 498 432.57 496.05C432.57 492.05 435.9 489.23 438.57 486.69C441.485 483.975 444.546 481.422 447.74 479.04C450.93 476.55 454.45 474.51 457.74 472.18C462.1 468.98 466.04 465.18 470.3 461.9C473.57 459.9 474.2 466.58 474.37 468.56C474.86 478.86 468.97 488.03 463.31 496.17C461.89 498.12 460.39 500.09 458.98 502.05C458.25 503.15 457.15 504.21 456.98 505.58C458.44 511.23 477.43 503.67 482.57 506.04C488.64 507.78 486.7 515.76 485.63 520.35C485.17 522.06 484.72 523.8 484.31 525.52C483.7 527.6 483.7 530.07 485.31 531.68C487.58 533.68 490.89 531.78 493.31 530.86C495.71 529.75 498.1 528.57 500.45 527.35C506.67 524.04 507.71 524.57 513.53 528.47C517.29 531.06 520.77 534.03 524.38 536.82C525.791 537.787 527.3 538.604 528.88 539.26C531.9 540.88 535.098 542.145 538.41 543.03C547.86 545.46 546.54 545.2 554.59 539.93C557.18 538.36 560.17 536.8 563.26 537.74C567.02 538.5 570.75 540.21 574.66 539.5C576.26 539.16 578.14 539.14 579.36 537.93L579.51 537.75C583.51 530.61 578.24 518.04 575.89 510.75C574.54 506.101 573.668 501.326 573.29 496.5C572.23 489.15 575.23 482.24 577.82 475.5C580.498 468.105 584.161 461.106 588.71 454.69C591.357 450.626 594.573 446.962 598.26 443.81C600.432 442.016 601.884 439.498 602.35 436.72C603.135 433.246 603.501 429.691 603.44 426.13Z" fill="white"/>
<path d="M677.18 450.17C677.25 446.63 673.88 444.36 670.73 443.73C663.92 442.57 656.96 445.79 650.23 443.62C643.15 441.78 636.09 439.62 633.65 431.93C632.71 429.06 632.32 426.01 631.45 423.12C630.89 420.988 629.9 418.994 628.54 417.26C627.066 415.673 625.446 414.23 623.7 412.95C621.24 411.21 619.445 408.685 618.61 405.79C617.24 402.98 619.1 401.21 620.51 398.94C624.26 393.32 621.73 389.33 618.03 384.67C616.55 382.58 615.03 380.4 614.64 377.82C613.9 373.82 613.94 369.45 615.98 365.82C619.11 358.98 625.24 364.45 628.61 367.99C632.2 371.6 637.12 374.82 637.61 380.36C637.919 383.496 637.579 386.662 636.61 389.66C635.9 392.52 634.36 396.22 637.18 398.42C642.87 402.85 647.76 393.95 650.18 389.8C651.752 386.962 653.537 384.248 655.52 381.68C659.148 377.277 663.157 373.201 667.5 369.5L670.74 366.5C671.36 365.86 672.24 365.27 672.16 364.26C671.95 363.47 671.08 363.12 670.39 362.83C669.024 362.386 667.611 362.104 666.18 361.99C662.298 361.497 658.355 362.114 654.81 363.77C652.11 364.93 649.44 366.24 646.76 367.45C644.98 368.12 643.03 369.62 641.07 368.86C637.97 367.13 637.68 363.09 636.33 360.15C636.006 359.376 635.589 358.644 635.09 357.97C634.81 357.72 634.54 357.09 634.09 357.23L633.95 356.92C630.86 355.27 627.24 354.78 624.06 353.33C622.508 352.547 621.198 351.359 620.27 349.89C618.49 346.53 618.48 342.48 618.95 338.79C619.82 333.13 621.13 327.45 620.39 321.7C619.9 316.7 618.83 311.76 618.14 306.8C618.01 304.8 615.89 293.9 615.58 291.86C615.46 291.77 615.22 291.72 615.15 291.92C614.87 292.41 614.3 293.5 614.03 293.99C609.86 301.74 604.28 309.99 606.03 319.19C606.73 323.41 607.87 327.6 608.25 331.87C609.02 337.92 607.63 343.96 606.25 349.8C605.25 353.85 604.37 357.95 603.43 362.02C601.66 368.51 599.99 375.26 601.06 382.02C601.77 386.1 603.34 389.97 604.42 393.96C605.331 397.514 605.999 401.125 606.42 404.77C607.24 409.88 606.35 415.2 607.83 420.21C608.773 422.68 609.924 425.065 611.27 427.34C617.04 437.13 619.11 439.62 619.27 451.53C619.55 462.69 617.62 474.06 620.16 485.06C622.82 494.56 628.41 502.95 634.16 510.88C635.061 512.133 636.101 513.28 637.26 514.3C637.88 514.86 638.57 515.6 639.43 515.59C642.04 515.05 641.86 510.46 641.57 508.39C638.84 495.78 637.27 494.39 644.63 482.76C652.19 470.7 653.56 470.17 666.29 464.39C670.237 462.622 673.606 459.776 676.01 456.18C676.953 454.325 677.358 452.243 677.18 450.17Z" fill="white"/>
<path d="M787.18 423.12C787.18 417.29 782.43 414.38 778.8 410.66C775.54 407.19 772.56 403.45 769.59 399.74C767.05 396.81 758.79 389.6 755.94 386.74C742.94 388.53 734.82 395.04 727.05 405.16C725.135 407.58 723.365 410.111 721.75 412.74C720.9 414.27 719.61 416.05 720.24 417.88C720.89 419.55 722.5 420.59 723.82 421.71C727.33 424.03 728.58 426.71 729.03 430.8C729.37 434.65 728.74 438.5 728.65 442.34C728.47 447.15 730.57 450.22 735.06 451.9C738.14 453.25 741.84 453.9 744.43 456.11C746.84 458.57 747.01 462.51 746.51 465.74C745.16 470.59 742.96 475.18 741.35 479.94C739.039 486.391 737.574 493.113 736.99 499.94C736.66 503.25 736.27 506.72 737.38 509.94C738.45 512.98 740.58 515.533 743.38 517.13C748.96 518.65 748.96 506.85 749.27 503.37C749.323 498.02 750.065 492.7 751.48 487.54C752.82 482.45 755.18 477.68 756.84 472.7C760.62 462.44 763.59 451.81 768.02 441.81C768.88 440.231 769.859 438.72 770.95 437.29C772.41 434.93 774.03 435.24 774.78 437.9C775.54 441.84 774.63 445.9 774.17 449.82C772.17 458.53 782.06 446.9 783.02 444.64C784.78 441.12 785.41 437.18 786.02 433.33C786.623 429.955 787.01 426.544 787.18 423.12Z" fill="white"/>
<path d="M673.18 822.1C672.5 817.5 669.07 814.1 666.5 810.48C663.15 805.89 660.09 801.07 656.31 796.81C653.6 793.61 650.56 790.65 648.23 787.16C644.46 780.98 643.03 773.61 642.74 766.45C642.5 754.31 643.74 742.2 645.1 730.15C645.447 723.975 646.381 717.848 647.89 711.85C649.2 705.95 651.47 700.33 653.42 694.62C654.702 690.589 655.678 686.468 656.34 682.29C656.82 679.13 657.02 675.9 657.56 672.74C658.93 664.95 660.05 657.11 660.73 649.23C660.92 647.31 661.05 645.32 661.17 643.39C661.02 640.99 662.81 630.54 662.61 628.25L662.38 628.31C659.624 632.632 657.113 637.106 654.86 641.71C653.05 645.93 652.57 650.59 652.01 655.1C651.513 659.6 650.789 664.073 649.84 668.5C648.08 676.84 646.13 685.17 644.57 693.5C643.74 698.04 643.22 702.66 642.33 707.2C640.8 715.2 637.47 722.63 635.33 730.44C633.9 736.11 633.75 742.02 633.59 747.83C633.35 752.83 633.95 757.83 633.81 762.83C633.67 767.83 629.81 771.96 625.75 774.5C624.14 775.5 622.44 776.41 620.8 777.37C619.583 777.95 618.547 778.848 617.8 779.97C613.88 786.44 618.32 792.3 621.42 797.97C623.29 801.34 623.51 805.37 625.17 808.81C625.442 809.266 625.779 809.68 626.17 810.04L626.34 810.19C628.43 811.76 631.16 812.06 633.65 812.56C636.616 812.94 639.47 813.935 642.03 815.48C643.041 816.075 644.007 816.743 644.92 817.48C645.92 818.17 647.02 819.14 646.73 820.48C645.88 822.82 643.03 823.31 641 824.22C638.65 825.179 636.525 826.616 634.76 828.44C629.04 833.74 635.84 835.98 640.27 837.81C642.51 838.81 644.27 840.69 646.27 842.01C647.8 843.24 649.27 841.79 649.92 840.37C650.72 838.7 650.69 836.81 650.92 835.01C651.152 833.325 651.486 831.655 651.92 830.01C652.133 828.853 652.564 827.747 653.19 826.75C654.57 825.22 657.12 827.18 658.02 828.45C659.4 830.17 660.19 832.28 661.44 834.08C661.723 834.7 662.149 835.243 662.683 835.667C663.216 836.091 663.842 836.384 664.51 836.52C665.9 836.31 666.33 834.36 667.1 833.33C668.35 831.22 669.69 829.13 671.1 827.12C671.994 826.084 672.674 824.881 673.1 823.58C673.191 823.092 673.218 822.595 673.18 822.1Z" fill="white"/>
<path d="M624.77 502.29C621.537 497.489 618.627 492.478 616.06 487.29C614.21 482.49 614.31 477.15 614.13 472.08C613.978 465.991 614.212 459.899 614.83 453.84C615.63 448.84 616.63 443.84 616.63 438.76C616.82 435.04 616.06 431.12 616.12 427.5C617.82 429 621.61 435.9 623.92 436.7C628.09 439.42 631.83 443.01 636.72 444.43C638.97 445.16 641.29 445.78 643.58 446.37C645.435 446.703 647.206 447.4 648.79 448.42C650.012 449.401 650.844 450.786 651.137 452.325C651.431 453.865 651.166 455.458 650.39 456.82C648.3 461.54 644.73 465.42 640.96 468.82C638.66 471.09 635.96 473.09 634.09 475.74C629.02 483.69 627.22 493.19 625.09 502.2L624.92 502.31L624.77 502.29Z" fill="white"/>
<path d="M738.42 335.65C738.02 333.65 736.29 332.01 734.97 330.49C732.57 328.17 729.97 326.07 727.31 324C724.383 321.837 721.286 319.914 718.05 318.25C716.82 316.94 704.27 315.9 702.49 315.56C697.43 316.99 692.4 318.67 687.23 319.62C683.553 320.173 679.825 320.297 676.12 319.99C674.8 319.91 673.47 319.8 672.12 319.74C671.109 319.534 670.059 319.653 669.12 320.08C668.129 320.94 667.493 322.138 667.336 323.441C667.179 324.744 667.512 326.059 668.27 327.13C669.04 328.376 670.261 329.275 671.68 329.64C673.591 330.28 675.608 330.542 677.62 330.41C681.87 330.18 686.12 329.81 690.38 329.81C694.67 330.07 698.96 330.51 703.26 330.72C707.26 330.97 711.36 330.88 715.4 331.2C717.432 331.574 719.436 332.085 721.4 332.73C725.346 334.18 729.39 335.353 733.5 336.24C734.78 336.38 738.34 337.8 738.42 335.65Z" fill="white"/>
<path d="M667.5 296.12C673.64 288.84 672.67 278.79 672.91 269.89C672.889 261.346 673.845 252.827 675.76 244.5L670.56 233.02L670.38 232.9C668.29 239.28 666.98 246.17 664.72 252.59C662.39 258.81 660.57 265.24 657.92 271.34C655.363 276.773 653.324 282.435 651.83 288.25C650.95 291.93 650.09 295.88 651.29 299.58C651.76 301.182 652.432 302.718 653.29 304.15C654.384 306.388 655.617 308.555 656.98 310.64C657.593 311.775 658.317 312.847 659.14 313.84C659.62 314.35 660.02 315.13 660.73 315.31V315.13L661.01 315.25C662.65 313.61 662.45 310.92 663.12 308.82C663.68 306.56 664.22 304.293 664.74 302.02C665.32 299.89 665.97 297.71 667.5 296.12Z" fill="white"/>
<path d="M288.79 568.7C293.6 558.679 299.349 549.136 305.96 540.2C314.77 529.4 324.9 519.13 332.09 507.2H331.84C322.89 512.6 313.03 518.9 305.42 525.97C297.49 534.04 290.78 543.18 283.66 551.97C279.174 557.872 274.314 563.48 269.11 568.76C265.41 572.86 262.06 577.3 258.26 581.31C256.02 583.65 253.77 586.02 251.39 588.22C248.611 590.546 246.013 593.08 243.62 595.8C240.356 599.493 237.311 603.373 234.5 607.42C231.8 610.79 228.91 614.03 226.22 617.42C220.58 624.56 216.69 633.01 213.89 641.64C212.537 647.154 211.7 652.781 211.39 658.45C210.57 669.03 207.94 679.45 208.1 690.13C208.63 698.95 208.1 712.13 217.17 716.83C219.51 717.89 221.93 719.14 224.55 719.19C226.527 719.047 228.45 718.481 230.19 717.53C233.42 715.37 234.9 717.13 236.54 719.95C237.901 722.531 239.08 725.205 240.07 727.95C241.6 731.59 243.23 735.21 245.07 738.71C249.39 747.06 255.24 754.51 261.34 761.62C265.09 765.62 268.34 770.45 273.34 773.04C276.2 774.57 272.55 769.52 272.29 768.76C271.457 767.334 270.741 765.842 270.15 764.3C268.1 759.3 268.15 753.71 266.53 748.55C265.208 744.145 263.236 739.963 260.68 736.14C259.36 734.14 257.78 732.28 256.44 730.26C253.883 726.674 251.911 722.705 250.6 718.5C248.6 713.03 247.38 707.16 248.2 701.33C249.2 693.73 254.32 687.64 256.92 680.6C258.41 676.66 257.33 672.16 255.25 668.6C251.81 663.33 246.38 659.77 242.38 654.96C234.95 647.29 231.99 635.52 235.99 625.47C237.65 620.83 239.48 616.07 242.65 612.24C246.99 607.01 252.78 603.4 258.31 599.58C262.99 596.32 267.39 592.58 272.49 589.95C275.83 588.11 280.03 587.36 282.55 584.32C283.76 582.61 284.2 580.48 284.93 578.55C286.06 575.24 287.34 571.91 288.79 568.7Z" fill="white"/>
<path d="M596.85 423.07C596.45 417.53 594.74 412.21 593.22 406.9C591.914 401.821 591.024 396.644 590.56 391.42C590.35 389.16 590.26 386.8 590.15 384.53C589.91 383.53 591.8 370.53 591.55 369.53C591.38 366.1 591.29 362.53 589.48 359.46C588.7 358.07 587.71 356.55 586.08 356.15C585.172 355.884 584.221 355.796 583.28 355.89C582.819 355.865 582.357 355.885 581.9 355.95C581.594 355.88 581.276 355.88 580.97 355.95C580.566 355.921 580.161 355.958 579.77 356.06L579.36 355.94L579.18 356.11C577.675 356.226 576.184 356.487 574.73 356.89C572.28 357.79 569.97 359.04 567.63 360.17C558.63 364.37 550.63 370.25 542.2 375.5C538.41 377.82 534.83 380.61 530.75 382.44C526.95 383.99 522.92 384.97 519.17 386.66C514.71 388.72 510.31 390.95 505.93 393.18C501.85 395.29 497.61 397.64 494.93 401.5C493.21 403.84 491.46 406.19 489.93 408.65C488.097 411.777 486.094 414.802 483.93 417.71C482.23 420.07 480.34 422.3 478.47 424.53C476.856 426.646 475.12 428.667 473.27 430.58C468.41 434.73 463.57 439.13 457.83 442.05C454.83 443.38 451.63 444.05 448.56 445.2C444.08 447.07 439.88 449.59 435.56 451.8C429.2 454.8 422.67 457.47 416.44 460.75C409.24 464.39 402.31 468.59 395.02 472.08C392.884 472.899 390.85 473.963 388.96 475.25C385.748 477.768 382.883 480.7 380.44 483.97C375.33 492.09 382.24 490.5 387.86 491.57C395.91 493.09 393.95 495.44 390.67 500.96C388.36 504.96 379.47 520.58 387.4 522.28C388.88 522.345 390.362 522.325 391.84 522.22C392.68 522.22 393.84 522.22 394.32 523.06C394.78 524.4 393.82 525.72 393.32 526.91C391.51 530.343 389.312 533.558 386.77 536.49C383.66 540.13 380.07 543.94 375.36 545.32C374.299 545.431 373.275 545.773 372.36 546.32C371.194 547.57 370.229 548.994 369.5 550.54C367.406 554.257 365.688 558.173 364.37 562.23C363.12 566.46 362.29 570.83 361.1 575.08C358.61 584.49 356.1 593.93 354.85 603.61C353.85 609.27 352.71 614.96 352.53 620.73C352.186 626.465 352.333 632.22 352.97 637.93C353.74 642.78 354.97 647.57 355.7 652.43C356.38 656.18 356.52 659.99 357.1 663.75C358.26 670.75 359.85 677.62 360.33 684.66C361.04 692.9 360.52 701.17 360.33 709.42C360.343 716.393 360.807 723.357 361.72 730.27C362.36 734.7 363.09 739.27 364.94 743.35C366.07 745.76 368.07 747.74 368.74 750.35C369.115 752.564 369.315 754.804 369.34 757.05C369.67 761.92 369.87 766.82 369.95 771.71C370.01 777.95 371.31 784.09 371.95 790.28C372.61 799.28 373.08 808.52 376.39 817.05C377.197 819.38 378.447 821.533 380.07 823.39C380.553 823.856 381.181 824.142 381.85 824.2C382.147 824.187 382.427 824.058 382.631 823.842C382.834 823.625 382.945 823.337 382.94 823.04C382.94 820.04 382.4 816.96 382.09 813.94C380.96 803.33 379.41 792.77 378.28 782.16C377.11 771.88 378.83 758.72 383.97 749.6C385.84 746.02 388.8 743.22 391.37 740.16C394.518 736.095 397.021 731.568 398.79 726.74C400.73 721.24 399.2 710.93 391.57 711.68C387.5 712.34 384.01 717.51 379.71 715.83C377.6 714.69 376.71 712.41 376.04 710.22C374.04 704.45 374.75 698.22 374.74 692.22C375.11 683.27 374.98 674.22 377.11 665.42C379.5 655.6 382.8 645.79 388.18 637.19C391.05 632.33 394.04 627.5 396.71 622.52C398.257 620.002 399.242 617.179 399.598 614.245C399.953 611.311 399.671 608.335 398.77 605.52C397.56 601.65 394.54 596.52 390.31 600.59C386.73 603.2 378.96 615.7 374.64 612.85C371.64 610.52 373.35 602.79 373.8 599.41C375.71 589.813 379.211 580.602 384.16 572.16C386.338 568.015 388.931 564.101 391.9 560.48C394.13 558 396.95 556.12 399.36 559.48C401.68 562.32 403.43 565.63 405.76 568.48C408.367 571.849 411.704 574.584 415.52 576.48C417.76 577.57 419.99 577.48 420.52 574.66C420.988 572.192 421.182 569.68 421.1 567.17C421.24 557.55 419.64 547.98 419.49 538.38C419.536 535.311 420.429 532.314 422.07 529.72C423.28 527.72 424.96 526.12 426.23 524.2C428.66 520.48 429.05 515.93 428.59 511.61C428.233 506.904 427.565 502.227 426.59 497.61C425.34 490.8 423.43 483.13 426.96 476.7C429.518 473.339 432.695 470.498 436.32 468.33C440.81 465.81 445.97 464.57 450.18 461.53C456.87 457.16 461.61 450.04 469.03 446.8C476.61 442.95 490.31 450.4 495.15 442.27C498.15 436.4 497.38 429.33 500.15 423.38C501.418 420.966 503.374 418.982 505.77 417.68C509.54 415.508 513.956 414.736 518.24 415.5C524.1 416.04 530.24 418.94 532.6 424.61C535.11 430.76 534.16 437.61 534.6 444.1C534.87 451.98 535.83 460.91 541.8 466.68C544.31 469 547.48 471.08 551.03 470.94C554.03 470.94 556.03 468.17 557.03 465.63C559.83 458.47 563.03 451.13 568.9 445.93C572.023 443.402 575.63 441.541 579.5 440.46C581.7 439.91 584.01 439.79 586.15 439.05C589.15 437.91 592.3 436.49 594.24 433.84C596.114 430.571 597.02 426.835 596.85 423.07Z" fill="white"/>
<path d="M334.19 798.13C334.098 797.388 333.838 796.677 333.43 796.05C333.09 795.762 332.66 795.605 332.215 795.605C331.77 795.605 331.34 795.762 331 796.05C330.47 796.78 330.19 797.66 329.72 798.41C329.3 799.145 328.707 799.766 327.993 800.219C327.278 800.672 326.464 800.944 325.62 801.01C323.17 800.87 322.44 796.67 321.15 795.01C316.95 787.83 311.68 787.43 304.2 789.37C298.99 790.62 293.61 790.69 288.3 790.87L288.23 791.22C294.87 796.79 303.09 804.53 311.32 807.48C313.38 808.3 315.55 808.812 317.76 809C319.997 809.274 322.267 808.953 324.34 808.07C326.55 807.15 329.04 806.75 331.01 805.36C332.94 803.5 334.61 800.88 334.19 798.13Z" fill="white"/>
<path d="M398.17 903.29C397.75 896.66 393.28 891.29 391.11 885.15C388.56 880.07 389.11 874.15 386.74 869.04C384.48 864.79 381.92 860.7 379.35 856.63C376.49 851.71 373.68 846.74 371.17 841.63C369.17 837.47 367.17 833.28 365.56 828.96C363.1 822.43 361.56 814.17 360.07 807.31C359.35 807 359.56 808.25 359.46 808.65C359.39 809.83 359.46 811.09 359.46 812.27C359.57 816.02 359.72 819.8 360.06 823.54C360.62 829.54 360.06 835.72 362.12 841.47C363.65 845.79 366.18 849.66 368.34 853.67C371.343 858.992 373.983 864.511 376.24 870.19C379.16 877.31 381.24 884.75 383.99 891.93C384.885 894.648 386.033 897.277 387.42 899.78C388.949 902.49 391.047 904.837 393.57 906.66C394.378 907.484 395.367 908.108 396.46 908.48C398.3 907.64 398.22 905.04 398.17 903.29Z" fill="white"/>
<path d="M694.359 560.92C692.509 556.57 681.78 560.05 678.15 560.69C674.96 560.96 665.15 567.43 662.01 568.01C658.51 569.01 655.079 570.6 651.469 571.07C647.059 571.32 648.25 566.79 649.38 564.14C649.873 563.102 650.21 561.997 650.38 560.86C650.19 558.86 647.79 558.19 646.09 558.59C641.36 559.43 637.37 562.4 633.28 564.75C629.72 566.75 626.54 568.93 625.28 563.32C624.907 561.396 624.733 559.439 624.76 557.48C624.76 556.91 624.76 556.28 624.7 555.71C624.61 555.32 624.699 554.59 624.159 554.58L624.08 554.32C622.93 554.06 621.9 555.14 621.15 555.89C619.743 557.449 618.786 559.36 618.38 561.42C617.68 564.42 618.71 567.42 618.28 570.42C617.9 571.73 617.079 573.32 615.549 573.47C613.009 573.74 610.55 572.96 608.02 572.69C601.5 572.69 598.29 579.32 595.13 584.03C592.539 587.969 589.28 591.424 585.5 594.24C581.752 597.189 577.56 599.525 573.08 601.16C569.48 602.74 565.569 603.73 562.299 605.98C556.519 609.74 553.84 612.43 553.13 619.6C552.36 624.18 552.929 628.77 555.739 632.6C559.869 638.36 567.639 634 571.739 630.4C576.049 626.8 579.289 622.1 583.539 618.4C585.968 616.807 588.611 615.568 591.39 614.72C593.88 613.88 596.39 612.9 598.93 612.24C603.63 610.91 608.58 610.18 612.93 607.92C617.08 605.74 619.93 601.87 622.83 598.3C625.37 594.71 628.29 591.88 632.77 591.07C636.89 590.07 641.159 590.27 645.349 590.07C649.799 589.83 653.929 587.71 657.679 585.46C662.009 582.77 666.13 579.74 670.4 576.97C675.54 573.15 681.149 570.25 686.729 567.17C688.259 566.29 689.73 565.34 691.26 564.37C692.5 563.5 694.499 562.66 694.359 560.92Z" fill="white"/>
<path d="M610.22 671.34C605.81 665.67 598.48 660.76 591.1 663.34C588.42 664.402 585.859 665.743 583.46 667.34C581.46 668.54 579.27 669.58 577.16 670.63C572.262 673.311 566.913 675.067 561.38 675.81C557.8 676.47 554.19 677.44 550.51 677.15C547.493 677.023 544.514 676.429 541.68 675.39C538.01 673.75 534.58 671.57 530.68 670.39C526.56 669.02 521.92 668.16 517.76 669.87C510.89 672.35 488.12 698.69 495.42 705.2C499.81 708.59 506.07 703.44 508.42 699.64C513.58 691.29 516.53 682.22 528.37 686.22C536.75 689.52 526.1 699.12 523.75 703.44C521.85 706.98 521.34 711.86 524.49 714.85C529.8 719.56 537.05 715.6 541.82 712.02C543.49 710.74 545.24 709.45 546.88 708.13C547.808 707.336 548.876 706.722 550.03 706.32L550.35 706.43C552.21 708.76 547.43 715.9 546.82 718.82C546.359 720.085 546.366 721.472 546.84 722.732C547.313 723.992 548.221 725.041 549.4 725.69C553.93 727.87 560.66 721.75 564.28 719.26C569.28 715.06 574.58 711.14 579.69 707.07C584.48 703.07 588.94 698.6 593.38 694.21C596.27 691.34 599.2 688.43 602.17 685.63C603.85 684.88 609.77 673.63 610.83 672.06L610.22 671.34Z" fill="white"/>
<path d="M793.3 532.68C788.9 532.39 787.23 530.29 788.09 525.96C788.49 523.42 788.45 520.59 790.09 518.48C792.72 515.19 796.71 513.12 798.86 509.42C800.26 507.34 800 504.88 799.86 502.53C799.651 500.523 799.776 498.496 800.23 496.53C800.77 493.89 802.48 491.76 803.8 489.48C804.479 487.983 804.944 486.397 805.18 484.77L805.24 484.54C805.9 480.65 810.89 479.4 811.3 475.54C811.65 469.79 800.73 465.33 802.86 460.01C805.37 455.9 809.93 453.57 814.13 451.53C814.31 451.76 826.06 457.69 826.04 458.11C826.466 458.697 826.803 459.344 827.04 460.03C828.81 465.71 825.93 471.34 824.78 476.85C823.44 482.78 822.47 488.8 820.78 494.65C819.53 499.12 817.78 503.44 816.09 507.78C815.09 510.22 814.09 512.69 812.98 515.09C811.501 517.868 809.735 520.482 807.71 522.89C806 524.81 804.52 527.01 802.44 528.56C799.74 530.5 796.75 532.5 793.3 532.68Z" fill="white"/>
<path d="M634.97 364.43C633.34 363.973 631.662 363.711 629.97 363.65C628.5 363.53 627.05 363.35 625.6 363.11C625.27 363.04 624.95 362.96 624.6 362.87C624.25 362.78 623.84 362.55 623.46 362.38L622.87 362.02L622.25 361.52C621.92 361.21 621.61 360.89 621.31 360.52L620.92 359.98L620.77 359.71C620.756 359.666 620.739 359.622 620.72 359.58L620.66 359.34C620.66 359.1 620.6 358.87 620.58 358.64C620.58 357.54 620.58 356.43 620.68 355.33C620.68 355.42 620.68 355.51 620.68 355.61V355.29C620.68 355.21 620.68 355.13 620.68 355.04C620.685 355.113 620.685 355.187 620.68 355.26C620.78 354.13 620.91 353 621.1 351.88C621.15 351.69 621.21 351.49 621.27 351.29C621.33 351.09 621.4 350.98 621.47 350.82L621.6 350.6L621.65 350.54C621.82 350.37 622 350.21 622.18 350.05C622.927 349.235 623.337 348.167 623.326 347.062C623.316 345.957 622.886 344.897 622.124 344.097C621.361 343.296 620.324 342.815 619.22 342.751C618.117 342.687 617.03 343.044 616.18 343.75C613.57 346.04 612.55 349.27 612.18 352.64C611.75 356.9 611.18 361.64 613.99 365.31C615.163 366.87 616.59 368.222 618.21 369.31C619.62 370.244 621.184 370.921 622.83 371.31C624.454 371.661 626.097 371.918 627.75 372.08C629.13 372.2 630.52 372.27 631.88 372.5H632.03L632.11 372.62L632.5 373.35C632.67 373.76 632.84 374.17 632.99 374.58C633.14 374.99 633.19 375.32 633.28 375.7C633.37 376.08 633.37 376.5 633.41 376.91C633.41 377.53 633.41 378.15 633.41 378.78C633.41 379.41 633.24 380.18 633.11 380.88C632.37 384 631.3 387.04 630.43 390.14C630.129 391.25 630.275 392.433 630.836 393.436C631.396 394.44 632.328 395.184 633.43 395.51C633.8 395.617 634.184 395.671 634.57 395.67C635.524 395.663 636.451 395.35 637.213 394.775C637.975 394.2 638.531 393.396 638.8 392.48C640.49 386.48 643.14 380.28 641.8 373.91C641.03 370.14 639.06 365.8 634.97 364.43Z" fill="black"/>
<path d="M668.59 252.07V252.12L668.41 252.63C668.5 252.44 668.5 252.25 668.59 252.07Z" fill="black"/>
<path d="M828.58 462.77C828.21 460.97 827.82 459.16 827.35 457.37C827.26 457.04 827.16 456.71 827.06 456.37C827.44 455.556 827.754 454.714 828 453.85C828.661 451.69 828.979 449.439 828.94 447.18C828.904 445.7 828.676 444.231 828.26 442.81C828.275 441.628 828.078 440.453 827.68 439.34C827.251 438.259 826.478 437.349 825.48 436.75C825.48 436.7 825.48 436.66 825.48 436.61C825.065 435.272 824.323 434.058 823.32 433.08C822.733 432.447 822.091 431.868 821.4 431.35C819.94 430.29 818.4 429.35 816.93 428.29C813.58 425.92 810.33 423.42 806.93 421.08C805.058 419.851 803.258 418.516 801.54 417.08C801.29 416.83 801.04 416.57 800.8 416.3C800.2 415.54 799.59 414.79 799.04 414V413.93C798.92 413.46 798.82 412.99 798.73 412.52C798.73 412.32 798.67 412.12 798.64 411.93V411.74C798.72 411.12 798.81 410.51 798.93 409.91C799.31 408.28 799.93 406.7 800.27 405.08C800.72 403.27 801.02 401.44 801.4 399.63C801.4 399.82 801.32 400 801.28 400.19C802.36 395.866 802.848 391.415 802.73 386.96C802.659 385.619 802.319 384.307 801.73 383.1C801.055 381.907 800.236 380.802 799.29 379.81L799.66 380.23C798.35 378.66 797.23 376.96 795.94 375.36C794.65 373.76 793.33 372.21 792.02 370.65C790.765 369.111 789.43 367.639 788.02 366.24C784.95 363.381 781.711 360.71 778.32 358.24C776.62 356.97 774.97 355.65 773.32 354.36C771.67 353.07 770.12 351.98 768.53 350.77C765.31 348.34 762.2 345.77 758.91 343.46C755.62 341.15 752.05 338.83 748.65 336.46C746.91 335.23 745.19 333.97 743.43 332.77C742 331.77 740.54 330.87 739.11 329.9C737.68 328.93 736.48 327.9 735.11 326.98C733.74 326.06 732.57 325.26 731.31 324.4C728.59 322.47 726.03 320.4 723.17 318.63C720.31 316.86 717.17 315.54 714.44 313.63C713.47 312.926 712.411 312.354 711.29 311.93C710.533 311.693 709.751 311.546 708.96 311.49C708.16 311.41 707.36 311.36 706.57 311.3C706.436 310.94 706.247 310.602 706.01 310.3C705.65 309.87 705.3 309.41 705.01 308.94L704.96 308.85C704.498 307.838 704.088 306.803 703.73 305.75C703.25 304.23 702.82 302.68 702.22 301.2C701.68 299.88 701.12 298.55 700.64 297.2C699.733 294.627 698.847 292.047 697.98 289.46C697.23 287.04 696.59 284.59 695.83 282.17C694.99 279.51 694.02 276.91 693.14 274.26C692.03 270.7 691.14 267.09 690.14 263.5C689.14 259.65 687.77 255.88 686.54 252.09C685.24 247.89 684.1 243.63 682.45 239.55C681.607 237.505 680.625 235.52 679.51 233.61C678.23 231.38 676.88 229.2 674.7 227.74C673.91 227.268 673.01 227.012 672.091 226.998C671.171 226.984 670.263 227.212 669.46 227.66C668.206 228.397 667.25 229.551 666.76 230.92C666.03 232.62 665.43 234.37 664.82 236.11C663.5 239.84 662.35 243.62 661.04 247.35C661.1 247.16 661.17 246.97 661.24 246.79C660.67 248.37 660.12 249.94 659.55 251.53L659.75 250.96C658.57 254.28 657.27 257.57 656.19 260.96C655.19 263.96 654.46 266.96 653.67 270.01C652.81 273.31 651.91 276.6 651.03 279.9C650.15 283.2 649.42 286.57 648.73 289.9C648.73 290.07 648.64 290.24 648.61 290.41C648.1 289.7 647.61 288.99 647.11 288.25C645.96 286.4 644.83 284.55 643.68 282.7C641.43 279.1 639.23 275.42 636.73 271.98C635.35 270.08 633.94 268.21 632.39 266.45C630.822 264.688 629.152 263.018 627.39 261.45C624.377 258.555 621.216 255.818 617.92 253.25C616.2 251.886 614.311 250.75 612.3 249.87C610.393 249.218 608.432 248.736 606.44 248.43L606.68 248.48L606.26 248.39H606.11C605.531 248.094 604.89 247.94 604.24 247.94C603.086 247.937 601.977 248.389 601.154 249.197C600.33 250.006 599.858 251.106 599.84 252.26C599.846 252.597 599.889 252.933 599.97 253.26C598.887 254.855 597.972 256.557 597.24 258.34C596.38 260.4 595.58 262.483 594.84 264.59C593.437 268.689 592.271 272.866 591.35 277.1C590.35 281.44 589.35 285.8 588.77 290.2C588.19 294.6 587.59 299.27 587.16 303.84C586.76 308.18 586.36 312.54 586.16 316.9C585.96 321.26 585.72 325.9 585.47 330.42C585.22 334.69 584.96 338.96 584.85 343.23C584.85 345.02 584.85 346.8 584.85 348.59C584.41 348.59 583.98 348.59 583.53 348.59C581.444 348.862 579.406 349.418 577.47 350.24C575.47 351.04 573.47 351.85 571.47 352.78C569.73 353.61 568.06 354.61 566.4 355.58C564.46 356.7 562.48 357.78 560.58 358.96C556.73 361.34 552.96 363.85 549.01 366.05C545.46 368.05 541.73 369.69 538.08 371.43L537.74 371.6L537.97 371.49C535.61 372.59 533.24 373.69 530.91 374.87C528.37 376.16 525.91 377.58 523.33 378.82C522.06 379.41 520.78 379.97 519.46 380.43C518.64 380.67 517.83 380.87 517 381.04L516.13 381.19C511.724 382.057 507.437 383.447 503.36 385.33C501.329 386.206 499.428 387.356 497.71 388.75C495.82 390.201 494.117 391.88 492.64 393.75C489.9 397.5 487.99 401.75 485.64 405.75C483.57 409.34 481.48 412.96 479.14 416.38C478.112 417.848 477.007 419.26 475.83 420.61C475.1 421.37 474.33 422.08 473.54 422.76C471.85 424.13 470.04 425.32 468.24 426.52C466.44 427.72 464.84 428.81 463.14 429.93C461.44 431.05 459.4 432.15 457.49 433.22C455.42 434.37 453.38 435.58 451.28 436.67C447.38 438.67 443.49 440.73 439.53 442.61H439.48C437.41 443.61 435.29 444.46 433.22 445.43L433.38 445.36L433.12 445.48L432.87 445.6L433.03 445.52C431.67 446.14 430.28 446.69 428.93 447.31C427.09 448.18 425.26 449.07 423.47 450.07C420.39 451.78 417.33 453.52 414.16 455.07C408.96 457.47 403.74 459.8 398.73 462.57C393.72 465.34 388.5 468.26 383.5 471.18C379.5 473.5 375.59 475.87 371.6 478.18C367.61 480.49 363.72 482.93 359.78 485.33C355.84 487.73 352.04 489.64 348.2 491.88C344.36 494.12 340.41 496.69 336.42 498.97C332.43 501.25 328.53 503.48 324.75 506.02C321.15 508.45 317.6 511.02 314.15 513.64C306.73 519.31 300.15 525.93 293.43 532.36C290.16 535.48 287.06 538.77 284.03 542.13C281 545.49 277.9 549.13 275.09 552.83C272.49 556.29 269.96 559.83 267.24 563.16C264.52 566.49 261.53 570.05 258.52 573.36C257.99 573.93 257.47 574.49 256.93 575.03C253.72 578.27 250.31 581.31 247.12 584.55C243.93 587.79 241.01 590.96 237.99 594.2C234.97 597.44 231.73 601 228.74 604.52C225.735 607.942 222.917 611.523 220.3 615.25C219.138 617.04 218.083 618.896 217.14 620.81C216.08 622.81 215 624.9 213.93 626.94C211.88 630.86 209.68 634.75 207.93 638.83C206.316 642.973 204.98 647.219 203.93 651.54C202.73 655.92 201.72 660.35 200.93 664.84C200.229 669.234 199.841 673.671 199.77 678.12C199.67 682.62 199.63 687.12 199.61 691.61C199.61 693.85 199.61 696.09 199.77 698.32C199.93 700.55 200.22 703.04 200.53 705.39C201.056 709.94 201.833 714.457 202.86 718.92C204.033 723.333 205.831 727.556 208.2 731.46C209.395 733.591 210.795 735.6 212.38 737.46C213.81 739.07 215.26 740.65 216.75 742.19C219.67 745.19 222.75 748.13 225.75 751.03C227.38 752.58 229.01 754.13 230.69 755.62C232.37 757.11 234.13 758.54 235.85 760C235.9 760 235.97 760 236.02 760.09C236.476 761.251 237.155 762.311 238.02 763.21C238.916 764.19 239.864 765.121 240.86 766C242.727 767.69 244.735 769.219 246.86 770.57C251.233 773.287 255.903 775.491 260.78 777.14L260.59 777.07C265.25 778.73 269.94 780.25 274.7 781.58C274.656 782.837 274.794 784.093 275.11 785.31C275.927 787.775 277.252 790.04 279 791.96C280.357 793.494 281.814 794.937 283.36 796.28C286.228 798.88 289.29 801.257 292.52 803.39C295.763 805.487 299.132 807.381 302.61 809.06C304.555 810.002 306.559 810.817 308.61 811.5C310.565 812.213 312.571 812.782 314.61 813.2C316.347 813.533 318.111 813.707 319.88 813.72C322.792 813.786 325.672 813.097 328.24 811.72C329.261 811.136 330.231 810.467 331.14 809.72C331.713 809.901 332.298 810.044 332.89 810.15C334.211 810.373 335.55 810.483 336.89 810.48C338.316 810.477 339.74 810.367 341.15 810.15C343.684 809.935 346.108 809.017 348.15 807.5C349.228 806.654 350.231 805.717 351.15 804.7C351.32 804.51 351.45 804.3 351.61 804.09C352.04 807.91 352.47 811.72 352.86 815.55C353.29 819.76 353.74 823.98 354.18 828.21C354.39 830.21 354.62 832.21 354.82 834.29C354.92 835.29 354.97 836.38 355.13 837.41C355.383 838.935 355.869 840.412 356.57 841.79C357.57 843.73 358.63 845.62 359.63 847.55C360.63 849.48 361.63 851.38 362.63 853.27C364.63 856.97 366.8 860.57 368.63 864.36C368.57 864.23 368.51 864.11 368.46 863.98C368.52 864.12 368.59 864.27 368.66 864.41C370.802 868.967 372.685 873.641 374.3 878.41C375.6 882.64 376.64 886.94 377.94 891.19C378.56 893.19 379.17 895.31 379.94 897.32C380.712 899.423 381.761 901.414 383.06 903.24C385.55 906.77 388.13 910.3 391.63 912.92C393.566 914.302 395.648 915.466 397.84 916.39C399.637 917.21 401.538 917.779 403.49 918.08C404.294 918.208 405.106 918.271 405.92 918.27C406.891 918.265 407.861 918.185 408.82 918.03C411.231 917.618 413.582 916.909 415.82 915.92C417.745 915.176 419.395 913.86 420.55 912.15C422.198 913.697 424.238 914.763 426.45 915.23C428.698 915.643 431 915.677 433.26 915.33C435.499 915.039 437.653 914.29 439.59 913.13C441.372 912.134 442.971 910.842 444.32 909.31C445.657 907.63 446.674 905.718 447.32 903.67C447.638 902.638 447.846 901.576 447.94 900.5C449.571 901.736 451.396 902.692 453.34 903.33C455.573 904.06 457.947 904.256 460.27 903.9C461.489 903.739 462.685 903.43 463.83 902.98C464.958 902.551 465.955 901.834 466.72 900.9C467.181 900.311 467.599 899.689 467.97 899.04C469.116 896.889 469.798 894.521 469.97 892.09C470.204 890.026 470.146 887.939 469.8 885.89C469.384 883.448 468.587 881.086 467.44 878.89C466.356 876.957 465.119 875.115 463.74 873.38C461.029 869.973 457.807 867.004 454.19 864.58C450.98 862.35 447.39 860.81 444.19 858.64C442.72 857.58 441.31 856.47 439.94 855.29C439.273 854.623 438.623 853.957 437.99 853.29C436.28 851.16 434.73 848.92 433.09 846.74C431.58 844.74 430.09 842.74 428.7 840.74C428.1 839.74 427.53 838.81 427.01 837.8C426.74 837.17 426.49 836.53 426.25 835.88C425.97 834.99 425.74 834.1 425.54 833.2C425.493 832.893 425.453 832.583 425.42 832.27C425.42 831.71 425.42 831.15 425.42 830.59C425.68 827.89 426.18 825.19 426.63 822.51C427.12 819.65 427.63 816.78 428 813.91C428.37 811.04 428.87 807.91 429.31 804.91C429.931 805.351 430.603 805.716 431.31 806C433.074 806.689 434.956 807.028 436.85 807H437.7C439.87 806.937 442.02 806.573 444.09 805.92C445.922 805.297 447.704 804.535 449.42 803.64C451.147 802.852 452.557 801.502 453.42 799.81L454.15 800.02C455.938 800.501 457.778 800.76 459.63 800.79C462.073 800.738 464.434 799.896 466.36 798.39C469.308 796.044 471.203 792.623 471.63 788.88C471.926 787.118 471.834 785.313 471.36 783.59C471.17 783.004 470.946 782.43 470.69 781.87L472.4 781.37C474.64 780.69 476.89 780.03 479.09 779.24C481.29 778.45 483.22 777.68 485.27 776.85C489.27 775.24 493.36 773.69 497.36 771.97C501.36 770.25 505.26 768.49 509.18 766.67L509.62 766.46C509.99 766.341 510.346 766.18 510.68 765.98C511.13 765.78 511.57 765.54 512 765.33L513.36 764.69C514.36 764.21 515.36 763.69 516.36 763.21C518.36 762.21 520.26 761.14 522.18 760.06C525.97 757.9 529.64 755.53 533.39 753.3C537.14 751.07 540.86 748.35 544.53 745.76C546.17 744.59 547.85 743.48 549.44 742.23C551.03 740.98 552.84 739.49 554.53 738.12C557.99 735.31 561.53 732.53 564.81 729.54C568.09 726.55 571.34 723.6 574.56 720.59C579.17 716.3 583.56 711.79 587.93 707.22C588.15 707.502 588.405 707.754 588.69 707.97C588.86 708.2 589.03 708.43 589.19 708.67C589.87 709.8 590.45 710.96 591.03 712.14C592.15 714.6 593.16 717.14 594.09 719.63C594.72 721.63 595.25 723.63 595.71 725.74C596.32 729.15 596.71 732.58 597.23 736.01C597.73 739.7 598.33 743.38 598.82 747.07C599.82 754.25 600.43 761.49 600.88 768.71C601.06 772.43 601.14 776.14 601.21 779.85C601.28 783.56 601.45 787.22 601.57 790.85C601.79 798.12 601.57 805.54 603.36 812.64C603.862 814.649 604.531 816.612 605.36 818.51C607.21 822.253 609.364 825.839 611.8 829.23C613.079 830.869 614.469 832.42 615.96 833.87C617.411 835.382 618.969 836.789 620.62 838.08C622.345 839.379 624.194 840.504 626.14 841.44C629.683 843.163 633.434 844.42 637.3 845.18C637.635 845.997 638.206 846.695 638.94 847.185C639.674 847.675 640.537 847.934 641.42 847.93H641.86C644.128 847.701 646.307 846.926 648.21 845.67C648.57 846.327 649.089 846.884 649.72 847.29C652.298 849.007 655.313 849.954 658.41 850.02C659.079 850.022 659.748 849.971 660.41 849.87C662.179 849.544 663.874 848.897 665.41 847.96C666.957 847.059 668.316 845.867 669.41 844.45C671.051 845.765 672.943 846.732 674.97 847.29C675.581 847.425 676.204 847.492 676.83 847.49C678.525 847.446 680.184 846.996 681.67 846.18C681.996 846.265 682.332 846.308 682.67 846.31H683.15C684.29 846.155 685.325 845.562 686.034 844.656C686.744 843.751 687.072 842.604 686.95 841.46C686.777 836.909 686.134 832.388 685.03 827.97C683.79 823.6 681.03 819.97 678.03 816.61C675.03 813.25 672.1 810.4 669.14 807.28C667.69 805.73 666.21 804.22 664.67 802.75C663.3 801.41 661.93 800.07 660.67 798.63C659.74 797.506 658.869 796.334 658.06 795.12C655.987 791.799 654.104 788.364 652.42 784.83C651.42 782.59 650.42 780.3 649.64 777.97C649.136 776.3 648.722 774.604 648.4 772.89C648.069 770.977 647.842 769.048 647.72 767.11C647.5 763.11 647.4 759.18 647.24 755.21C647.132 751.688 647.208 748.164 647.47 744.65C647.47 744.73 647.47 744.8 647.47 744.88V744.54C647.47 744.46 647.47 744.38 647.47 744.31V744.43C647.73 741.25 648.16 738.1 648.61 734.95C649.06 731.8 649.61 728.46 650.22 725.24C651.89 717.46 654.09 709.82 656.15 702.14C658.27 694.27 660.03 686.3 661.68 678.32C662.58 674.04 663.4 669.75 664.01 665.41C664.58 661.41 664.94 657.29 665.27 653.22C665.62 648.94 666.06 644.64 666.66 640.38C667.17 636.66 667.52 632.89 668.23 629.21C668.46 628.21 668.75 627.21 669.08 626.21C669.725 624.487 670.466 622.801 671.3 621.16C672.13 619.54 672.98 617.91 673.93 616.36C674.57 615.36 675.26 614.29 675.87 613.22C677.003 611.26 678.09 609.26 679.13 607.22C679.35 606.79 679.58 606.38 679.78 605.95L680.14 605.25C681.14 603.39 682.05 601.53 682.95 599.65C684.72 595.95 686.43 592.2 687.95 588.37C689.5 584.321 690.799 580.179 691.84 575.97C692.36 573.85 692.84 571.7 693.2 569.53C693.36 568.45 693.51 567.36 693.67 566.27V566.21C697.95 566 702.24 566 706.5 565.43C708.65 565.14 710.79 564.81 712.92 564.35C715.05 563.89 717 563.35 719.01 562.71C721.044 562.15 723.047 561.483 725.01 560.71C727.01 559.877 729.01 559.057 731.01 558.25C738.28 555.32 745.49 552.25 752.94 549.79L753.11 549.74H753L753.43 549.59L753.19 549.67C755.02 549.1 756.89 548.67 758.74 548.26C760.59 547.85 762.49 547.35 764.38 546.93C768.14 546.09 771.84 545.11 775.52 543.99C779.778 542.769 783.925 541.194 787.92 539.28C789.92 538.28 791.81 537.28 793.7 536.21C795.02 535.44 796.33 534.64 797.7 533.9C799.07 533.16 800.25 532.53 801.5 531.82C803.355 530.788 805.115 529.593 806.76 528.25C810.167 525.451 813.289 522.323 816.08 518.91C820.86 513.07 823.68 506.12 825.98 499C826.52 497.3 826.98 495.56 827.43 493.84C827.95 491.9 828.43 489.97 828.8 487.99C829.108 485.927 829.282 483.846 829.32 481.76C829.4 479.76 829.45 477.85 829.51 475.9C829.57 473.95 829.65 471.84 829.66 469.8C829.561 467.424 829.199 465.066 828.58 462.77ZM462.35 785.01C462.43 785.131 462.5 785.258 462.56 785.39C462.609 785.491 462.653 785.594 462.69 785.7C462.74 785.87 462.78 786.04 462.82 786.21C462.86 786.38 462.82 786.48 462.87 786.61V787.07C462.817 787.497 462.757 787.927 462.69 788.36C462.62 788.63 462.54 788.9 462.46 789.16C462.38 789.42 462.22 789.74 462.09 790.03L461.69 790.69L461.47 790.95L461.2 791.22L460.66 791.61L460.06 791.94L459.75 792.06H459.29C458.397 791.98 457.517 791.86 456.65 791.7C456.28 791.61 455.92 791.51 455.56 791.4C455.2 791.29 454.91 791.13 454.56 790.98C454.21 790.83 453.77 790.51 453.39 790.26C453.01 790.01 452.85 789.85 452.6 789.64L453.02 790.02C452.191 789.187 451.074 788.704 449.9 788.67C448.765 788.666 447.673 789.099 446.85 789.88C446.271 790.448 445.857 791.164 445.655 791.95C445.452 792.736 445.468 793.562 445.7 794.34C445.7 794.62 445.61 794.9 445.56 795.19C445.51 795.48 445.45 795.63 445.4 795.84L444.73 796.19C443.52 796.75 442.3 797.29 441.04 797.73C440.65 797.84 440.25 797.94 439.85 798.03C439.06 798.15 438.27 798.24 437.47 798.31C437 798.31 436.53 798.31 436.05 798.31L435.35 798.22L435.13 798.16C434.982 797.294 434.578 796.492 433.97 795.858C433.362 795.223 432.579 794.785 431.72 794.6C431.459 794.547 431.195 794.514 430.93 794.5C431.02 794.04 431.12 793.59 431.22 793.14C431.65 791.27 432.11 789.42 432.58 787.57C433.144 787.569 433.702 787.454 434.22 787.23C435.95 787.16 437.66 787.15 439.39 786.98C441.39 786.77 443.39 786.62 445.39 786.36C447.63 786.07 449.86 785.74 452.1 785.46C454.34 785.18 456.66 784.95 458.93 784.62C459.84 784.49 460.74 784.32 461.64 784.14C461.91 784.42 462.15 784.7 462.35 785.01ZM820.43 476.76C820.34 479.36 820.29 481.97 820.11 484.57C820.009 485.671 819.852 486.765 819.64 487.85C818.791 491.674 817.716 495.444 816.42 499.14C815.462 501.953 814.326 504.701 813.02 507.37C812.215 508.832 811.334 510.251 810.38 511.62C809.174 513.259 807.871 514.825 806.48 516.31C804.864 518.043 803.151 519.682 801.35 521.22C800.43 521.97 799.5 522.68 798.52 523.34C796.38 524.68 794.09 525.78 791.91 527.06C788.91 528.86 785.79 530.6 782.59 532.13C780.143 533.22 777.64 534.179 775.09 535C771.75 536.06 768.39 537 764.98 537.85C761.19 538.76 757.38 539.64 753.58 540.53C749.876 541.476 746.238 542.666 742.69 544.09C740.75 544.82 738.84 545.65 736.9 546.41C734.96 547.17 732.96 547.93 731.01 548.75C729.06 549.57 727.01 550.39 725.01 551.21C723.01 552.03 721.28 552.83 719.34 553.48C716.1 554.561 712.801 555.459 709.46 556.17C706.66 556.65 703.85 557.02 701.02 557.23C697.02 557.43 693.02 557.5 689.02 557.83L682.71 558.33C680.752 558.527 678.809 558.844 676.89 559.28L670.74 560.5C668.74 560.91 666.74 561.29 664.74 561.87C662.564 562.5 660.47 563.383 658.5 564.5C656.84 565.45 655.06 566.62 654.82 568.71C654.673 569.853 654.979 571.009 655.672 571.93C656.365 572.85 657.391 573.464 658.53 573.64C658.72 573.655 658.91 573.655 659.1 573.64C660.187 573.628 661.233 573.227 662.05 572.51L662.25 572.37C662.79 572.04 663.34 571.75 663.9 571.47C664.46 571.19 665.22 570.91 665.9 570.67C668.246 569.986 670.626 569.422 673.03 568.98C675.47 568.48 677.91 567.98 680.36 567.47C681.77 567.22 683.18 567.08 684.6 566.96C684.41 568.12 684.21 569.27 683.99 570.42C683.169 574.367 682.111 578.261 680.82 582.08C678.26 588.854 675.298 595.469 671.95 601.89C671.861 602.034 671.784 602.184 671.72 602.34C670.57 604.55 669.39 606.75 668.14 608.9C667.38 610.21 666.51 611.46 665.77 612.79C663.08 617.61 660.53 622.55 659.45 628.02C659.09 629.81 658.89 631.64 658.66 633.45C658.41 635.45 658.11 637.39 657.85 639.37C657.27 643.62 656.85 647.91 656.48 652.19C656.15 656.31 655.75 660.45 655.18 664.54C654.61 668.63 653.75 672.99 652.89 677.19C652.457 679.19 652.023 681.22 651.59 683.28C650.697 687.4 649.733 691.507 648.7 695.6C647.7 699.68 646.52 703.73 645.43 707.8C644.34 711.87 643.17 716.24 642.21 720.51C641.25 724.78 640.5 729.15 639.87 733.51C639.24 737.87 638.7 742.09 638.48 746.43C638.29 750.14 638.31 753.83 638.48 757.54C638.65 761.69 638.64 765.86 639.06 769.99C639.437 774.231 640.372 778.404 641.84 782.4C643.411 786.557 645.269 790.6 647.4 794.5C649.369 798.323 651.786 801.899 654.6 805.15C655.99 806.69 657.5 808.09 658.97 809.54C660.44 810.99 662.06 812.7 663.59 814.29C666.51 817.36 669.54 820.34 672.32 823.54C673.12 824.54 673.9 825.54 674.63 826.54C674.96 827.09 675.28 827.64 675.63 828.22C675.98 828.8 676.19 829.55 676.42 830.22C676.7 831.213 676.94 832.213 677.14 833.22C677.41 834.92 677.61 836.64 677.77 838.35L677.53 838.49L677.09 838.68H676.89H676.75H676.63H676.52C675.78 838.26 675.07 837.82 674.35 837.35C674.07 837.13 673.78 836.92 673.5 836.69C673.14 835.819 672.513 835.084 671.71 834.59C671.71 833.83 671.71 833.07 671.58 832.32C671.41 830.85 671.18 829.4 670.89 827.94C670.66 826.8 670.31 825.68 670.04 824.54C670.019 823.384 669.539 822.283 668.706 821.481C667.874 820.678 666.756 820.239 665.6 820.26C664.444 820.281 663.343 820.761 662.54 821.594C661.738 822.426 661.299 823.544 661.32 824.7C661.37 825.78 661.562 826.85 661.89 827.88C662.13 828.81 662.35 829.73 662.55 830.67C662.74 831.89 662.89 833.09 662.98 834.31C662.98 835.22 662.98 836.12 662.98 837.03C662.98 837.41 662.87 837.79 662.8 838.16C662.8 838.27 662.73 838.38 662.7 838.49C662.67 838.6 662.7 838.6 662.63 838.65C662.56 838.7 662.5 838.88 662.43 839C662.36 839.12 662.04 839.47 661.84 839.69L661.75 839.78L661.23 840.17C660.89 840.36 660.55 840.55 660.23 840.73L659.23 841.1L658.79 841.21L658.51 841.26H658L657.48 841.2C657.11 841.11 656.74 841 656.38 840.89C656.02 840.78 655.46 840.51 655.01 840.29C654.56 840.07 654.39 839.94 654.09 839.75C653.664 839.488 653.192 839.308 652.7 839.22C653.045 837.964 653.197 836.662 653.15 835.36C653.1 834.16 653.05 832.96 652.9 831.77C652.609 829.329 652.11 826.917 651.41 824.56C651.08 823.48 650.74 822.4 650.41 821.32C650.18 820.57 649.88 819.81 649.69 819.04C649.485 817.936 648.864 816.953 647.953 816.295C647.043 815.637 645.915 815.354 644.802 815.506C643.69 815.658 642.678 816.232 641.977 817.11C641.277 817.988 640.941 819.101 641.04 820.22C641.179 821.069 641.411 821.901 641.73 822.7C642.01 823.63 642.29 824.56 642.58 825.48C643.115 827.172 643.563 828.891 643.92 830.63C644.12 831.88 644.28 833.13 644.39 834.39C644.39 835.05 644.39 835.71 644.39 836.39C644.39 836.59 644.34 836.79 644.31 836.98C644.316 837.037 644.316 837.094 644.31 837.15C644.315 837.183 644.315 837.217 644.31 837.25L644.15 837.54L644.25 837.4V837.33L644.19 837.42C644.19 837.51 644.1 837.59 644.06 837.67L644.18 837.43C644.07 837.58 643.96 837.73 643.84 837.87L643.54 838.14L643.21 838.38C643.074 838.464 642.934 838.541 642.79 838.61L642.23 838.83C641.893 838.251 641.434 837.753 640.885 837.369C640.336 836.986 639.709 836.727 639.05 836.61L638.55 836.52C636.789 836.116 635.053 835.612 633.35 835.01C632.07 834.53 630.82 834.01 629.59 833.42C628.59 832.91 627.67 832.36 626.74 831.77C625.81 831.18 625.08 830.51 624.29 829.83C622.533 828.221 620.864 826.518 619.29 824.73C618.47 823.73 617.71 822.63 616.98 821.52C615.643 819.454 614.418 817.318 613.31 815.12C612.92 814.23 612.57 813.32 612.25 812.4C611.826 811.042 611.472 809.664 611.19 808.27C610.811 805.811 610.558 803.335 610.43 800.85C610.24 797.19 610.23 793.53 610.12 789.85C610.01 786.17 609.83 782.27 609.77 778.47C609.71 774.37 609.557 770.273 609.31 766.18C609.07 762.18 608.67 758.25 608.31 754.29C607.88 749.72 607.25 745.19 606.57 740.65C605.89 736.11 605.32 731.26 604.57 726.58C603.831 721.962 602.58 717.441 600.84 713.1C599.97 710.89 598.97 708.74 597.91 706.6C596.85 704.46 595.63 702.1 593.65 700.85C595.07 699.33 596.51 697.85 597.92 696.27L597.86 696.34L597.94 696.26C598.04 696.14 598.15 696.03 598.25 695.92L598.06 696.13C600.06 693.98 602.06 691.91 604.2 689.87C606.34 687.83 608.54 685.42 610.64 683.12C612.56 681.04 614.49 678.98 616.5 677C619.58 674 622.91 671.23 626 668.23C629.09 665.23 632.33 662.1 635.6 659.14C637.15 657.74 638.7 656.36 640.12 654.82C641.54 653.28 643.01 651.4 644.39 649.66C646.29 647.27 648.18 644.87 650.14 642.52C650.526 642.078 650.819 641.562 651.001 641.003C651.182 640.445 651.249 639.855 651.198 639.27C651.146 638.685 650.977 638.117 650.7 637.599C650.423 637.081 650.045 636.624 649.587 636.256C649.129 635.888 648.602 635.616 648.036 635.457C647.471 635.298 646.88 635.254 646.297 635.329C645.715 635.404 645.153 635.597 644.647 635.894C644.14 636.191 643.699 636.588 643.35 637.06C640.08 640.96 637.06 645.06 633.71 648.92C631.33 651.44 628.63 653.68 626.08 656.04C623.36 658.56 620.79 661.26 618.02 663.73C615.25 666.2 612.4 668.73 609.72 671.45C607.04 674.17 604.66 676.77 602.18 679.45C600.18 681.61 598.04 683.65 595.94 685.73C593.84 687.81 592.01 689.81 590.11 691.91C588.61 693.53 587.11 695.11 585.57 696.73L585.75 696.54C580.99 701.7 576.06 706.67 571.04 711.54C568.46 714.06 565.79 716.47 563.13 718.91C560.47 721.35 557.9 723.72 555.13 726.02C551.19 729.25 547.28 732.54 543.22 735.62C541.3 737.08 539.28 738.42 537.32 739.82C535.36 741.22 533.32 742.66 531.26 744.03L529.5 745.33C525.73 747.61 521.98 749.93 518.18 752.16C514.38 754.39 510.64 756.26 506.77 758.09L506.62 758.16L506.14 758.38L505.95 758.47H505.86L505.64 758.57C500.55 760.94 495.4 763.28 490.2 765.4C487.46 766.51 484.7 767.56 481.96 768.66C479.22 769.76 476.69 770.75 474.01 771.66C469.411 773.188 464.739 774.483 460.01 775.54C455.86 776.25 451.67 776.63 447.51 777.21C443.86 777.72 440.19 778.21 436.51 778.42H434.67C435.47 774.88 436.2 771.32 437.06 767.8C439.06 759.69 441.06 751.59 443.66 743.69C444.02 742.69 444.42 741.76 444.86 740.82C444.98 740.59 445.1 740.36 445.21 740.13C445.5 739.64 445.76 739.13 446.04 738.64C446.49 737.83 446.96 737.03 447.42 736.23C448.29 734.73 449.19 733.23 450.17 731.82C451.247 730.337 452.402 728.911 453.63 727.55C454.349 726.646 454.682 725.495 454.556 724.347C454.431 723.199 453.857 722.147 452.96 721.42C452.053 720.71 450.906 720.382 449.761 720.505C448.616 720.628 447.564 721.193 446.83 722.08C444.01 725.31 441.54 728.83 439.46 732.58C438.88 733.58 438.3 734.58 437.74 735.64L437.44 736.21C436.935 737.046 436.516 737.93 436.19 738.85C435.36 740.91 434.7 743.01 434.07 745.13C432.87 749.03 431.773 752.953 430.78 756.9C429.71 761.1 428.63 765.31 427.71 769.54C426.79 773.77 425.86 778.05 424.83 782.29C423.8 786.53 422.71 790.58 421.83 794.78C420.95 799.14 420.4 803.56 419.73 807.96C419.06 812.36 418.5 816.56 417.73 820.85C417.38 822.9 417.03 824.95 416.73 827C416.304 829.238 416.217 831.526 416.47 833.79C416.832 835.987 417.429 838.14 418.25 840.21C419.187 842.411 420.361 844.503 421.75 846.45C422.85 848.06 424.02 849.62 425.2 851.17C426.61 853.01 427.94 854.91 429.34 856.77C430.684 858.586 432.209 860.261 433.89 861.77C435.582 863.259 437.362 864.645 439.22 865.92C442.4 868.11 445.96 869.64 449.16 871.8C450.727 872.94 452.237 874.157 453.69 875.45C454.37 876.1 455.02 876.78 455.69 877.45C456.81 878.83 457.85 880.27 458.83 881.75C459.23 882.41 459.6 883.07 459.95 883.75C460.1 884.11 460.25 884.48 460.38 884.85C460.55 885.43 460.71 886.01 460.84 886.6C460.97 887.19 461.04 887.98 461.1 888.68C461.16 889.38 461.1 890.09 461.1 890.8C461.1 891.51 460.96 892 460.87 892.6C460.77 892.99 460.66 893.38 460.54 893.76C460.42 894.14 460.32 894.3 460.19 894.56C460.14 894.66 460.08 894.75 460.02 894.85L459.02 895.1L458.09 895.21H457.5L456.69 895.11L455.81 894.86C455.34 894.67 454.88 894.47 454.42 894.25C453.96 894.03 453.75 893.85 453.42 893.64C452.79 893.17 452.18 892.64 451.58 892.15C450.47 891.09 449.43 889.97 448.31 888.91C446.52 887.2 444.37 885.2 441.69 885.64C440.802 885.775 439.971 886.161 439.296 886.753C438.621 887.345 438.13 888.118 437.88 888.98C437.575 890.307 437.648 891.692 438.09 892.98C438.45 894.24 438.83 895.48 439.09 896.77C439.14 897.1 439.18 897.43 439.21 897.77C439.24 898.11 439.21 898.52 439.21 898.9C439.16 899.46 439.08 900.01 438.98 900.56C438.91 900.82 438.84 901.08 438.76 901.34C438.68 901.6 438.46 902.06 438.29 902.41C438.12 902.76 437.98 902.94 437.81 903.21L437.42 903.73C437.27 903.89 437.11 904.04 436.95 904.19C436.51 904.54 436.05 904.86 435.59 905.19C435.13 905.52 434.59 905.79 434.09 906.06L433.65 906.24L432.72 906.46C432.08 906.56 431.45 906.64 430.8 906.69C430.15 906.74 429.45 906.69 428.8 906.69C428.44 906.69 428.08 906.61 427.72 906.55H427.6L427.4 906.46L427.02 906.23C426.76 906.03 426.5 905.82 426.26 905.61C425.72 905.09 425.26 904.55 424.73 903.99C423.97 902.99 423.26 902.04 422.59 900.99C421.92 899.94 421.29 898.82 420.59 897.73C419.59 895.99 418.28 894.21 416.11 893.9C415.347 893.797 414.571 893.891 413.855 894.173C413.14 894.455 412.508 894.915 412.02 895.51C411.236 896.506 410.876 897.771 411.02 899.03C411.16 900.55 412.15 901.97 412.85 903.3C413.04 903.73 413.22 904.16 413.38 904.61L413.5 905.05C413.5 905.17 413.5 905.29 413.5 905.42V905.83C413.5 905.95 413.5 906.07 413.45 906.19C413.4 906.31 413.35 906.54 413.31 906.71L413.22 906.94C413.143 907.102 413.056 907.259 412.96 907.41H412.9C412.74 907.5 412.58 907.59 412.41 907.67C411.68 908 410.92 908.27 410.15 908.54C409.38 908.81 408.42 909.05 407.54 909.24C407.11 909.31 406.67 909.37 406.24 909.41C405.81 909.45 405.66 909.41 405.37 909.41C404.87 909.41 404.37 909.28 403.86 909.19C403.35 909.1 402.97 908.97 402.54 908.83C401.35 908.37 400.21 907.83 399.06 907.25C398.393 906.91 397.763 906.54 397.17 906.14C396.56 905.7 395.98 905.23 395.41 904.73C394.84 904.23 394.25 903.55 393.7 902.93C392.164 901.069 390.725 899.13 389.39 897.12C389.06 896.55 388.75 895.98 388.45 895.39C388.03 894.39 387.68 893.39 387.35 892.39C386.56 889.96 385.81 887.53 385.13 885.07C383.93 880.69 382.83 876.28 381.24 872.02C379.65 867.76 377.94 863.77 376.01 859.76C374.08 855.75 371.89 852.17 369.83 848.37C368.78 846.43 367.78 844.46 366.77 842.51C365.76 840.56 364.83 838.93 363.91 837.12L363.79 836.81C363.79 836.66 363.72 836.51 363.68 836.36C363.45 834.84 363.37 833.29 363.21 831.77C363.05 830.25 362.86 828.51 362.69 826.88C362.35 823.58 361.97 820.29 361.69 816.98C361.24 812.44 360.69 807.91 360.19 803.38C359.72 799.15 359.29 794.91 358.71 790.69C358.13 786.47 357.59 782.28 357.19 778.06C356.81 774.06 356.36 770.06 356.1 766.12V766.04V765.63C356.104 765.673 356.104 765.717 356.1 765.76C355.77 759.65 355.39 753.52 355.43 747.4C355.43 741.12 355.48 734.83 355.87 728.55C355.87 728.66 355.87 728.77 355.87 728.89V728.43V728.32C355.87 728.32 355.87 728.32 355.87 728.39C356.137 724.93 356.47 721.473 356.87 718.02C357.27 714.43 357.87 710.86 358.49 707.3C359.11 703.74 359.76 700.09 360.09 696.45C360.45 692.54 360.55 688.64 360.56 684.72C360.56 676.1 360.71 667.44 360.16 658.84C359.6 649.84 357.67 641.03 356 632.19C356 632.33 356.06 632.47 356.08 632.6C355.215 628.147 354.594 623.651 354.22 619.13C354.07 615.39 354.13 611.67 354.35 607.93C354.753 603.284 355.39 598.662 356.26 594.08C356.743 591.844 357.34 589.635 358.05 587.46C358.871 585.262 359.809 583.108 360.86 581.01C362.86 577.25 364.98 573.63 367.21 570.01C367.809 569.021 367.991 567.834 367.715 566.711C367.44 565.587 366.729 564.619 365.74 564.02C364.751 563.421 363.564 563.239 362.44 563.514C361.317 563.79 360.349 564.501 359.75 565.49C357.58 568.98 355.46 572.49 353.57 576.14C352.57 578.14 351.62 580.04 350.77 582.07C350.003 583.988 349.336 585.944 348.77 587.93C348.179 590.032 347.709 592.165 347.36 594.32C346.95 596.6 346.58 598.89 346.3 601.2C345.706 605.662 345.405 610.159 345.4 614.66C345.448 619.349 345.839 624.028 346.57 628.66C347.26 633.23 348.23 637.75 349.1 642.27C350.243 648.145 351.044 654.082 351.5 660.05C351.78 665.85 351.81 671.66 351.83 677.47C351.83 683.05 351.94 688.62 351.56 694.18C350.98 700.35 349.73 706.44 348.8 712.56C348.17 716.65 347.8 720.77 347.46 724.88C345.71 723.18 344.03 721.41 342.46 719.55C340.46 717.09 338.56 714.55 336.66 712C335 709.78 333.3 707.56 331.8 705.24C330.54 703.17 329.4 701.03 328.2 698.93C327 696.83 325.66 694.49 324.37 692.29C321.64 687.57 318.91 682.8 316.51 677.9C314.82 674.21 313.35 670.43 311.7 666.72C310.85 664.81 309.96 662.91 309.17 660.97C308.38 659.03 307.7 657.06 307.04 655.07C305.63 650.63 304.26 646.14 303.29 641.58C303.1 640.58 302.94 639.5 302.83 638.45V638.12V637.9C303.033 637.096 303.002 636.25 302.74 635.463C302.477 634.677 301.995 633.981 301.35 633.46C300.445 632.745 299.296 632.413 298.15 632.537C297.004 632.66 295.951 633.229 295.22 634.12C294.221 635.668 293.832 637.532 294.13 639.35C294.283 640.903 294.527 642.446 294.86 643.97C295.86 648.54 297.23 652.97 298.64 657.47C299.35 659.73 300.16 661.97 301.04 664.18C301.85 666.18 302.79 668.18 303.66 670.18C305.52 674.48 307.24 678.83 309.28 683.04C311.2 687.04 313.45 690.82 315.62 694.65C317.62 698.23 319.75 701.75 321.76 705.34C322.76 707.05 323.66 708.77 324.76 710.41C325.76 711.89 326.76 713.31 327.76 714.73C330.26 718.15 332.76 721.57 335.47 724.84C336.837 726.5 338.277 728.1 339.79 729.64C341.29 731.255 342.915 732.75 344.65 734.11C345.311 734.564 346.073 734.849 346.87 734.94C346.87 736.21 346.79 737.48 346.77 738.75C346.71 743.02 346.64 747.29 346.71 751.57C346.78 755.85 347.08 759.87 347.28 764.01C347.49 768.38 347.97 772.71 348.34 777.01C348.4 777.7 348.49 778.4 348.55 779.09C348.29 778.84 348.04 778.58 347.76 778.34C347.315 777.972 346.802 777.696 346.249 777.528C345.697 777.359 345.116 777.303 344.542 777.361C343.967 777.419 343.41 777.59 342.902 777.865C342.395 778.141 341.947 778.514 341.584 778.964C341.222 779.413 340.953 779.93 340.792 780.485C340.631 781.04 340.582 781.621 340.648 782.194C340.714 782.768 340.893 783.323 341.174 783.827C341.456 784.331 341.835 784.774 342.29 785.13L342.4 785.22C342.64 785.46 342.87 785.7 343.1 785.96C343.58 786.567 344.04 787.197 344.48 787.85C344.83 788.43 345.15 789.02 345.48 789.63C345.66 790.06 345.82 790.49 345.98 790.92C346.14 791.35 346.13 791.5 346.2 791.79C346.27 792.08 346.28 792.38 346.31 792.68C346.31 793.19 346.31 793.68 346.31 794.2C346.31 794.52 346.24 794.85 346.19 795.2C346.06 795.74 345.91 796.28 345.74 796.8C345.57 797.32 345.44 797.52 345.28 797.88C345.12 798.24 344.95 798.43 344.77 798.7L344.41 799.16C343.98 799.59 343.53 800 343.08 800.4C342.83 800.6 342.58 800.79 342.32 800.97L342.21 801.03H342.11C341.6 801.17 341.11 801.28 340.58 801.39C339.89 801.5 339.21 801.59 338.51 801.65C337.81 801.71 337.13 801.65 336.44 801.65C336.633 800.877 336.777 800.092 336.87 799.3C337.137 797.025 336.943 794.719 336.3 792.52C335.513 790.031 334.015 787.827 331.99 786.18C331.087 785.456 329.933 785.12 328.783 785.247C327.632 785.374 326.579 785.952 325.855 786.855C325.131 787.758 324.795 788.912 324.922 790.062C325.048 791.213 325.627 792.266 326.53 792.99L326.75 793.17C326.923 793.337 327.083 793.507 327.23 793.68L327.43 793.93L327.72 794.44C327.8 794.63 327.88 794.82 327.95 795.01L328.13 795.69C328.177 795.997 328.217 796.307 328.25 796.62C328.25 797.11 328.25 797.62 328.25 798.09C328.25 798.56 328.16 798.83 328.1 799.19C328.04 799.55 327.89 799.99 327.77 800.39C327.69 800.59 327.61 800.79 327.52 800.98L327.44 801.12C327.26 801.36 327.07 801.6 326.87 801.83C326.67 802.06 326.17 802.52 325.81 802.83C325.45 803.14 324.98 803.46 324.54 803.75L323.54 804.28L322.92 804.53L322.01 804.75C321.57 804.82 321.12 804.88 320.68 804.93C320.24 804.98 319.62 804.93 319.08 804.93C318.08 804.85 317.02 804.73 316 804.55C314.161 804.105 312.348 803.558 310.57 802.91C308.773 802.235 307.014 801.464 305.3 800.6C301.946 798.886 298.7 796.969 295.58 794.86C293.07 793.03 290.69 791.04 288.37 788.97C287.393 788.074 286.465 787.126 285.59 786.13C285.16 785.57 284.76 785 284.37 784.42C284.17 784.08 283.98 783.74 283.79 783.42C283.72 783.26 283.64 783.11 283.58 782.94V782.85C284.79 782.93 286.04 782.85 287.21 782.77C290.01 782.67 292.81 782.49 295.6 782.32H295.5C297.5 782.21 299.45 782.16 301.43 782.12C303.41 782.08 305.16 782.05 307.01 782.12C309.01 782.31 311.01 782.57 313.01 782.7C314.72 782.82 316.44 782.87 318.15 782.87H318.87C319.442 782.875 320.01 782.768 320.541 782.553C321.072 782.339 321.556 782.022 321.965 781.621C322.373 781.22 322.699 780.742 322.923 780.216C323.147 779.689 323.265 779.123 323.27 778.55C323.275 777.977 323.168 777.41 322.953 776.879C322.739 776.348 322.422 775.864 322.021 775.455C321.62 775.047 321.142 774.721 320.615 774.497C320.088 774.273 319.522 774.155 318.95 774.15C317.12 774.15 315.3 774.15 313.48 774.01C311.28 773.85 309.09 773.5 306.88 773.39C305.03 773.3 303.16 773.33 301.31 773.39C297.66 773.46 294.02 773.7 290.37 773.91H290.73C289.56 773.97 288.38 774 287.21 774.05C286.4 774.05 285.59 774.13 284.78 774.14C284.146 773.779 283.43 773.586 282.7 773.58C282.001 773.595 281.315 773.777 280.7 774.11C275.527 772.777 270.43 771.24 265.41 769.5H265.51L265.29 769.42L264.96 769.31H265.04L263.76 768.86C261.07 767.86 258.42 766.8 255.76 765.58C254.3 764.81 252.9 763.99 251.5 763.11C249.527 761.72 247.635 760.221 245.83 758.62C245.39 758.18 244.96 757.74 244.54 757.28C244.41 757.11 244.28 756.94 244.16 756.76C243.838 756.032 243.327 755.404 242.68 754.94C242.406 754.239 241.967 753.614 241.4 753.12C239.32 751.36 237.21 749.63 235.19 747.81C229.53 742.55 223.94 737.22 218.81 731.42C218.12 730.57 217.47 729.7 216.81 728.78C215.71 726.97 214.7 725.13 213.81 723.24C213.06 721.652 212.392 720.027 211.81 718.37C211.41 716.99 211.06 715.6 210.81 714.19C209.748 708.566 208.974 702.892 208.49 697.19C208.31 692.92 208.4 688.63 208.49 684.34C208.49 680.25 208.61 676.15 208.88 672.06C209.271 668.243 209.872 664.451 210.68 660.7C211.29 658 211.99 655.32 212.68 652.65C213.37 649.98 214.1 647.45 214.94 644.89C216.031 642.072 217.279 639.318 218.68 636.64C218.63 636.72 218.59 636.81 218.54 636.9L218.72 636.56L218.81 636.37V636.48C220.3 633.61 221.81 630.75 223.31 627.89C224.767 624.917 226.386 622.026 228.16 619.23C232.097 613.924 236.32 608.837 240.81 603.99C246.19 598.15 251.57 592.32 257.31 586.82C260.59 583.7 263.85 580.58 266.86 577.18C269.87 573.78 272.86 570.18 275.69 566.6C278.52 563.02 281.01 559.48 283.69 555.95C286.37 552.42 289.44 549.13 292.44 545.83L292.28 546L292.47 545.79L292.66 545.58L292.51 545.74C296.05 541.92 299.81 538.34 303.58 534.74C307.35 531.14 311.16 527.42 315.15 523.98C320.477 519.596 326.049 515.52 331.84 511.77C334.47 510.13 337.14 508.58 339.84 507.05C342.54 505.52 345.33 503.78 348.05 502.12C350.96 500.35 353.89 498.64 356.88 497.03C359.87 495.42 362.6 493.83 365.39 492.11C373.26 487.2 381.3 482.57 389.32 477.9C393.02 475.74 396.77 473.7 400.48 471.58C404.19 469.46 407.78 467.58 411.48 465.81C414.74 464.3 418.06 462.9 421.24 461.22C424.63 459.43 427.93 457.47 431.36 455.76C433.27 454.88 435.22 454.08 437.13 453.18H437.03C438.92 452.3 440.85 451.51 442.74 450.62C445.34 449.4 447.89 448.13 450.43 446.81C453.17 445.37 455.94 444 458.63 442.47C461.14 441.04 463.72 439.71 466.17 438.19C468.01 437.05 469.81 435.85 471.59 434.64C473.37 433.43 475.19 432.33 476.9 431.05C478.575 429.854 480.144 428.516 481.59 427.05C483.038 425.532 484.375 423.911 485.59 422.2C488.12 418.64 490.33 414.86 492.54 411.1C494.75 407.34 496.66 403.29 499.04 399.57C499.44 399.05 499.85 398.57 500.29 398.04C500.97 397.33 501.68 396.67 502.42 396.04C503.16 395.41 504.03 394.79 504.88 394.22C505.24 394.01 505.61 393.81 505.98 393.62C508.33 392.55 510.76 391.62 513.21 390.77C514.21 390.45 515.28 390.18 516.32 389.95C518.479 389.619 520.608 389.121 522.69 388.46C524.294 387.891 525.866 387.237 527.4 386.5C529.46 385.5 531.4 384.37 533.46 383.33C535.18 382.45 536.91 381.59 538.65 380.75C541.79 379.27 544.923 377.777 548.05 376.27C551.336 374.689 554.54 372.943 557.65 371.04C560.79 369.12 563.83 367.04 567.03 365.23C569.95 363.57 572.81 361.8 575.83 360.34C577.92 359.42 580.05 358.54 582.21 357.8C582.76 357.64 583.32 357.49 583.88 357.37L584.65 357.29C584.65 361.64 584.74 365.97 584.96 370.29C585.078 374.709 585.435 379.119 586.03 383.5C586.696 387.871 587.723 392.179 589.1 396.38C589.772 398.454 590.757 400.413 592.02 402.19C593.329 403.913 594.901 405.418 596.68 406.65C597.501 407.244 598.486 407.569 599.5 407.58C600.138 407.586 600.768 407.445 601.342 407.168C601.916 406.89 602.419 406.484 602.81 405.98C603.53 405.078 603.865 403.927 603.741 402.779C603.617 401.631 603.046 400.579 602.15 399.85C601.453 399.356 600.785 398.822 600.15 398.25C599.92 398.03 599.71 397.81 599.49 397.58C599.27 397.35 598.99 396.93 598.76 396.58C598.53 396.23 598.25 395.67 598.02 395.19C597.7 394.46 597.41 393.73 597.14 392.98C596.343 390.419 595.675 387.819 595.14 385.19V385.27C595.135 385.24 595.135 385.21 595.14 385.18C595.14 385.03 595.08 384.87 595.04 384.72C595.04 384.85 595.1 384.98 595.13 385.11C594.502 381.767 594.087 378.386 593.89 374.99C593.89 375.18 593.89 375.37 593.89 375.56C593.76 372.84 593.61 370.12 593.48 367.4C593.25 362.89 593.31 358.4 593.32 353.85C593.33 349.3 593.32 344.8 593.53 340.29C593.69 335.96 594 331.64 594.22 327.29C594.45 322.76 594.65 318.23 594.97 313.71C595.537 304.072 596.716 294.479 598.5 284.99C599.678 278.881 601.241 272.852 603.18 266.94C604.08 264.5 605 262.06 606.12 259.71C606.41 259.16 606.73 258.63 607.12 258.11L607.23 257.96C607.38 257.834 607.52 257.697 607.65 257.55C608.01 257.64 608.37 257.73 608.72 257.84C609.07 257.95 609.28 258.08 609.56 258.2C610.4 258.67 611.21 259.2 612.01 259.73C615.597 262.507 619.039 265.467 622.32 268.6C623.875 270.06 625.344 271.609 626.72 273.24C628.897 275.972 630.93 278.816 632.81 281.76C634.363 284.2 635.9 286.643 637.42 289.09C638.994 291.81 640.716 294.44 642.58 296.97L648.19 304.16C650.08 306.59 651.74 309.16 653.4 311.77L653.1 311.29C655.31 314.75 657.44 318.29 659.93 321.52C661.93 324.16 663.82 326.91 665.6 329.69C666.208 330.76 666.897 331.783 667.66 332.75C668.043 333.181 668.515 333.523 669.043 333.755C669.571 333.986 670.143 334.1 670.72 334.09C671.868 334.097 672.976 333.668 673.82 332.89C674.618 332.112 675.091 331.059 675.143 329.945C675.195 328.831 674.822 327.74 674.1 326.89V326.84C672.58 324.29 670.87 321.84 669.19 319.41C667.51 316.98 665.5 314.46 663.81 311.87C661.26 307.87 658.81 303.69 655.95 299.87L655.48 299.27C655.91 297.5 656.4 295.73 656.8 293.95C657.25 291.95 657.65 289.95 658.06 287.95C659.06 283.35 660.39 278.81 661.6 274.24C662.72 270.05 663.75 265.84 665.14 261.71C666.29 258.49 667.49 255.28 668.63 252.05C669.45 249.72 670.29 247.39 671.06 245.05C671.66 243.22 672.25 241.38 672.88 239.56C673.17 240.11 673.45 240.67 673.73 241.24C674.57 243.123 675.311 245.049 675.95 247.01C676.65 249.28 677.31 251.57 678.02 253.85C678.73 256.13 679.54 258.47 680.31 260.78C681.53 264.61 682.47 268.52 683.53 272.4C684.64 276.4 686.1 280.34 687.4 284.31C687.99 286.17 688.51 288.05 689.05 289.93C689.59 291.81 690.22 293.59 690.85 295.41C691.48 297.23 692.06 299.05 692.71 300.85C693.36 302.65 694.12 304.29 694.71 306.05C694.682 305.975 694.659 305.898 694.64 305.82C694.64 305.9 694.64 305.99 694.72 306.08L694.81 306.34C694.777 306.262 694.75 306.182 694.73 306.1C695.11 307.35 695.48 308.62 695.94 309.84C696.04 310.09 696.15 310.33 696.25 310.58H695.7C694.192 310.591 692.688 310.748 691.21 311.05C689.982 311.354 688.781 311.759 687.62 312.26C686.62 312.71 685.62 313.15 684.73 313.69C683.84 314.23 682.81 314.92 681.87 315.56C681.53 315.77 681.18 315.97 680.87 316.16C679.951 316.553 679.196 317.249 678.73 318.133C678.265 319.017 678.118 320.034 678.313 321.013C678.509 321.993 679.036 322.875 679.806 323.512C680.576 324.149 681.541 324.501 682.54 324.51C683.609 324.439 684.642 324.095 685.54 323.51C686.54 322.98 687.45 322.29 688.4 321.66C689.06 321.26 689.73 320.9 690.4 320.57L690.04 320.73L690.44 320.55L690.5 320.5L690.39 320.55C690.92 320.31 691.45 320.08 691.99 319.88C692.53 319.68 692.9 319.61 693.35 319.51C693.83 319.435 694.314 319.385 694.8 319.36C695.708 319.293 696.62 319.277 697.53 319.31L699.63 319.47H699.06C700.35 319.56 701.64 319.7 702.93 319.79H702.7C703.52 319.86 704.33 319.9 705.15 319.95C706.29 320.04 707.45 320.11 708.58 320.3C708.81 320.43 709.03 320.58 709.25 320.73C710.185 321.412 711.157 322.043 712.16 322.62C713.16 323.2 714.27 323.74 715.33 324.32C717.2 325.32 719.05 326.39 720.81 327.59C722.24 328.59 723.59 329.7 725.01 330.71C726.43 331.72 727.89 332.71 729.33 333.66C731.15 334.97 732.9 336.37 734.77 337.66C736.36 338.71 737.95 339.74 739.51 340.82C741.82 342.44 744.1 344.11 746.46 345.67C748.82 347.23 751.12 348.81 753.46 350.41C755.8 352.01 758.26 353.95 760.62 355.8C762.8 357.53 765.08 359.14 767.27 360.85C771.95 364.5 776.79 367.99 781.27 371.94C783.223 373.851 785.063 375.875 786.78 378C788.1 379.58 789.44 381.15 790.63 382.82C791.56 384.13 792.55 385.36 793.57 386.58C793.709 386.743 793.839 386.913 793.96 387.09C793.96 387.09 793.96 387.15 793.96 387.18C793.96 387.39 793.96 387.61 794.02 387.82C794.02 388.88 794.02 389.94 793.96 391C793.748 393.042 793.414 395.068 792.96 397.07V396.97C792.63 398.56 792.32 400.15 792.01 401.73C791.38 404.43 790.39 407.04 790.01 409.79C789.81 410.956 789.78 412.145 789.92 413.32C790.076 414.35 790.286 415.372 790.55 416.38C790.977 417.732 791.655 418.991 792.55 420.09C793.252 421.041 794.003 421.956 794.8 422.83C795.959 423.973 797.221 425.008 798.57 425.92C799.9 426.92 801.25 427.82 802.57 428.76L802.1 428.43C803.58 429.43 804.99 430.59 806.46 431.65C807.65 432.51 808.87 433.35 810.05 434.22C811.79 435.49 813.58 436.67 815.36 437.88C815.61 438.06 815.86 438.26 816.11 438.46C815.906 438.833 815.723 439.217 815.56 439.61C815.31 440.245 815.093 440.893 814.91 441.55C814.673 441.788 814.465 442.054 814.29 442.34C813.707 443.488 813.392 444.753 813.37 446.04C813.37 446.36 813.37 446.67 813.3 446.98C812.184 447.015 811.085 447.259 810.06 447.7H809.74C807.65 447.09 805.48 446.7 803.58 448.08C803.45 448.18 803.37 448.32 803.25 448.43C802.934 448.55 802.63 448.697 802.34 448.87C801.608 449.367 801.026 450.054 800.658 450.858C800.29 451.662 800.148 452.552 800.25 453.43C800.434 454.356 800.808 455.235 801.348 456.009C801.889 456.784 802.584 457.438 803.39 457.93C803.473 457.992 803.56 458.049 803.65 458.1C804.82 460.1 807.32 461.29 809.35 462.32C809.938 462.613 810.594 462.744 811.25 462.7C812.493 463.121 813.798 463.331 815.11 463.32H815.42C816.806 463.339 818.187 463.137 819.51 462.72C819.7 463.6 819.91 464.47 820.08 465.35C820.25 466.23 820.37 467.21 820.44 468.16C820.68 471.02 820.5 473.91 820.43 476.76Z" fill="black"/>
<path d="M750.5 425.5C750.56 426.33 750.64 427.17 750.74 427.99C750.93 429.78 751.22 431.57 751.57 433.33C751.819 434.88 752.245 436.397 752.84 437.85C753.13 438.65 753.624 439.361 754.273 439.911C754.922 440.462 755.703 440.834 756.54 440.99C756.763 441.005 756.987 441.005 757.21 440.99C757.904 440.97 758.586 440.801 759.209 440.494C759.832 440.187 760.381 439.749 760.82 439.21C761.82 438.11 762.06 436.36 762.23 434.94C762.23 434.55 762.32 434.15 762.35 433.75C762.443 433.407 762.497 433.055 762.51 432.7C762.534 432.367 762.534 432.033 762.51 431.7C762.59 429.99 762.51 428.27 762.51 426.56C762.51 424.683 762.41 422.807 762.21 420.94C762.12 420.071 761.929 419.215 761.64 418.39C761.492 418.034 761.3 417.699 761.07 417.39C761.07 416.9 761.07 416.39 760.99 415.93L763.77 413.87C764.691 413.216 765.322 412.23 765.53 411.12C765.739 410.01 765.509 408.862 764.888 407.919C764.267 406.975 763.304 406.309 762.202 406.061C761.1 405.814 759.945 406.003 758.98 406.59C758.631 406.691 758.296 406.832 757.98 407.01C756.414 408.01 754.911 409.106 753.48 410.29C751.99 411.45 750.48 412.6 749.03 413.78C747.58 414.96 746.26 416.15 744.88 417.34C743.73 418.28 742.53 419.15 741.36 420.06C740.437 420.748 739.822 421.772 739.648 422.909C739.474 424.047 739.755 425.208 740.43 426.14C740.828 426.689 741.352 427.134 741.957 427.44C742.562 427.747 743.232 427.904 743.91 427.9C744.842 427.896 745.752 427.61 746.52 427.08C747.87 426.15 749.16 425.16 750.44 424.15C750.43 424.56 750.5 425.01 750.5 425.5Z" fill="black"/>
<path d="M774.13 457.59C773.138 456.995 771.951 456.816 770.828 457.091C769.704 457.366 768.735 458.074 768.13 459.06C766.07 462.62 764.02 466.19 762.06 469.81C760.3 473.09 758.64 476.41 757 479.75C755.45 482.92 753.92 486.09 752.47 489.31C751.02 492.53 749.77 495.78 748.64 499.13C748.459 499.778 748.431 500.458 748.558 501.119C748.684 501.779 748.961 502.402 749.368 502.937C749.775 503.473 750.3 503.907 750.902 504.206C751.504 504.504 752.168 504.66 752.84 504.66C753.786 504.638 754.702 504.319 755.457 503.748C756.212 503.177 756.77 502.384 757.05 501.48C757.27 500.82 757.48 500.16 757.7 499.48C759 495.88 760.6 492.42 762.23 488.96C763.93 485.34 765.683 481.747 767.49 478.18L767.32 478.49C767.39 478.37 767.45 478.25 767.51 478.13L767.59 477.97C767.577 478.008 767.561 478.045 767.54 478.08C770.11 473.17 772.81 468.35 775.59 463.55C776.171 462.562 776.343 461.387 776.07 460.273C775.798 459.16 775.101 458.198 774.13 457.59Z" fill="black"/>
<path d="M440.02 98.5C440.54 98.5 441.02 98.44 441.57 98.39C442.87 98.2417 444.161 98.0281 445.44 97.75C447.11 97.41 448.78 97.05 450.44 96.69L452.79 96.2C453.02 97.4 453.24 98.61 453.47 99.82C453.47 99.69 453.42 99.56 453.4 99.43C453.5 99.99 453.64 100.55 453.75 101.11C453.57 101.37 453.4 101.63 453.24 101.88C451.85 104.07 450.48 106.28 449.13 108.49C446.52 112.77 443.8 116.96 440.96 121.1L439.56 123.1C439.041 123.743 438.716 124.521 438.624 125.342C438.531 126.163 438.674 126.993 439.036 127.736C439.398 128.479 439.964 129.103 440.667 129.536C441.371 129.969 442.184 130.192 443.01 130.18C443.657 130.197 444.299 130.058 444.881 129.776C445.464 129.495 445.971 129.078 446.36 128.56C449.1 124.72 451.733 120.81 454.26 116.83C455 115.66 455.72 114.47 456.44 113.28C456.69 114.28 456.93 115.37 457.19 116.42C457.89 119.29 458.61 122.15 459.37 125C460.06 127.62 460.81 130.22 461.49 132.84C461.46 133.426 461.55 134.013 461.755 134.563C461.96 135.113 462.276 135.615 462.683 136.038C463.089 136.462 463.578 136.798 464.119 137.025C464.661 137.252 465.243 137.366 465.83 137.36C466.482 137.369 467.127 137.229 467.717 136.95C468.306 136.671 468.824 136.26 469.23 135.75C469.701 135.161 470.029 134.47 470.188 133.733C470.348 132.996 470.335 132.231 470.15 131.5C469.92 130.6 469.68 129.72 469.43 128.83C469.05 127.44 468.67 126.05 468.3 124.65C467.55 121.88 466.82 119.09 466.13 116.29C465.13 112.23 464.13 108.14 463.27 104.05C463.734 103.451 464.037 102.743 464.15 101.994C464.264 101.245 464.185 100.48 463.92 99.77C463.624 99.0243 463.138 98.3692 462.51 97.87C462.312 97.7182 462.101 97.5843 461.88 97.47C461.7 96.47 461.51 95.47 461.33 94.52C463.44 94.14 465.56 93.77 467.68 93.44C468.259 93.387 468.821 93.2189 469.334 92.9454C469.847 92.6719 470.3 92.2986 470.666 91.8475C471.033 91.3963 471.306 90.8764 471.468 90.3184C471.631 89.7604 471.68 89.1754 471.614 88.598C471.547 88.0206 471.366 87.4623 471.08 86.956C470.795 86.4497 470.411 86.0057 469.951 85.65C469.491 85.2942 468.965 85.034 468.403 84.8846C467.841 84.7352 467.256 84.6996 466.68 84.78C464.41 85.13 462.15 85.53 459.9 85.95C459.37 82.53 458.9 79.11 458.64 75.67C458.64 75.31 458.64 74.96 458.64 74.6C459.063 73.715 459.175 72.7127 458.958 71.756C458.74 70.7993 458.205 69.9444 457.44 69.33C456.926 68.9247 456.338 68.6224 455.71 68.44C454.69 68.16 453.603 68.2553 452.647 68.7085C451.691 69.1618 450.929 69.9429 450.5 70.91C449.927 72.5105 449.722 74.2194 449.9 75.91C449.9 77.02 450.05 78.13 450.18 79.23C450.39 80.97 450.61 82.71 450.82 84.45C450.95 85.51 451.14 86.57 451.31 87.63L443.04 89.36C442.556 89.0499 442.012 88.8451 441.443 88.759C440.874 88.6729 440.294 88.7073 439.74 88.86C438.358 89.1513 437.07 89.78 435.99 90.69C435.513 91.1561 435.149 91.7243 434.924 92.3518C434.699 92.9793 434.62 93.6497 434.692 94.3123C434.765 94.9749 434.986 95.6125 435.341 96.1768C435.696 96.7412 436.174 97.2175 436.74 97.57C437.527 98.047 438.406 98.3505 439.32 98.46C439.552 98.4883 439.786 98.5016 440.02 98.5Z" fill="black"/>
<path d="M458.75 186.5C459.066 187.325 459.63 188.031 460.364 188.522C461.098 189.012 461.967 189.263 462.85 189.24C463.383 189.24 463.912 189.141 464.41 188.95C465.472 188.506 466.321 187.666 466.776 186.608C467.231 185.55 467.258 184.357 466.85 183.28C465.15 178.19 463.23 173.17 461.51 168.08C464.25 166.633 467.006 165.223 469.78 163.85H469.7C471.293 163.103 472.886 162.367 474.48 161.64L476.37 160.78C476.25 161.66 476.11 162.53 475.95 163.41C475.79 164.29 475.49 165.17 475.21 166.04C474.899 167.155 475.045 168.348 475.614 169.356C476.183 170.364 477.129 171.105 478.245 171.415C479.36 171.725 480.553 171.58 481.561 171.011C482.569 170.442 483.309 169.495 483.62 168.38C484.397 165.989 484.894 163.516 485.1 161.01C485.397 158.937 485.254 156.824 484.68 154.81C484.341 153.749 483.719 152.802 482.88 152.07C482.184 151.527 481.384 151.132 480.53 150.91C478.53 150.32 476.43 151.27 474.63 152.05C473.68 152.45 472.74 152.86 471.82 153.28C469.89 154.16 467.98 155.05 466.06 155.95C463.74 157.04 461.46 158.2 459.18 159.39C459.13 159.13 459.05 158.88 459 158.62C458.87 157.78 458.76 156.95 458.68 156.1C459.069 155.446 459.28 154.701 459.29 153.94C459.287 152.786 458.832 151.679 458.023 150.856C457.213 150.033 456.114 149.561 454.96 149.54C453.811 149.556 452.704 149.974 451.831 150.721C450.957 151.468 450.373 152.497 450.18 153.63C449.88 155.209 449.88 156.831 450.18 158.41C450.366 159.819 450.623 161.217 450.95 162.6C451.05 162.97 451.17 163.33 451.26 163.7C448.36 165.33 445.46 166.97 442.48 168.43C442.054 168.522 441.643 168.673 441.26 168.88C440.63 169.158 440.07 169.571 439.617 170.089C439.164 170.608 438.831 171.219 438.64 171.88C438.457 172.529 438.427 173.211 438.553 173.873C438.679 174.535 438.957 175.159 439.365 175.695C439.774 176.231 440.301 176.665 440.906 176.963C441.51 177.261 442.176 177.414 442.85 177.41C443.394 177.41 443.933 177.308 444.44 177.11C447.093 175.956 449.671 174.637 452.16 173.16L453.76 172.28C455.29 177.08 457.16 181.76 458.75 186.5Z" fill="black"/>
<path d="M476.83 248.82C476.83 249.42 476.9 250 476.93 250.6C476.949 251.715 477.38 252.784 478.14 253.6C478.543 254.023 479.027 254.361 479.563 254.592C480.099 254.824 480.676 254.946 481.26 254.95C482.41 254.945 483.511 254.488 484.327 253.678C485.142 252.868 485.607 251.77 485.62 250.62C485.25 243.62 484.67 236.71 484.19 229.75C485.46 229.24 486.73 228.75 487.98 228.21C490.503 227.199 492.958 226.026 495.33 224.7C495.839 224.427 496.288 224.056 496.653 223.608C497.017 223.16 497.289 222.644 497.452 222.091C497.615 221.537 497.667 220.956 497.604 220.382C497.541 219.808 497.365 219.252 497.085 218.747C496.806 218.242 496.429 217.797 495.976 217.439C495.524 217.08 495.004 216.816 494.448 216.66C493.892 216.504 493.311 216.459 492.738 216.53C492.165 216.6 491.611 216.784 491.11 217.07C490.26 217.58 489.38 218.02 488.49 218.46C486.97 219.16 485.43 219.83 483.88 220.46C483.88 220.32 483.88 220.18 483.88 220.04C484.063 219.657 484.188 219.25 484.25 218.83C484.374 217.886 484.187 216.928 483.715 216.101C483.244 215.274 482.515 214.624 481.64 214.25L481.89 214.12C482.96 213.54 484.01 212.89 485.05 212.26C487.28 210.9 489.54 209.59 491.68 208.1C492.515 207.383 493.049 206.377 493.173 205.284C493.298 204.19 493.004 203.09 492.351 202.204C491.698 201.318 490.734 200.711 489.652 200.507C488.571 200.302 487.452 200.514 486.52 201.1C486.05 201.43 485.58 201.74 485.1 202.1C483.2 203.287 481.283 204.457 479.35 205.61L477.82 206.47C477.224 206.445 476.628 206.54 476.07 206.75C472.47 208.12 468.96 209.75 465.32 211.03H465.24C464.186 211.154 463.214 211.658 462.505 212.448C461.796 213.238 461.4 214.259 461.39 215.32C461.38 216.381 461.758 217.409 462.452 218.212C463.146 219.014 464.109 219.536 465.16 219.68C465.378 219.717 465.599 219.733 465.82 219.73C467.265 219.601 468.674 219.212 469.98 218.58C470.88 218.24 471.77 217.89 472.66 217.52L475.89 216.22H476.03C475.81 216.591 475.636 216.987 475.51 217.4C475.072 219.571 474.957 221.795 475.17 224C472.79 224.9 470.4 225.79 468.01 226.65C466.39 227.16 464.78 227.65 463.12 228.06C462.375 227.952 461.615 228.039 460.914 228.312C460.213 228.586 459.595 229.036 459.12 229.62C458.878 229.93 458.67 230.265 458.5 230.62C458.088 231.588 458.037 232.671 458.356 233.673C458.676 234.675 459.344 235.529 460.24 236.08C461.046 236.578 461.983 236.822 462.93 236.78C463.354 236.778 463.779 236.752 464.2 236.7C465.497 236.506 466.772 236.192 468.01 235.76C469.51 235.28 471.01 234.76 472.48 234.29C473.56 233.9 474.63 233.47 475.71 233.06C476.09 238.36 476.5 243.59 476.83 248.82Z" fill="black"/>
<path d="M502.86 271.66C502.43 270.59 501.596 269.733 500.538 269.274C499.48 268.816 498.285 268.793 497.21 269.21L495.08 270.09C495.08 269.17 494.98 268.26 494.89 267.35C494.67 264.96 494.21 262.08 492.47 260.3C491.427 259.127 489.966 258.409 488.4 258.3C486.895 258.318 485.409 258.638 484.03 259.24C483.23 259.53 482.44 259.84 481.64 260.14C480.793 260.057 479.942 260.246 479.21 260.68C478.323 261.115 477.57 261.782 477.03 262.61C476.691 263.188 476.489 263.835 476.438 264.503C476.387 265.171 476.488 265.842 476.735 266.464C476.982 267.087 477.367 267.645 477.862 268.097C478.356 268.548 478.947 268.881 479.59 269.07C481.59 269.55 483.34 268.83 485.14 268.14L486.14 267.75C486.22 268.39 486.28 269.03 486.33 269.67C486.33 270.49 486.33 271.3 486.33 272.12C486.341 272.584 486.426 273.043 486.58 273.48C485.39 273.95 484.2 274.48 483 274.89C482.42 275.07 481.83 275.23 481.24 275.38C480.128 275.082 478.945 275.206 477.92 275.73C477.485 275.964 477.085 276.257 476.73 276.6C476.052 277.276 475.608 278.152 475.465 279.098C475.321 280.045 475.484 281.013 475.93 281.86C476.318 282.544 476.869 283.121 477.534 283.541C478.198 283.962 478.956 284.212 479.74 284.27C480.005 284.31 480.272 284.33 480.54 284.33C481.958 284.247 483.356 283.957 484.69 283.47C486.508 282.899 488.294 282.232 490.04 281.47C493.467 280.043 496.903 278.64 500.35 277.26C501.415 276.837 502.274 276.016 502.742 274.97C503.211 273.924 503.253 272.737 502.86 271.66Z" fill="black"/>
<path d="M489.24 318.19H489.72C490.86 318.035 491.894 317.442 492.604 316.536C493.314 315.631 493.642 314.484 493.52 313.34C493.37 311.15 493.17 308.97 493 306.78C493.032 306.191 492.944 305.602 492.741 305.047C492.539 304.493 492.226 303.986 491.822 303.556C491.418 303.126 490.931 302.783 490.39 302.547C489.849 302.311 489.266 302.188 488.676 302.184C488.086 302.18 487.502 302.295 486.958 302.524C486.414 302.752 485.922 303.089 485.512 303.513C485.102 303.937 484.782 304.44 484.572 304.991C484.362 305.542 484.266 306.131 484.29 306.72C484.35 309.27 484.68 311.83 484.87 314.39C485.009 315.448 485.53 316.418 486.335 317.118C487.14 317.818 488.173 318.199 489.24 318.19Z" fill="black"/>
<path d="M489.5 336.12C490.362 336.128 491.207 335.88 491.929 335.407C492.65 334.935 493.215 334.259 493.552 333.465C493.889 332.672 493.984 331.796 493.823 330.949C493.663 330.102 493.255 329.321 492.651 328.706C492.047 328.09 491.274 327.668 490.429 327.492C489.585 327.316 488.708 327.394 487.908 327.717C487.108 328.04 486.422 328.592 485.937 329.305C485.451 330.017 485.188 330.858 485.18 331.72C485.179 332.873 485.632 333.98 486.44 334.803C487.248 335.626 488.347 336.099 489.5 336.12Z" fill="black"/>
<path d="M489.74 344.96C488.878 344.954 488.034 345.204 487.314 345.678C486.594 346.151 486.03 346.828 485.694 347.622C485.359 348.415 485.266 349.291 485.427 350.138C485.589 350.984 485.998 351.764 486.602 352.378C487.207 352.992 487.98 353.414 488.824 353.589C489.668 353.764 490.545 353.685 491.344 353.362C492.143 353.039 492.828 352.487 493.314 351.774C493.799 351.062 494.062 350.222 494.07 349.36C494.065 348.207 493.609 347.101 492.8 346.279C491.991 345.457 490.893 344.984 489.74 344.96Z" fill="black"/>
</svg>
