<svg xmlns="http://www.w3.org/2000/svg" viewBox="0 0 1000 1000"><defs><style>.cls-1{opacity:0.23;}.cls-2{fill:#fddea7;}.cls-3{fill:#e5c9be;}.cls-4{fill:#8e7071;}.cls-5{fill:#704f40;}.cls-6{fill:#fef8f6;}.cls-7{fill:#231815;}</style></defs><g id="レイヤー_1" data-name="レイヤー 1"><path class="cls-1" d="M763.12,814.19c3.91,0,8.21-.48,11.18-3.27a29.9,29.9,0,0,0,4.9-6.39,60,60,0,0,0,4.42-8.77c2-5.28,3.15-10.81,5-16.13,1.6-4.55,3.56-11.25,8.32-13.38,3.11-1.11,6.51-1,9.77-.94a65.92,65.92,0,0,1,19.12,3.43,116.82,116.82,0,0,1,20.65,8.5,133.27,133.27,0,0,0,18.44,7.91c4.84,1.61,10.58,3.07,15.18.05,1.65-1,2.32-3,2.68-4.84a6,6,0,0,0-1-3.87,86,86,0,0,0-14.71-17.2c-3.75-3.37-7.86-6.38-11.73-9.62-3.67-3-7.52-5.93-11.18-9-3.12-2.61-6.17-5.38-9.31-8-4.08-3.64-9.26-6.82-11.13-12.23-1-2.4-.33-5,.19-7.44a54,54,0,0,1,4.21-12.66c3.46-7.62,7.22-15.17,10-23.07,4.08-11.37,6.78-23.58,5.47-35.7-.62-.62-10.6-8.43-11.14-8.57-1.2-.68-2.5-1.39-3.71-2-11-5.75-22.59-10.63-34.12-15.31a953.21,953.21,0,0,0-100.24-32.93C651.15,571,607,562.24,562.81,554.86c-45.63-7.54-91.7-13.62-137.83-17-37-2.72-74.3-3.61-111.43-2.91-30.54.75-61.25,2.36-91.41,7.51-24.36,4.4-65,15-73.49,41.13-3.21,9.74-2,20.68,5.88,27.84,9.3,8.33,32.79,9.48,45.27,10.75q24.48,2.15,49,3.76c13.58,1,27.44,1.45,40.54,5.49,8.63,2.68,12.54,6.9,17.58,14,4.8,6.34,9,13.35,15.29,18.41,7.95,6.22,18.57,7.45,28.36,7.28,7.64-.21,15.17-1.79,22.74-2.68a202.61,202.61,0,0,1,25.59-1.29c6.72.1,13.45.18,20.15-.35a131.88,131.88,0,0,0,17.81-2.64c6.87-1.64,13.89-3,20.41-5.8a99.72,99.72,0,0,0,15.89-9.27,122.94,122.94,0,0,0,11.68-8.75c.93,1.36,2.7,1.25,4.16,1.52,2,.28,3.91.71,5.82,1.16,7.07,1.63,12.93,6.19,19,9.89a47.48,47.48,0,0,0,7.92,3.85,37.24,37.24,0,0,0,8.05,2.39c5.8.84,11.69,1,17.51,1.66,11,1.28,22,2.95,33.08,3.84A162.38,162.38,0,0,1,598.66,667c7,1.17,14.9,3.87,18.37,10.58,4.05,7.52,7.09,16.12,14.24,21.34a97.12,97.12,0,0,0,11.94,7.85c6.2,3.38,12.69,6.34,18.49,10.38,4.42,3,6.8,8.28,8.07,13.34.66,4,.17,8.16.08,12.21a176.91,176.91,0,0,1-2.66,21.87c-.71,4.57-1.38,9.27-.58,13.87.67,4.06,1.92,8.72,5.84,10.77,4.66,2.27,9.92,3,15,4s10.38,2.1,15.49,3.37c2.79.8,5.55,1.8,8.3,2.71,7.09,2.33,14.2,4.66,21.12,7.47,4.22,1.56,8.4,3.28,12.69,4.66A61.85,61.85,0,0,0,763.12,814.19Z"/></g><g id="レイヤー_6" data-name="レイヤー 6"><path class="cls-2" d="M719.78,808.77c3.44,0,6.85-.48,10.27-.67,2.76-.07,5.55.56,8.31.15,2.95-.44,5.69-1.72,8.52-2.64,3.08-1.1,6.35-2,9-4a20,20,0,0,0,4.59-5.06,63.55,63.55,0,0,0,3.63-5.82c2.3-4.28,3.47-9,5.54-13.44.9-1.86,1.75-3.75,2.79-5.54,1.73-2.72,3.62-5.34,5.3-8.09,2.08-3.3,4.18-6.6,6.09-10a39.14,39.14,0,0,0,4.31-12.11,47.49,47.49,0,0,0,.23-7.35,29.57,29.57,0,0,0-1-7.66c-.47-1.54-1-3.08-1.53-4.6a10.49,10.49,0,0,1-1.1-4.93,3.79,3.79,0,0,1,.79-1.67v-.18l.15,0a17.49,17.49,0,0,1,4.62-3.1l6.48-3.41c2.31-1.2,4.77-2.12,7.09-3.32a41.87,41.87,0,0,0,9-6.19A84,84,0,0,0,823.53,687c2.46-3.17,5.15-6.17,7.72-9.25,2.26-2.72,4.38-5.56,6.49-8.4.59-.78,1.17-1.58,1.76-2.36.23-.3.48-.62.73-.9s.5-.55.83-.44h0a.74.74,0,0,0,.38.25,10.68,10.68,0,0,0,.31,1.17,17.08,17.08,0,0,1,.39,2.36c0,.65.08,1.31.16,2,.08.34,0,.81.25,1.08h0a6.07,6.07,0,0,1,1,1.59c.4.76.78,1.54,1.12,2.32,1.1,2.6,2,5.27,3.27,7.81,2.22,4.74,4.78,9.36,6.26,14.4a29.4,29.4,0,0,1,1.4,7.49,71.33,71.33,0,0,0,1.08,12.39,39.17,39.17,0,0,0,2,6.08,32.21,32.21,0,0,1,1.11,3.62,34.63,34.63,0,0,1,.46,4.19c.18,2.82.32,5.66.37,8.48.13,4.69,0,9.43.77,14.07.66,3.32,1.82,6.51,2.5,9.82.93,3.46,1.3,7,2.15,10.5.6,2.12,1.21,4.24,1.77,6.37a26.41,26.41,0,0,0,2.38,6.13c.9,1.82,2.54,3.12,4,4.47a15.7,15.7,0,0,0,3.14,2.37,15.09,15.09,0,0,0,4.87,1.38h0a10.23,10.23,0,0,0,3.9-.1,9.43,9.43,0,0,0,3.27-1.53l.74-.52.1-.08,1.9-1.45c2.38-1.81,5.15-3.08,7.42-5,1.11-.87,2.12-1.88,3.14-2.85a6.91,6.91,0,0,1,3.08-2.07v0c1.25-.36,2.59-.31,3.84-.64h0c.22,0,.45-.09.67-.13a2,2,0,0,1,.26-.07c2.22-.61,4.66-1.29,6.21-3.12,2.3-2.84,2.46-6.81,4.29-9.93.87-1.67,2.35-2.89,3.43-4.4a10.18,10.18,0,0,0,1.76-4.49,44.32,44.32,0,0,0-.25-6.91,43.32,43.32,0,0,0-1.64-8.91,57.41,57.41,0,0,0-4.41-10c-1.1-1.93-2.38-3.76-3.54-5.65a93.07,93.07,0,0,1-7.37-13.83c-1.89-4.17-3.23-8.54-4.71-12.86-1-2.79-2.15-5.56-3-8.42a85.53,85.53,0,0,1-1.92-9.1c-.5-2.86-.37-5.78-.76-8.65-.32-3.13-1.27-6.18-1.36-9.33a61.35,61.35,0,0,1,.34-7.67,55.05,55.05,0,0,0,.47-7.37c0-4.93.1-10-1.33-14.78-1.07-3.51-2.92-6.72-4-10.22a60.38,60.38,0,0,1-1.52-6.65c-.36-1.92-.73-3.84-.91-5.78a56.93,56.93,0,0,1,.49-12.58,49.79,49.79,0,0,1,1.84-7.48,46.17,46.17,0,0,0,1.78-11.2c.13-3.93.11-7.86.13-11.79,0-5.62,0-11.27-.44-16.88-.47-5.19-2.29-10.12-4-15s-3.13-10-4.93-14.85A158,158,0,0,0,878,507c-3.66-6.92-7.84-13.55-12.05-20.15-3-4.35-6.11-8.6-8.72-13.2-3.86-6.67-6-14.25-10.2-20.71-3.07-4.59-6-9.3-10-13.22-4.71-4.63-9.42-9.29-14.55-13.48-4.36-3.66-8.35-7.73-12.56-11.55a58.87,58.87,0,0,0-8.1-5.76,93.19,93.19,0,0,0-14.32-5.4c-4.63-1.59-9.11-3.64-13.8-5-2.45-.67-5-1.2-7.42-1.82s-5.06-1.48-7.61-2.09c-4.12-.92-8.11-2.36-12.16-3.49-1.62-.61-12-5.61-13.18-6.28-3.47-1.92-7.06-3.65-10.67-5.3-3.44-1.58-7-3-10.41-4.57-3-1.41-6-2.91-9-4.36s-5.74-2.74-8.63-4.07c-2.49-1.21-5-2.43-7.51-3.54a77.82,77.82,0,0,0-14.59-4.7,84.16,84.16,0,0,0-10.07-2c-2.25-.37-4.48-.89-6.76-1.07-6-.47-12-.28-18-.48-5-.13-10-.54-15-.64A105.86,105.86,0,0,0,603,355.39a53,53,0,0,1-11,.83c-1.38,0-17.57-.08-16.57-2.6v-.17s-.12-.15-.13-.15a1.36,1.36,0,0,0-.44-.11,8.11,8.11,0,0,0-1.3.08c-1.49.19-3,.34-4.48.52-5.44.78-10.9,1.44-16.33,2.3-2.43.43-4.8,1.16-7.24,1.53-5.15.94-10.41.71-15.61,1.1-2.74.14-5.47.52-8.22.52a40.14,40.14,0,0,1-9.2-1.19c-2.15-.72-5.63-1.56-5.34-4.47a23.14,23.14,0,0,1,1.55-5.38c1.09-2.88,3.14-6.8,1.85-9.81-1.23-2.22-3.94-2.86-6.12-3.77a36.45,36.45,0,0,0-10.64-2.94c-5.34-1-10.66-2.27-16.11-2.37-7.8-.13-15.58-1.06-23.39-.73s-15.37,1.94-22.93,3.54c-5.71,1.21-11.51,2-17.22,3.23-3.92.78-8,.8-11.86,1.78a84.74,84.74,0,0,0-16.63,6.67,83.36,83.36,0,0,0-15.31,9.13,65,65,0,0,0-13,15c-1.58,2.44-2.3,5.36-4,7.71a24.88,24.88,0,0,1-9,7.51c-2.11,1-4.41,1.56-6.55,2.5-4,1.65-8.1,3.16-12.1,4.86-3.09,1.38-6.16,3-9.55,3.47-3.7.88-5.06-.76-8.05-2.61a23.24,23.24,0,0,0-4.39-1.86c-2.1-.73-4.27-1.26-6.39-1.93-1.46-.51-2.9-1.09-4.3-1.72a18.88,18.88,0,0,0-4.25-1.45,32.7,32.7,0,0,0-5.33,0,61.31,61.31,0,0,0-8.45.9,128.34,128.34,0,0,0-16,5.18c-2.7,1.07-5.4,2.15-8,3.41-2.31,1.17-4.57,2.49-6.78,3.84-2.85,1.78-5.7,3.56-8.45,5.49s-5.6,4.17-8.41,6.24-5.73,4.35-8.5,6.64c-2.23,1.92-4.35,4-6.41,6.1-4,4-7.32,8.63-11.23,12.7-2.86,2.92-6.28,5.2-9.44,7.78-3.95,3.12-7.76,6.42-11.93,9.25-9.34,6.24-18.54,13-25.66,21.75a64,64,0,0,0-5.88,9,46.43,46.43,0,0,0-3.73,8.56c-.63,4.12.07,8.28.67,12.36a92.41,92.41,0,0,0,1.85,9.77c.85,3.29,2,6.49,3,9.73a74.79,74.79,0,0,1,2.6,10.44c.71,4.06,1.15,8.19,2.39,12.14a44.75,44.75,0,0,0,8.35,14.56,103.05,103.05,0,0,0,15.34,14.65,30.11,30.11,0,0,0,7.76,4.63c-.13,0-.11.19,0,.2a.74.74,0,0,0-.77.26c0,.19,0,.21,0,.22a11.13,11.13,0,0,0,2.94,1.84c1.75.88,3.53,1.69,5.27,2.56a39.09,39.09,0,0,0,6.71,2.67,31.1,31.1,0,0,0,9,.8c3.44-.15,6.88-.25,10.31-.44a37.14,37.14,0,0,0,6.88-.89,26.86,26.86,0,0,0,3.67-1.34c7.22-3.1,6.12-2.29,13.37-.5,4.38,1.05,8.92,1,13.37,1.6,2.48.3,5,.64,7.47.72,6,.18,12.06-.19,18.09-.07a68.24,68.24,0,0,1,10.68.83c3.3.71,6.55,1.71,9.91,2.17a32.72,32.72,0,0,0,9.58,0c5-.8,5.83.86,9.45,3.67a43.06,43.06,0,0,0,14,6.77,36.59,36.59,0,0,0,5.29,1c.65.08,1.32.17,2,.3.41.12,1,.17,1.09.64-.22.6-.92.9-1.4,1.28-.84.56-1.69,1.13-2.55,1.65a84.82,84.82,0,0,1-8.15,4.34c-5.56,2.69-11.81,4.39-16.51,8.56a22.49,22.49,0,0,0-3.94,5.25,12.51,12.51,0,0,0-.7,3.08,14.13,14.13,0,0,0,.42,4.29,22.54,22.54,0,0,0,1.27,3.38,20.55,20.55,0,0,0,2.24,4.53c1,1.42,2.14,2.67,3.13,4.07a54.65,54.65,0,0,0,3.54,5.24,24.51,24.51,0,0,0,7.6,5.5c3.92,2,8.09,3.48,12.19,5.09a39.65,39.65,0,0,0,20.48,2.26,66.09,66.09,0,0,0,12.82-2.81,125.58,125.58,0,0,0,16.65-7.4,30.4,30.4,0,0,1,9.6-3.35A27.42,27.42,0,0,1,413.68,649c5.7,1.84,11,4.78,16.65,6.73,3,1,6.14,1.54,9.22,2.23,4.32.95,8.69,1.75,13.09,2.27a35.89,35.89,0,0,0,6.39,0,104.73,104.73,0,0,0,14.11-1.82c2.38-.43,4.74-1,7.06-1.65a18.39,18.39,0,0,0,5.27-2.1l.11-.08a5.65,5.65,0,0,0,1.09-1,15.74,15.74,0,0,1,6-4.74,34.59,34.59,0,0,0,6.64-4.68,19.4,19.4,0,0,0,3.6-4.28,20.26,20.26,0,0,1,2.95-5.18,11.1,11.1,0,0,1,2.72-2.25c1.37-.75,2.87-1.21,4.3-1.83a88.65,88.65,0,0,1,8.45-3.32l.11-.13c.67.07,1.37-.14,2.06,0a31,31,0,0,1,3.17.58,51.64,51.64,0,0,0,6.76,1.17c8.47.67,16.93,1.5,25.39,2.22,4.72.39,9.46.26,14.19.25,15.7-.06,31.39-.81,47.09-.78,7.42,0,14.88-.29,22.26.59a107.32,107.32,0,0,1,11.34,2.54c2.3.58,4.58,1.23,6.87,1.81a23.36,23.36,0,0,1,3.1.88c.49.26.71.84,1,1.28.65,1.17.93,2.51,1.6,3.67,1.13,2.14,2.56,4.11,3.79,6.2,2.21,3.82,3.94,7.92,6.33,11.65,1.31,2.11,2.59,4.27,4.09,6.25,1.06,1.31,2.33,2.43,3.41,3.73a8.66,8.66,0,0,1,1.89,4c.39,1.58.68,3.19,1,4.8a94.05,94.05,0,0,1,1.2,12c.14,4.22,0,8.49.73,12.66a39.2,39.2,0,0,0,2.08,7.06c.64,1.71,1.28,3.42,2,5.08a55.38,55.38,0,0,0,2.46,5.51,19.54,19.54,0,0,0,3.2,4,24.1,24.1,0,0,0,2.9,2.24c1.32,1.05,2.77,1.93,4.17,2.87,2,1.34,3.93,2.8,6,4.07,1.51,1,3.11,1.85,4.66,2.79,3,1.89,4.79,5.13,6.29,8.27a30.55,30.55,0,0,1,2.55,7.7c.5,2.55,1,5.43-.37,7.81-1.13,1.94-2.88,3.41-4.33,5.1s-2.46,3.35-4,4.77c-1,.92-2.23,1.61-3.32,2.44a22.22,22.22,0,0,0-5,4.92,13.14,13.14,0,0,0-2.2,4.64,19.3,19.3,0,0,0-.22,5,40.76,40.76,0,0,0,.93,7.86,32.83,32.83,0,0,0,1.65,4.08c.66,1.52,1.15,3.12,1.85,4.63a12.54,12.54,0,0,0,1.39,2.51,7.85,7.85,0,0,0,2.66,2A16.69,16.69,0,0,0,719.78,808.77Z"/></g><g id="レイヤー_5" data-name="レイヤー 5"><path class="cls-3" d="M791.15,711.5a12.89,12.89,0,0,0,4.05-1.26,30.77,30.77,0,0,0,6.14-3.83c7.16-4.79,11.82-11,15.64-18.63a57.13,57.13,0,0,0,5.63-15.34c1.47-6.13,2.72-12.33,4.11-18.48,1-4.8,2.11-9.62,3.47-14.35.51-1.92,1.14-3.82,1.56-5.76a18.36,18.36,0,0,0-.28-5.82c-1.28-7.07-3.06-11.54-9.44-15.42l-14.69-7.07c-.34,0,0,.41,0,.59a43.44,43.44,0,0,1-.72,15.74,29.76,29.76,0,0,1-7.08,12c-3.48,3.29-7.92,5.35-12.21,7.34-1.19.53-2.42,1-3.62,1.53-1.4.51-2.84,1.44-3,3a16.35,16.35,0,0,0,.65,5.38,56.84,56.84,0,0,0,3.47,9.64,68.1,68.1,0,0,1,4,12.43,84.69,84.69,0,0,1,1.41,15.07c-.27,5-.25,10-.72,14.94-.18,1.51-.43,3.06-.64,4.56C788.55,709.7,788.75,711.51,791.15,711.5Z"/><path class="cls-3" d="M472.94,659.23a28.84,28.84,0,0,0,8.62-1.62,34.32,34.32,0,0,0,6.87-2.6,35.7,35.7,0,0,0,4.9-2.75l.1-.08a10.19,10.19,0,0,0,2.41-2.36h0l.08-.1c1.92-2.8,3-6.05,4.38-9.15a23.11,23.11,0,0,1,2.55-5.21v-.18c2-1.35,4.64-1.4,6.93-2s4.3-1.41,6.46-2.08,4.7-1,6.88-2a8.19,8.19,0,0,0,4.36-4.32l-.1-.17a45.48,45.48,0,0,0,6.89-.72,13.68,13.68,0,0,0,5.9-2.34c3.92-2.92,7.38-6.41,11.24-9.4,2.38-1.73,4.79-3.62,7.61-4.54a58.43,58.43,0,0,1,6.21-1.75,42,42,0,0,1,12.62-.07c2.76.29,5.54.53,8.28,1,6.35,1.31,12.52,3.42,18.71,5.34a185.07,185.07,0,0,0,23.58,5.64c7.74,1.53,15.78,3.14,23.66,1.76a14.93,14.93,0,0,0,8.79-5,24.64,24.64,0,0,0,3-7.48c1.85-8,4.35-16,8.85-22.94a32,32,0,0,1,6.43-7.94c7.49-7,24.59-12,25-23.63a9.64,9.64,0,0,0-1.57-5.26c-2.86-5.32-7.63-9.2-12-13.19a67.08,67.08,0,0,1-8.64-10.31c-6.52-9.35-4.41-20.05,1.6-29.05,3.35-4.87,8-8.73,11.44-13.51,5.78-7.71,9.66-19.85,9.58-29.42.37-.81-17.26-.94-17.37-1.22-6.53.08-13.24.39-19.54,2.26a63,63,0,0,0-25.92,17.77c-9.27,10.71-15.63,23.61-24.32,34.74-8.94,10.95-20.18,19.94-32,27.68a243.74,243.74,0,0,1-25.15,14.9,45.82,45.82,0,0,1-11.51,3.83c-4.22.67-8.58,1.08-12.76,2-9.64,2-19,5.2-28.73,7a59.35,59.35,0,0,0-14.4,4.63c-3.24,1.52-6.69,3.09-9.11,5.82l0-.11a25.35,25.35,0,0,0-4.59.79c-2.85.63-5.82,1.24-8.7,1.7-6.53,1.13-13.39,1.22-19.88,2.28a13.36,13.36,0,0,0-1.42-4.9,19.32,19.32,0,0,0-2.21-2.9c-2-2.29-4.14-4.5-6.35-6.6a22.54,22.54,0,0,0-4.2-3.14,15.41,15.41,0,0,0-5.26-1.46c-4.26-.11-8.44,1.12-12.47,2.37q-12.74,4.11-25.12,9.25c-3.15,1.2-6.43,2.17-9.58,3.35-5,1.92-10.37,3.8-15.78,3-2.68-.43-4.72-2.4-6.32-4.47a66,66,0,0,1-4.35-6,57.38,57.38,0,0,0-4.7-6.06,15.51,15.51,0,0,0-5.75-4.44,6.2,6.2,0,0,0-5.89.78,55.57,55.57,0,0,0-5.25,5.27c-2.45,2.68-8.32,7.7-12.1,6.4a.11.11,0,0,0-.11.09,16.87,16.87,0,0,1-7.74-4.82,36.73,36.73,0,0,1-6.36-9.06c-1.11-2.07-2.07-4.24-3-6.39a19.45,19.45,0,0,0-3.28-5.53c-1.68-2.07-3.5-3.59-6.3-3.51-3,.16-4.89,2.79-6.34,5.15-2.52,4.07-5.05,8.34-9,11.19-1.84,1.35-4.88,2.7-6.76.75-1.86-1.73-2.12-4.41-3.13-6.63A24.16,24.16,0,0,0,259.91,536a8.39,8.39,0,0,0-5.74-.16,5.24,5.24,0,0,0-2.17,1,9.91,9.91,0,0,0-1.54,2c-2.63,4.51-2.48,10-4.78,14.67-2.13,3.91-4.09,1.68-6.9,0-3.08-2-6.4-3.89-9-6.58-2.15-2.11-3-5.06-3.88-7.85a82.38,82.38,0,0,1-3-13.43c-.61-5.34-1.66-10.72-1.33-16.1a34.12,34.12,0,0,1,1.86-9.34c1.89-4.46,4.73-8.61,5.62-13.45a20.11,20.11,0,0,0-.5-8.24,36,36,0,0,0-4.21-10.76c-1.86-3.37-3.44-6.93-5.55-10.14a37.84,37.84,0,0,0-4.42-5.71,11.45,11.45,0,0,0-7.15-3.09c-1.81.06-3.42,1.06-5.16,1.47a24.08,24.08,0,0,1-9.91.84,23.62,23.62,0,0,1-5.42-1.11c-3.95,2.36-15.92,9.63-19.75,11.67a70.58,70.58,0,0,0-6.73,4.39,34.84,34.84,0,0,0-6.11,5.72c-.95,1.07-2,2.07-2.91,3.19-2.51,3.12-3.34,7.15-4.84,10.79-.62,1.52-1.25,3.05-1.94,4.55a18.5,18.5,0,0,0-1.75,4.72h0a1.37,1.37,0,0,0-.05.28,18.09,18.09,0,0,0,0,4.93,30.9,30.9,0,0,0,1.49,7.38,40.65,40.65,0,0,0,3.48,7.37c1.44,2.56,2.89,5.13,4.27,7.72a36.61,36.61,0,0,1,3.69,11.56c.68,3.83,1.31,7.68,2.22,11.47,1.18,5.76,2.67,7.7,6.26,12.15,1.57,1.93,3.13,3.88,4.77,5.75s3.23,3.4,4.85,5.1c2,2,3.94,4,5.81,6a54.89,54.89,0,0,0,5.89,5.2,28.13,28.13,0,0,0,5.56,3.26,80,80,0,0,0,8.58,3.52c3.32,1.19,6.57,2.84,10.1,3.27a47.65,47.65,0,0,0,6.21.11,54.71,54.71,0,0,0,8.19-.66c2.78-.54,5.58-1.48,8.43-1.1a30.51,30.51,0,0,0,8.58-.44c2.16-.35,4.35-.6,6.53-.76,6.44-.58,12.9.2,19.35-.1,4.55-.08,9.11-.56,13.65-.14a60.26,60.26,0,0,1,6.95,1c2,.32,4.09.57,6.13.84a35.89,35.89,0,0,1,6.25,1.27,55.21,55.21,0,0,0,8.72,2.31,14.72,14.72,0,0,0,4.14,0,10,10,0,0,1,3.89.09,32,32,0,0,1,6.18,3.18c2.36,1.42,4.72,2.87,7.05,4.32a54.19,54.19,0,0,0,5.94,3.44,32.18,32.18,0,0,0,7.34,1.47c2.87.38,5.73.89,8.62,1.18a69.24,69.24,0,0,0,8.15.13c3.4-.08,6.82-.54,10.22-.39a66.41,66.41,0,0,1,11.62,1,29.51,29.51,0,0,1,5.27,1.8,49.28,49.28,0,0,1,5.23,3.46h-.11c.87,4.66,2.57,10.85,6.05,14.28a22.62,22.62,0,0,0,7.74,4.85c3.08,1.27,6.23,2.34,9.4,3.34,2.4.79,4.83,1.54,7.19,2.44a55,55,0,0,1,8.09,4.12c2.42,1.56,4.79,3.24,7.25,4.75,2.85,1.7,5.79,3.28,8.62,5a73.27,73.27,0,0,0,14.45,6.65A47.23,47.23,0,0,0,472.94,659.23Z"/></g><g id="レイヤー_4" data-name="レイヤー 4"><path class="cls-4" d="M214.38,590.64a17.89,17.89,0,0,0,10.21-4.11c1.13-.91,2.29-2.43,1.72-3.95a13.85,13.85,0,0,0-1.74-3.09c-2-2.82-4.89-4.93-7.41-7.29a30.53,30.53,0,0,1-5.11-5.24,92.14,92.14,0,0,0-6.87-8.4,51,51,0,0,0-6.63-6.27c-2.73-2-5.89-3.37-8.91-4.9-1.62-.82-3.19-1.75-4.79-2.62a11.52,11.52,0,0,1-3.66-2.54,23.62,23.62,0,0,1-3.17-4.84,36.5,36.5,0,0,1-3.22-8.31,48.67,48.67,0,0,1-1.27-5.87,41.33,41.33,0,0,1-.72-6.47,19,19,0,0,1,1.59-7.9,33.78,33.78,0,0,1,6.54-8.32c2.44-2.32,5.16-4.41,7-7.29,1.7-2.49,1.95-5.65,3.47-8.24,1.3-2.48,2.88-4.82,4.1-7.35,1.85-4.26,3.36-8.91,3-13.62-.24-2-.67-6.92-2.69-7.49l-16.57,3.28a26.48,26.48,0,0,0-4.35,5.42,42.11,42.11,0,0,0-3.75,6.15c-1,2.24-1.74,4.61-2.73,6.86a49.53,49.53,0,0,1-3.88,6.88,25.7,25.7,0,0,1-5,5.62c-3.37,2.38-7.05,4.35-10.18,7.07-2.94,2.56-4.25,4.09-3.48,8.17a11.72,11.72,0,0,0,1.41,4.64,2.24,2.24,0,0,0,3,.45c1.18-.63,2-1.78,3-2.58l.08-.17a.38.38,0,0,0,.44-.19c.26.11.59,0,.85.18a3.23,3.23,0,0,1,1.21,1.14,7.57,7.57,0,0,1,.81,4.91c-.18,2.23-.4,4.47-.46,6.71a89.32,89.32,0,0,0,.41,10.47,55.23,55.23,0,0,0,1.57,10.62,21,21,0,0,0,3.24,7.8c3,4.65,8.14,7.17,12.26,10.64a24.27,24.27,0,0,0,5.31,3.93c1.77,1,3.77,1.5,5.49,2.58,4.23,2.61,7.85,6.1,12.15,8.59,1.37.92,2.72,1.9,4.07,2.85a23.67,23.67,0,0,1,3.24,2.58,45.56,45.56,0,0,1,3,4,19.11,19.11,0,0,0,3.27,3.84A7.49,7.49,0,0,0,214.38,590.64Z"/><path class="cls-5" d="M740,775.05a7.9,7.9,0,0,1,1.83-2.42,3.16,3.16,0,0,1,2-3.11c5.15-5.76,23.66-7.79,23.23,3.32,2.62,3.22,2.1,8.49-1.79,10.44a18.26,18.26,0,0,1-.71,2.24c.74,7.86-8.29,19.4-15.53,21.71-10.09-2.21-2.67-17.07,3.84-19.77a23.5,23.5,0,0,1,3.26-3.72c-2,.44-4.42.19-5.84-1.46A6.29,6.29,0,0,1,740,775.05Z"/><path class="cls-5" d="M722.12,799.5c3.78-2.47,13.12-6.67,14.26.51,7.68,6-7.15,11-12.13,10.62C717.45,810.74,716.32,802.31,722.12,799.5Z"/><path class="cls-5" d="M355.64,640.17c-.38,3.47,3,6.72,6.46,5.55a7.28,7.28,0,0,0,3.92.67c6.46,3.08,14.78-1.6,13.84-9.15,2.17-2.1.9-5.46.94-8.12l0,.43c-.82-3.8,1.63-8.06-.32-11.5-5.2-4-13.81.87-18,4.65-3.56-.34-5.38,3.71-6.79,6.36C354.1,632.48,353.65,636.83,355.64,640.17Zm16.82-15.91c.28-.16.55-.33.84-.47a2.26,2.26,0,0,1,.28.66,3.38,3.38,0,0,0-1.09-.19Z"/><path class="cls-5" d="M335.53,651.55c-2.91-6.66,9.77-6.12,7.69.38C343.43,658.83,331.1,659.39,335.53,651.55Z"/><path class="cls-5" d="M323.51,635.92c1.87-2.28,3.57-5.71,6.78-6.1,3.53-3.22,11-3.9,9.44,2.83,3.59,5.13-4.37,11-8.44,13.27C324.14,648.33,316.89,642.48,323.51,635.92Z"/><path class="cls-5" d="M332.34,621.61c-2.85,1.26-5.56,3.32-8.7,3.71-5.08-.32-3.46-6.12-.65-8.38-2.22-6,13.61-9.19,14.05-3.15C340.89,617.27,335.36,620.37,332.34,621.61Z"/><path class="cls-5" d="M396.87,404.35c1.44-2.57,3.54-5.48,6.67-5.93,2.19-3.42,9-6.22,11.75-2.28,4.83-.14,7.31,5.45,6.78,9.65,7.79,3.86.34,15.4-6.33,15.1a6.61,6.61,0,0,1-8,2.91c-3.27,1.06-7.88-.14-7.48-4.32C392.84,422.13,394.29,408,396.87,404.35Z"/><path class="cls-5" d="M370.64,429.36c2.91-4.67,7-9.41,12-11.76,13.76,1.89-2.08,20.75-8.29,24.06C365.7,446.16,366,433.45,370.64,429.36Z"/><path class="cls-5" d="M395.33,454.26c5.69-2.1,13.85-16.05,4.18-17.52-2.63,0-7.57.92-7.22,4.43C387.56,445,386.57,457.39,395.33,454.26Z"/><path class="cls-5" d="M409.27,452.51a4,4,0,0,0,2.26-.63c3.71.76,6.17-3.43,7.1-6.47,6.94-6.72-9.87-15.7-7.51-5.15C408.23,443.19,402.14,451,409.27,452.51Z"/><path class="cls-5" d="M416.24,448.81c11.77-13.83-3.12-17.58-1.94-9.08-.85,3.15-6,6.55-2.51,9.65A3.2,3.2,0,0,0,416.24,448.81Z"/><path class="cls-6" d="M239,465.67c0-2.95,2.29-5.14,4.4-6.91,3-2.47,6.42-4.75,8.51-8.14a39.43,39.43,0,0,0,3.78-9.5c.75-3.77,1.28-7.64,2.89-11.18,1.35-3.38,4-6,6.48-8.58a26.48,26.48,0,0,1,4.25-3.67c1.78-1.1,3.7-2,5.55-2.94a7.31,7.31,0,0,1,3.46-1.1c2.44.21,3.81,2.67,4.76,4.66a34.64,34.64,0,0,1,2.19,7.94c.36,3.38.32,6.8.54,10.19.25,4.34.55,8.69.5,13-.12,3.16-.52,6.32-.61,9.48-.08,9.66,1.21,19.34.67,29-.14,4-.68,7.92-1,11.88-.25,4.78-.53,9.58-.5,14.37a64.61,64.61,0,0,0,1.81,12.22c.65,2.65,1.43,5.28,2.29,7.88a21.85,21.85,0,0,0,1.35,3.38c1.12,1.59,1.8-.42,1.95-1.45.74-4.26-.28-8.57-.72-12.81-.54-4.83-.76-9.74-1-14.6-.38-10.16,1.48-20.31,4.14-30.08,2.32-7.63,5.15-15.11,7.64-22.68,1.2-3.64,2.7-7.21,4.16-10.76a44,44,0,0,1,2.19-4.79,31,31,0,0,1,3.89-4.88c3.06-3.41,4.92-2.76,8.61-.72,7,4.05,10.23,10.34,19.18,10.76,2.39.14,4.89-.23,7.21.55a26.55,26.55,0,0,1,5.18,2.69,40.49,40.49,0,0,1,6.51,4.75c3.44,3.06,6.24,6.81,9.87,9.66a20.54,20.54,0,0,0,7.38,3.88,21.78,21.78,0,0,0,5,.53,28.3,28.3,0,0,0,6.37-.5,35,35,0,0,0,6.39-1.63,26.13,26.13,0,0,0,4.5-2.59c3.74-2.58,7.44-5.23,11-8.1,2.11-1.68,4-3.61,6.15-5.27,1.22-.93,2.54-1.71,3.8-2.57A35.15,35.15,0,0,0,423,444.4a33.12,33.12,0,0,0,4.55-5.27c1.92-2.6,3.71-5.3,5.45-8s3.15-5.29,5.44-7.37a56.33,56.33,0,0,1,8.41-5.46c4.56-2.55,9.24-4.89,14-7.07,4.3-1.81,8.77-3.22,13.15-4.82a101.82,101.82,0,0,0,11.78-5.52c7.83-4.23,15.76-8.55,24.44-10.75,3-.85,6-1.86,9.11-2.5A70,70,0,0,1,530,386.47c11.76-.7,23.51.89,35.17,2.23a158.1,158.1,0,0,0,27.26.33c5.78-.45,11.54-1.53,17.28-2.33a175.82,175.82,0,0,1,25.93-1.78,244,244,0,0,1,47.45,4.84c6.27,1.25,12.83,1.78,18.75,4.36a43.6,43.6,0,0,1,12.17,8.82,43.14,43.14,0,0,1,8.15,13.5c5.25,14-4.13,31.23-11.19,43.12a117.26,117.26,0,0,1-12.09,16.29c-3.8,4.15-8.12,7.86-12.24,11.69a74.36,74.36,0,0,0-15.34,18.88,160.61,160.61,0,0,0-8.44,15c-3.38,6.68-2.64,14.38-3.35,21.62s-1,14.5-2.47,21.62a50.22,50.22,0,0,1-2.52,10.62,23.52,23.52,0,0,1-7.9,10.3c-7,5.74-15.61,9.08-24.34,11-7.42,1.53-14.73,3.61-22.06,5.5-4.35,1-8.81,1.72-13.19,2.55A139.18,139.18,0,0,1,571.75,607a97.72,97.72,0,0,1-22.9-1.55,101.2,101.2,0,0,1-12.69-3.33,48.79,48.79,0,0,0-8-1.92c-1.64-.23-3.29-.38-4.94-.5a9.39,9.39,0,0,1-4.16-.8c-3.44-1.84-6-4.88-9.34-6.92a19.48,19.48,0,0,0-7.34-2.21,24.14,24.14,0,0,0-7.54,0c-2.25.29-4.49.72-6.75,1-1.45.26-3,.17-4.4.79-1.71,1.22-2.64,3.28-3.34,5.2a6.71,6.71,0,0,0-.35,2.91,8.31,8.31,0,0,0,1.28,3.11c2.39,3.57,4.76,7.26,6.08,11.38a61,61,0,0,1,1.89,10,34.1,34.1,0,0,1-.4,6.92,49.43,49.43,0,0,1-1.64,6.47,20.12,20.12,0,0,1-2.19,3.89c-3.35,5.29-7.66,8.51-13.94,9.56-8.81,2-17.56-2-24.63-7-5.23-3.66-10.32-7.69-14.36-12.67-2.62-3-4-5.77-3.77-9.8s2.1-8,5.66-10a44,44,0,0,1,9.82-4.13c2.55-.81,5.24-1.29,7.79-2.13a49.24,49.24,0,0,0,10.87-4.91,8.81,8.81,0,0,0,4.57-5,8,8,0,0,0,.4-5.61c-1.11-3.77-6.4-4.95-9.7-6.12a19.11,19.11,0,0,1-5.7-2.5c-4.5-3.42-6.91-8.84-10.95-12.72a18,18,0,0,0-3.84-3.13c-3.27-1.69-7.13-1.33-10.68-1a55.31,55.31,0,0,0-15.29,3.7c-4.65,1.76-9.16,4-13.95,5.33-1.79.56-3.65.9-5.44,1.48a72.23,72.23,0,0,1-9.2,2.58,74.61,74.61,0,0,1-11.38.55,40.54,40.54,0,0,0-9.13,1.65,18.11,18.11,0,0,1-3.05.75c-2.47-.16-3.31-3.61-4.21-5.47-1.72-4.29-3.26-8.78-6.16-12.45-1.19-1.75-2.61-3.07-4.87-2.32-3.59,1.32-5.4,7.19-6.27,10.55s-1.44,6.83-3,9.93a4.37,4.37,0,0,1-6.25,1.52c-3.06-2.23-4.19-6.16-5.26-9.61a118.58,118.58,0,0,0-3.55-11.7c-2.13-5.28-4.82-10.36-7.23-15.51-1.26-2.43-2.17-5.16-4-7.23a5.36,5.36,0,0,0-5-1.47h0a26.15,26.15,0,0,0-4.7,1.71,9.52,9.52,0,0,0-2.93,2.65,22.72,22.72,0,0,0-2.56,7.16c.41.69-14.93,7.52-15,7.86-.57-.47-1.37-.65-2-1.1a17.62,17.62,0,0,1-3.8-4.77,57.3,57.3,0,0,0-4.63-6.62,38.47,38.47,0,0,0-8.5-7.71c-2-1.26-4.18-2.19-6.11-3.5-3.44-2.39-4.78-6.68-5.34-10.65a71.75,71.75,0,0,1-.69-11.06,109.83,109.83,0,0,0-.3-16,56.15,56.15,0,0,0-3-13.62c-.66-1.92-1.74-3.68-2.44-5.58C240.12,472.27,238.86,469.05,239,465.67Z"/><path class="cls-6" d="M801.76,704.27c1.48-3.37,2.9-6.78,4.16-10.24a92.94,92.94,0,0,0,3.9-11.56c1.27-5.44,1.24-11.06,1.53-16.6a49.09,49.09,0,0,1,.84-7.25,33.83,33.83,0,0,1,2.66-7.35c2.07-3.91,4.63-7.56,6.8-11.42a24.13,24.13,0,0,0,3.71-10.76,42.05,42.05,0,0,0,.14-6.15c0-.55-.06-1.13-.11-1.69,0-.11,0-.33,0-.45l0-.24c0-.11.13-.14.21-.09L835.91,633l.19.42c.45,1,.82,2.17,1.17,3.26.7,2.27,1.6,4.5,2.22,6.79a33.66,33.66,0,0,1,1.24,14.75c-.49,3.76-1.34,7.71-3.86,10.67-2,2.32-4.12,4.47-6,6.84-3,3.62-5.59,7.48-8.65,11-2.23,2.41-4.34,4.94-6.63,7.29-2.64,2.55-5.13,5.26-7.82,7.75a23,23,0,0,1-3,2.4C804,704.71,801.24,706.24,801.76,704.27Z"/><path class="cls-6" d="M501.88,346.18A31.23,31.23,0,0,1,499,358c-1.8,3.63-4.12,7-6.25,10.42-2.31,3.57-4.71,7.23-7.88,10.09a34.86,34.86,0,0,1-7,3.86c-5.95,2.48-11.05-.2-16.93-.82a60.71,60.71,0,0,0-8.5.74,48.59,48.59,0,0,0-6,1.05c-3.42.8-9.24,2.69-12-.29a13.35,13.35,0,0,1-1.94-3.17,36.84,36.84,0,0,1-1.8-4.13c-1.18-3.5-.06-7.26,1.4-10.5,2.27-4.61,6.37-7.9,10.66-10.56,2.16-1.35,4.2-2.93,6.4-4.22l5-16a100.3,100.3,0,0,1,10.81-1.16c5-.13,10.1.18,15.14.37,5.54.32,14.71.39,18.79,4.53a11.39,11.39,0,0,1,2.75,5A15.38,15.38,0,0,1,501.88,346.18Z"/></g><g id="レイヤー_3" data-name="レイヤー 3"><path class="cls-7" d="M393,337.11l-.18.06h0Z"/><path class="cls-7" d="M430.35,414.77a21.77,21.77,0,0,0,1.18-4.43,34.49,34.49,0,0,0-4.42-6.25c-.11-.38-.21-.76-.3-1.15-.27-1.35-.46-2.71-.85-4a12.68,12.68,0,0,0-1.06-2.49,8.92,8.92,0,0,0-3.25-3.12,19.75,19.75,0,0,0-4.42-2,20.7,20.7,0,0,0-4.79-1,14.75,14.75,0,0,0-9.3,2.28,21.54,21.54,0,0,0-3.85,3.15,35.39,35.39,0,0,0-3.07,3.82,26.85,26.85,0,0,0-2.61,4.37,17.69,17.69,0,0,0-1.43,3.83,13.84,13.84,0,0,0-.08,5,27.21,27.21,0,0,0,1.09,4.62,17.84,17.84,0,0,0,2.35,4.75,11.57,11.57,0,0,0,2.12,2.3,10.28,10.28,0,0,0,2.23,1.33,21.69,21.69,0,0,0,8.47,2.43l.78,0a20.45,20.45,0,0,0,5.44-.85A40.53,40.53,0,0,0,421,425a25.77,25.77,0,0,0,3.57-2,15.76,15.76,0,0,0,4.38-5.15A17.12,17.12,0,0,0,430.35,414.77ZM425,410.82c-.1.35-.21.71-.32,1.06-.26.72-.54,1.43-.86,2.14s-.65,1.2-1,1.78c-.24.33-.48.66-.74,1s-.46.46-.7.68-.5.4-.76.58c-.57.35-1.13.68-1.72,1-.92.44-1.85.83-2.81,1.18-1.6.53-3.22,1-4.86,1.38-.49.08-1,.14-1.45.19s-.81,0-1.22,0-1-.13-1.51-.22-1.25-.31-1.86-.51c-.94-.36-1.87-.76-2.78-1.2l-.6-.35-.35-.28-.18-.19c-.2-.24-.39-.48-.58-.74s-.49-.82-.71-1.24-.46-1-.65-1.53c-.29-.91-.52-1.83-.72-2.76-.12-.63-.22-1.26-.29-1.9,0-.34,0-.67,0-1,0-.19.05-.38.08-.57s.14-.54.22-.81c.32-.82.67-1.62,1.06-2.42a20.52,20.52,0,0,1,1.09-1.86c.86-1.24,1.77-2.45,2.73-3.61.43-.46.86-.91,1.31-1.34s.84-.67,1.28-1,.91-.55,1.39-.8c.33-.16.68-.3,1-.44l.94-.26c.34-.06.67-.11,1-.15s.92,0,1.38,0,1,.12,1.48.21c.84.19,1.66.43,2.47.7.57.21,1.13.45,1.68.7s.82.45,1.22.7c.17.12.33.25.49.38l.15.15.12.15.09.15c.1.23.2.46.29.7.16.5.29,1,.41,1.51.19,1,.34,2,.56,2.95a12,12,0,0,0,1.26,3.48,5.11,5.11,0,0,0,2.3,2.25A5.6,5.6,0,0,0,425,410.82Z"/><path class="cls-7" d="M139.62,507.94a32.36,32.36,0,0,0,1.48,3.91c.11.26.23.52.35.78a7.23,7.23,0,0,0,0,.93c0,.46.11.91.19,1.36a24.9,24.9,0,0,0,.81,3.76,25.49,25.49,0,0,0,1.89,5,16.1,16.1,0,0,0,4.39,5.21,10.17,10.17,0,0,0,1.64,1c-.19,1.32-.35,2.64-.46,4a39,39,0,0,0,.16,10.79,40.94,40.94,0,0,0,1.2,4.47,35.38,35.38,0,0,0,1.84,4.67,48.9,48.9,0,0,0,4.82,7.59,73.92,73.92,0,0,0,6.4,7c2.09,2.1,4.18,4.2,6.35,6.22,1.24,1.16,2.49,2.3,3.82,3.36s2.6,2,3.93,2.94a65.2,65.2,0,0,0,8,5.1,58,58,0,0,0,9,3.88,53.34,53.34,0,0,0,9.09,2,71.45,71.45,0,0,0,8.15.29h1.42c.85,0,1.7,0,2.54,0a28.39,28.39,0,0,0,4.23-.49c.15,0,.29-.08.43-.12a2.76,2.76,0,0,0,.71.09h1.52a12.34,12.34,0,0,0,3.87-.47,15.7,15.7,0,0,0,3.58-1.77,15.08,15.08,0,0,0,3.5-3,2.8,2.8,0,0,0,.55-1.07c1.83.74,3.65,1.54,5.42,2.39a52.25,52.25,0,0,0,8.41,3.56,36.06,36.06,0,0,0,9.39.88c3.12,0,6.24,0,9.36,0a111.07,111.07,0,0,0,11.4-.44c1.76-.17,3.52-.48,5.25-.82a38.13,38.13,0,0,0,5.45-1.57c.39-.12.77-.23,1.16-.33l.43-.06h.05l.31.09q.39.15.78.33c1.42.74,2.81,1.57,4.29,2.21,1.85.79,3.67,1.64,5.58,2.32a18.73,18.73,0,0,0,6.31,1.2h.41a13.59,13.59,0,0,0,6.91-2l.15-.12c.74,1,1.52,2,2.35,3a17.16,17.16,0,0,0,3.72,3.29,29.77,29.77,0,0,0,4.12,2.14,32.82,32.82,0,0,0,8.81,3,59.84,59.84,0,0,0,8,.46c-.83.26-1.66.53-2.48.81a3.09,3.09,0,0,0-1.88-.34,3.21,3.21,0,0,0-2.51,2c-1.1.45-2.19.93-3.26,1.45-1.42.69-2.83,1.42-4.24,2.13s-2.66,1.31-3.95,2.05-2.82,1.68-4.24,2.49a34.26,34.26,0,0,0-3.5,2.2,14.46,14.46,0,0,0-2.07,1.92,17.05,17.05,0,0,0-1.18,1.61,3.27,3.27,0,0,0-.8,1.26l0,0a13.28,13.28,0,0,0-1.88,4,3.32,3.32,0,0,0,1.05,3.29,3.5,3.5,0,0,0-.43,2c.06.74.13,1.47.24,2.2a13,13,0,0,0,.71,2.51q.74,2.06,1.56,4.08a34.12,34.12,0,0,0,1.94,4.1c.76,1.32,1.64,2.57,2.51,3.82a35.48,35.48,0,0,0,3.17,4,26.65,26.65,0,0,0,3.78,3.26c.79.57,1.6,1.1,2.42,1.62a5.26,5.26,0,0,0,1.23,1.49A6.5,6.5,0,0,0,332,660c.42.11.85.18,1.28.25l.59.29c5.8,2.76,12.33,3.53,18.69,3.67.9,0,1.8,0,2.71,0,2.32,0,4.64-.06,7-.14a56.62,56.62,0,0,0,9.9-1,63.5,63.5,0,0,0,13.16-4.36q3.21-1.47,6.35-3.1c1.87-1,3.72-2,5.61-3l-.13.06.23-.11.14-.07-.06,0a50,50,0,0,1,4.64-2.15,18.72,18.72,0,0,1,1.82-.48c.35-.07.69-.11,1-.15s.67,0,1,0a58,58,0,0,1,6.31.85,43.25,43.25,0,0,1,4.59,1.25c3,1.09,5.89,2.42,8.78,3.78a73.67,73.67,0,0,0,8.59,3.51,43.88,43.88,0,0,0,9.61,2,96.47,96.47,0,0,0,10.06.11c6.24-.09,12.5-.27,18.73-.72a86.63,86.63,0,0,0,9.09-1.06,64.62,64.62,0,0,0,8.66-2.2,23.92,23.92,0,0,0,8.44-4.54,12.23,12.23,0,0,0,3.21-4,21.12,21.12,0,0,0,1.3-4.16,17.62,17.62,0,0,0,.4-4.69c-.07-1.56-.16-3.12-.32-4.68a92,92,0,0,0-1.41-9.49c-.25-1.23-.51-2.45-.84-3.66a10.78,10.78,0,0,0-2-4.31,4.43,4.43,0,0,0-2.8-1.64,5,5,0,0,0-2.42.38,10.77,10.77,0,0,0-1.32.65,3.17,3.17,0,0,0,1.13,6.14,3.36,3.36,0,0,0,1-.19c.37,1.24.66,2.49.92,3.76a89.68,89.68,0,0,1,1.52,11.3c.07,1.1.16,2.21.13,3.31-.05.5-.12,1-.21,1.47-.18.81-.39,1.61-.65,2.41-.12.31-.25.62-.38.93l-.26.45-.35.42-.58.57c-.59.5-1.2,1-1.83,1.41-.45.29-.91.56-1.39.82a27.86,27.86,0,0,1-2.77,1.15,68.56,68.56,0,0,1-7.47,2,87.09,87.09,0,0,1-10.06,1.2c-4.28.28-8.58.44-12.88.55q-3.36.09-6.72.13c-2.29,0-4.57.07-6.85-.06a43.38,43.38,0,0,1-4.41-.65,50,50,0,0,1-5.36-1.47c-6-2.21-11.57-5.47-17.69-7.39a46.26,46.26,0,0,0-9-1.78,19.94,19.94,0,0,0-5.12-.1,19.59,19.59,0,0,0-4.79,1.38c-3.94,1.7-7.65,3.9-11.48,5.85a88.58,88.58,0,0,1-9.75,4.23,62.37,62.37,0,0,1-6.83,1.92,46.26,46.26,0,0,1-5,.64c-2.49.16-5,.23-7.46.26-3,.05-6,0-9-.13h-.06a12,12,0,0,0,2.45-3.87,5.7,5.7,0,0,0-.15-4.51,7.82,7.82,0,0,0-2.52-2.84,12.83,12.83,0,0,0-4.8-2.1,9.15,9.15,0,0,0-3.13-.07,18.4,18.4,0,0,0,3.91-4.89,16.13,16.13,0,0,0,2.2-7.3l0-.52a3.23,3.23,0,0,0,.75-3.54,12.59,12.59,0,0,0-.9-1.75,3.24,3.24,0,0,0-1.53-1.82,5,5,0,0,0-1.95-1.05,19.1,19.1,0,0,0-4.83-.42c-.25,0-.5,0-.74,0l.22-.13a16.67,16.67,0,0,0,3.37-2.9,16.43,16.43,0,0,0,2.58-3.87,8.2,8.2,0,0,0,.54-5c1.28-.42,2.58-.83,3.88-1.19,3-.85,6-1.68,9-2.46,5.55-1.45,11-3.22,16.44-5.05,3.23-1.09,6.46-2.21,9.72-3.26a94.58,94.58,0,0,1,9.82-2.6,99.85,99.85,0,0,1,11.78-1.62c3.35-.17,6.7-.12,10.05-.11q4.74,0,9.48.07c3.28,0,6.56.13,9.84.11s6.84-.2,10.26-.49c2.94-.25,7.52-1,7.52-4.76a3.17,3.17,0,0,0-5.68-1.94l-.47.12c-1.57.25-3.15.37-4.74.48-3.21.18-6.4.25-9.61.22s-6.61-.09-9.92-.12-6.42,0-9.63,0a90.72,90.72,0,0,0-9.9.34c-3.12.34-6.25.73-9.32,1.35s-6.35,1.41-9.47,2.34c-5.54,1.66-10.94,3.73-16.46,5.47-1.51.47-3,1-4.55,1.44a18.91,18.91,0,0,0,1.57-1.66,8.76,8.76,0,0,0,2.13-4,3.18,3.18,0,0,0-6.23-1.19c-.12.2-.24.4-.37.59s-.48.64-.74.95-.5.52-.76.77-.7.57-1.07.83c-.58.36-1.17.7-1.78,1-.86.4-1.74.77-2.64,1.1-.66.2-1.32.39-2,.54s-1.19.18-1.8.23c-1.82.09-3.66,0-5.48,0-1.6,0-3.2-.06-4.8-.15a33.57,33.57,0,0,1-3.46-.38c-.72-.16-1.42-.36-2.12-.59a57.12,57.12,0,0,1-6.05-2.65c-.61-.32-1.2-.67-1.77-1-.28-.2-.56-.41-.83-.64s-.53-.5-.79-.77a40.28,40.28,0,0,1-2.51-3.18l-.1-.14c-.29-.54-.65-1-.93-1.58-.73-1.48-1.39-3-2.07-4.53s-1.44-3.18-2.18-4.76c-1.58-3.44-3.2-6.86-4.89-10.25l0,.09-.3-.6.09.18-.65-1.3a4,4,0,0,0-.21-.41l.14.27-.14-.27h0l-2.07-4.13v0c-1.44-2.88-2.91-5.77-4.11-8.77a3.17,3.17,0,0,0-6.3.53,7.43,7.43,0,0,0,.84,2.87c.5,1.19,1,2.36,1.59,3.53,1.25,2.6,2.55,5.17,3.85,7.74.24.49.45,1,.74,1.48l.8,1.59-.12-.24.4.81-.06-.12.14.27h0v0c2.63,5.26,5,10.63,7.46,16a2.76,2.76,0,0,0-.39.18c-.29.19-.58.36-.87.52l-.5.21c-.35.11-.71.21-1.06.29l-1.1.14c-.44,0-.88,0-1.33,0s-.93-.11-1.39-.2c-.66-.16-1.31-.37-2-.59-1-.34-1.9-.72-2.83-1.13s-2.11-.9-3.15-1.39a35.59,35.59,0,0,0-4.57-2.31,9.05,9.05,0,0,0-2.72-.53,8.19,8.19,0,0,0-2,.27,28.3,28.3,0,0,0-3,1,29.82,29.82,0,0,1-3.08.84,64.27,64.27,0,0,1-7.3,1c-3.52.23-7,.18-10.57.18-3.7,0-7.41,0-11.11-.13a26.86,26.86,0,0,1-2.84-.35c-.74-.17-1.46-.37-2.18-.61-1.94-.74-3.79-1.65-5.65-2.57s-3.94-1.8-5.94-2.63a36.92,36.92,0,0,0-6.56-2.2,8.79,8.79,0,0,0-3.92,0,3.58,3.58,0,0,0-2.75,3.42,3.21,3.21,0,0,0,3.18,3.17h.18q-.74.47-1.5.87c-.25.12-.49.22-.73.32l-.36.1-.45.06c-.89,0-1.8,0-2.7,0a3,3,0,0,0-.84.13,2.82,2.82,0,0,0-1.16,0c-.89.16-1.77.32-2.67.4-1.76.1-3.52.08-5.28.08s-3.64,0-5.45-.13a36.72,36.72,0,0,1-4-.58,56.94,56.94,0,0,1-6-1.6,70,70,0,0,1-6.69-3,54.87,54.87,0,0,1-5-3,92.64,92.64,0,0,1-7.67-5.73c-2.21-2-4.33-4-6.4-6.08s-4.32-4.27-6.36-6.52a49.89,49.89,0,0,1-3.12-4.11c-.83-1.25-1.61-2.52-2.32-3.85a34.79,34.79,0,0,1-1.38-3.33c-.47-1.4-.89-2.81-1.22-4.24,0,0,0,0,0,.08,0-.17-.07-.35-.11-.52l0,.13c-.15-.84-.25-1.68-.32-2.53-.05-1.57,0-3.12.11-4.69.17-2.16.36-4.33.73-6.47a7.87,7.87,0,0,0,1.28-.91l0,.1h0l0-.1h0l.22.45-.07-.15c1.46,2.93,2.79,5.92,4.31,8.82.79,1.49,1.56,3,2.47,4.42a15.25,15.25,0,0,0,1.68,2.16,22.76,22.76,0,0,0,1.7,1.56q1.78,1.6,3.61,3.16c1.2,1.07,2.37,2.17,3.6,3.21s2.6,2.07,4,3a35.13,35.13,0,0,0,5.37,2.89c1.32.59,2.65,1.17,3.94,1.81a80.62,80.62,0,0,1,8.27,4.86,34.12,34.12,0,0,1,3,2.23c1.65,1.5,3.15,3.14,4.81,4.63a3.33,3.33,0,0,0,2.25.93,3.18,3.18,0,0,0,2.24-5.43c-1.72-1.54-3.28-3.25-5-4.79a42.62,42.62,0,0,0-6.09-4.34c-2.23-1.39-4.47-2.69-6.82-3.86-2-1-4.07-1.83-6.08-2.8-.65-.34-1.29-.71-1.92-1.1a58.89,58.89,0,0,1-5-3.88c-.66-.6-1.3-1.21-2-1.8s-1.57-1.32-2.35-2-1.33-1.23-2-1.84c-.39-.35-.77-.7-1.13-1.08-.17-.22-.34-.44-.5-.67a72.25,72.25,0,0,1-3.58-6.52l.06.14-.07-.16a2.12,2.12,0,0,1-.11-.21l.08.16c-1.06-2.17-2.05-4.37-3.12-6.53l-1-1.86a8.1,8.1,0,0,0,.35-1.55l.06-.12a7.32,7.32,0,0,0,.5-3.11,31.81,31.81,0,0,0-.38-3.89c-.06-.49-.14-1-.22-1.45a11.44,11.44,0,0,0-.57-5.48,13.29,13.29,0,0,0-.81-1.76c.11-.36.22-.72.34-1.08a24.19,24.19,0,0,1,1-2.34,21.64,21.64,0,0,1,1.12-1.91c.61-.88,1.3-1.72,2-2.54s1.51-1.61,2.23-2.44,1.54-1.8,2.31-2.71c1.37-1.55,2.84-3,4.33-4.42a55.16,55.16,0,0,0,4.42-4.62,12.75,12.75,0,0,0,2.84-5.93,43.36,43.36,0,0,0,.39-5.23,42.87,42.87,0,0,1,.54-4.52c.1-.4.2-.79.32-1.19s.34-.8.53-1.2a57.4,57.4,0,0,1,3-5,4.59,4.59,0,0,0,1-2.65,3.17,3.17,0,0,0-6.12-1.18c-.8,1.2-1.58,2.4-2.3,3.65a21.59,21.59,0,0,0-2.38,5.05,43.39,43.39,0,0,0-1.1,9.64c-.05.54-.1,1.08-.19,1.61-.06.25-.12.5-.2.75s-.21.52-.33.78l-.33.55c-.39.55-.8,1.07-1.23,1.58-1.67,1.82-3.5,3.46-5.25,5.2s-3.54,3.91-5.27,5.91c-1,1.11-2.05,2.18-3,3.35a26,26,0,0,0-2.61,3.79,26.33,26.33,0,0,0-1.14,2.4,6.73,6.73,0,0,0-4.59.29,11,11,0,0,0-2,0,8.59,8.59,0,0,0-4.76,2.27c-.05-.36-.11-.71-.14-1.07s0-.87,0-1.3a84.45,84.45,0,0,1,1.44-8.94,46.38,46.38,0,0,1,1.33-4.92l.49-1.39a1.21,1.21,0,0,0-.05.14l.12-.35,0,0v0l.4-1.17c0,.08,0,.15-.07.22a54,54,0,0,1,2.33-5.62c1-1.91,2.2-3.73,3.39-5.53l-.16.24.21-.31v0a45.13,45.13,0,0,1,2.82-3.81c.64-.69,1.32-1.35,2-2a35,35,0,0,1,3-2.41c3.64-2.37,7.56-4.27,11.22-6.59,1-.67,2.1-1.33,3.19-1.94s2.17-1.18,3.24-1.81c1.84-1.09,3.62-2.28,5.52-3.27,1.19-.58,2.4-1.13,3.53-1.82a32.72,32.72,0,0,0,3.22-2.21,18.16,18.16,0,0,0,2.36-2.1,15.32,15.32,0,0,0,1.38-1.85c.59-.84,1.24-1.65,1.87-2.45,1.05-1.37,2.14-2.72,3.24-4.06,2.35-2.87,4.59-5.84,7-8.64a81.62,81.62,0,0,1,6.4-6.62c1.72-1.49,3.51-2.9,5.27-4.35s3.42-2.88,5.15-4.29c3.73-3,7.55-5.9,11.51-8.62a111.11,111.11,0,0,1,10.47-6.19c3-1.46,6-2.77,9-4.14q2.43-1.12,4.9-2.18c1.75-.75,3.49-1.51,5.28-2.15a56.73,56.73,0,0,1,5.56-1.58,65.74,65.74,0,0,1,6.69-1.12,59.85,59.85,0,0,1,6.83.15,56.29,56.29,0,0,1,6.35.84c2.5.53,5,1.19,7.43,1.8,2.13.51,4.24,1.09,6.32,1.78.93.34,1.85.71,2.74,1.14.57.3,1.12.62,1.66,1l.74.56.18.16c-.11.13-.23.26-.34.4a46.94,46.94,0,0,0-2.78,4.2,77.17,77.17,0,0,0-4.58,9.08c-1.3,3-2.45,6-3.5,9.12a71.9,71.9,0,0,0-2.6,9.78c-.3,1.55-.45,3.14-.63,4.7s-.36,3.35-.48,5a3.31,3.31,0,0,0,.63,2.36,3.17,3.17,0,0,0,5.66-1.5,99.8,99.8,0,0,1,1.34-10.9,80.35,80.35,0,0,1,2.19-7.75,119.32,119.32,0,0,1,5.29-12.83,69.4,69.4,0,0,1,3.57-6.13,26.74,26.74,0,0,1,1.77-2.35c1.05-1.11,2.17-2.14,3.3-3.17a45.5,45.5,0,0,1,3.66-2.81c.68-.45,1.37-.87,2.09-1.25.32-.15.65-.29,1-.42,1.82-.61,3.69-1.06,5.54-1.55,2.55-.67,5.13-1.26,7.68-1.95a37.09,37.09,0,0,0,8.21-3.07,16.82,16.82,0,0,0,2-1.22,10.46,10.46,0,0,0,1.61-1.58,18.57,18.57,0,0,0,2.22-3.4c.54-1,1-2.08,1.66-3.08s1.19-1.91,1.79-2.86c1.23-1.9,2.5-3.78,3.77-5.66a98.34,98.34,0,0,1,6.24-8.16,31.59,31.59,0,0,1,2.31-2.32,88.88,88.88,0,0,1,7.38-5.55c1.39-.91,2.81-1.74,4.28-2.51,2.12-1,4.3-1.88,6.5-2.73s4.58-1.76,6.9-2.59l.46-.16c3.81-1.32,7.75-2.35,11.65-3.36,3.63-.94,7.29-1.75,11-2.51q5.82-1.17,11.68-2.15,2.87-.48,5.72-1a58,58,0,0,1,6-.93c1.85-.1,3.7-.1,5.55-.1h2.74c2.55,0,5.09-.08,7.64-.19,5.3-.21,10.61-.25,15.91.05a44.71,44.71,0,0,1,4.87.62A54.85,54.85,0,0,1,483,335c1.65.54,3.28,1.15,4.95,1.61,3.52,1,7.16,1.1,10.73,1.74.2,0,.39.1.59.15l.78.34.51.29c.21.15.42.31.62.48.4.38.79.77,1.17,1.18s.9,1.1,1.31,1.69c.16.24.3.48.44.73a1.11,1.11,0,0,1,.07.16,1.05,1.05,0,0,1,.05.19,2.54,2.54,0,0,1,0,.29c0,.54,0,1.08,0,1.62a27.9,27.9,0,0,1-.41,3,46.37,46.37,0,0,1-1.38,5,62.55,62.55,0,0,1-2.62,6.14,57.83,57.83,0,0,1-3.07,5.21c-1.63,2.35-3.41,4.58-5.13,6.86q-2.94,3.87-5.9,7.71c-2,2.59-4.08,5.14-6.06,7.74s-3.74,5.19-5.85,7.59l-.7.8.27-.31c-.87.93-1.78,1.82-2.72,2.67a60.64,60.64,0,0,1-5.17,4c-.81.51-1.63,1-2.47,1.42a79.9,79.9,0,0,1-8.53,3.49c-1.53.51-3.07,1-4.63,1.42s-3,.71-4.48,1.07a19.63,19.63,0,0,0-8.17,3.61,14.35,14.35,0,0,0-3.24,3.92c-.75,1.3-1.46,2.62-2.21,3.91-1.55,2.67-3.15,5.32-4.85,7.91-1.08,1.58-2.22,3.11-3.36,4.64a9.36,9.36,0,0,0-2-1.76,6.32,6.32,0,0,0-7.67.13,13.58,13.58,0,0,0-2,2,22.76,22.76,0,0,0-2.43,3.95,14.38,14.38,0,0,0-.27-1.64,9.55,9.55,0,0,0-.71-2,7.91,7.91,0,0,0-2.12-2.62,6.33,6.33,0,0,0-5.29-1,12.57,12.57,0,0,0-3.21,1.35,28.69,28.69,0,0,0-3.87,2.59c-1.41,1.14-2.75,2.36-4,3.63a15.76,15.76,0,0,0-3.74,5.32,14.53,14.53,0,0,0-1.16,5.68l-.23-.14c-.19-.14-.36-.28-.54-.43a13.31,13.31,0,0,0-3.37-2.7c-1.58-.72-3.24-.39-4.9-.24-.5,0-1,0-1.52,0a11.47,11.47,0,0,1-1.16-.14c-.78-.19-1.55-.45-2.31-.71l-.56-.22-.17-.1c-.12-.09-.24-.18-.35-.28s-.41-.39-.61-.6l-.18-.24a7.15,7.15,0,0,0,2,.54,5.49,5.49,0,0,0,.58,0,13.57,13.57,0,0,0,1.42-.11,23,23,0,0,0,4-.78,19.29,19.29,0,0,0,7.66-5.05,25.79,25.79,0,0,0,5.33-8.63,36.36,36.36,0,0,0,1.52-4.67,18.58,18.58,0,0,0,.49-4.58v-.69a3.21,3.21,0,0,0-3.18-3.18h-.25l-.23-.2a8.81,8.81,0,0,0-5.26-2c-.92,0-1.83.07-2.74.16a16.71,16.71,0,0,0-5.22,1.45,16.89,16.89,0,0,0-3.79,2.26c.5-1.09,1-2.16,1.57-3.23a104.94,104.94,0,0,1,5.88-10.12,72,72,0,0,1,4.83-6.3,82.24,82.24,0,0,1,5.94-5.87,87.46,87.46,0,0,1,7.4-5.59,78.65,78.65,0,0,0,7.26-5.33,35,35,0,0,0,3.37-3.3c1-1.13,2-2.33,2.92-3.53,1.85-2.37,3.73-4.72,5.71-7,3.88-4.39,7.94-8.67,12.24-12.66a67.55,67.55,0,0,1,5.35-4.19c1.1-.73,2.21-1.42,3.37-2.07,1-.48,2-.89,3-1.3a3.18,3.18,0,0,0-.52-6.31,9.53,9.53,0,0,0-3.35,1,29.27,29.27,0,0,0-4.69,2.5,51.54,51.54,0,0,0-7.85,6c-2.57,2.39-5,4.91-7.44,7.45-2.23,2.35-4.43,4.75-6.52,7.23-2.31,2.75-4.42,5.65-6.76,8.37-.8.88-1.62,1.72-2.49,2.51-4.86,4.18-10.58,7.23-15.37,11.53a84.28,84.28,0,0,0-7.1,7.17,68.86,68.86,0,0,0-6,8.28c-1.69,2.68-3.23,5.45-4.67,8.27a63.35,63.35,0,0,0-3.95,9.06,61.51,61.51,0,0,0-2.2,8.54,31.92,31.92,0,0,0-.35,4.37c-.05,1.64-.06,3.26.05,4.89a16.38,16.38,0,0,0,1.74,7.05,11.49,11.49,0,0,0,4.52,4.72,17.16,17.16,0,0,0,2.66,1,18.34,18.34,0,0,0,2.42.64,18.87,18.87,0,0,0,3.1.23,26.78,26.78,0,0,0,2.83-.24c.6.57,1.16,1.17,1.79,1.71a14.24,14.24,0,0,0,4.35,2.44,32.36,32.36,0,0,0,9.26,2.05c.89.06,1.78.1,2.66.1.7,0,1.4,0,2.1-.08a27.83,27.83,0,0,0,4.46-.62,36,36,0,0,0,9.16-3.86l.51-.31a10.46,10.46,0,0,0,2.77-.43,8,8,0,0,0,2.67-1.55,21.07,21.07,0,0,0,4.65-6.08,3.21,3.21,0,0,0,2.61-3.13c0-.23,0-.46,0-.69.36-.44.73-.87,1.08-1.32,1.92-2.44,3.79-4.93,5.53-7.51s3.41-5.36,5-8.09c1-1.7,1.89-3.46,2.95-5.12.14-.19.28-.38.43-.56l.6-.59c.26-.22.51-.43.78-.62l.55-.31c.82-.39,1.66-.73,2.51-1,1.38-.44,2.8-.73,4.21-1.06,1.56-.36,3.1-.78,4.64-1.23a79.76,79.76,0,0,0,9.48-3.5,49.13,49.13,0,0,0,4.65-2.32,39.06,39.06,0,0,0,4.25-3,46.71,46.71,0,0,0,7.38-7.09c2.06-2.49,3.88-5.15,5.86-7.7s4-5.07,6-7.64,3.9-5.08,5.82-7.63,3.72-4.79,5.4-7.32a50.21,50.21,0,0,0,3-5.24,60.84,60.84,0,0,0,6.46,1.07c2.86.32,5.74.4,8.61.48a43.74,43.74,0,0,0,9-.55c3-.54,6.06-1.26,9.09-1.91a219.47,219.47,0,0,1,28.07-3.74h-.05c7.79-.46,15.6-.52,23.41-.54,3.91,0,7.84,0,11.75-.05,4.12-.06,8.23-.33,12.34-.45,6.53-.18,13.06-.2,19.6-.22,6.17,0,12.36,0,18.53.31a154.42,154.42,0,0,1,16.27,2.51,144.62,144.62,0,0,1,16.05,4.59c3.73,1.35,7.41,2.83,11,4.53,3.82,1.81,7.56,3.76,11.4,5.53,3.53,1.63,7.12,3.15,10.64,4.81s7.34,3.26,11,5c1,.46,1.91.92,2.85,1.39,3.63,1.87,7.21,3.84,10.87,5.65s7.15,3.45,10.79,5.05a116.13,116.13,0,0,0,11.48,4.26c3.87,1.25,7.83,2.19,11.73,3.32,6.82,2,13.55,4.26,20.25,6.57a71.81,71.81,0,0,1,8,3.29c2,1.07,3.9,2.25,5.79,3.49a154.47,154.47,0,0,1,12.5,9.88c2.44,2.23,4.81,4.51,7,6.94,1.51,1.77,3,3.59,4.36,5.45s2.57,3.56,3.84,5.36c2.66,3.77,5.35,7.54,8,11.34,0,.08.1.16.16.24.23.34.45.71.69,1.05.34.62.8,1.18,1.14,1.76.61,1,1.2,2,1.78,3.05,1,1.75,1.93,3.56,2.88,5.35,1.86,3.51,3.75,7,5.64,10.51,2.23,4.14,4.46,8.27,6.59,12.46,2.11,4.34,4.18,8.7,6.33,13S875.77,511.7,878,516a94.66,94.66,0,0,1,3.91,8.95c1.08,3.1,2,6.24,2.82,9.43s1.49,6.27,2.14,9.42v0c0,.11,0,.23.08.34,0-.1,0-.2-.07-.29a95,95,0,0,1,1.24,9.67c.27,3.16.71,6.31.94,9.48.29,4.49.27,9,.3,13.5,0,4,.07,8-.1,11.93-.36-2-.73-4-1.13-6-.2-1-.41-2-.61-3.06v0c-.05-.43-.18-.85-.26-1.27s-.21-1-.32-1.53c-.21-1-.41-2-.63-2.95-.43-2-.87-4.05-1.29-6.09,0,0,0,.08,0,.12s0-.22-.07-.33v0a81.47,81.47,0,0,1-1.44-8.33,3.19,3.19,0,0,0-3.58-2.72,3.23,3.23,0,0,0-2.71,3.58c.15,1.65.46,3.27.77,4.9.35,1.86.72,3.71,1.1,5.57.69,3.34,1.43,6.67,2.13,10l0-.1c0,.12.05.25.08.37v0c.08.4.16.8.25,1.2q1.47,7.38,2.65,14.78c.36,2.29.61,4.6.93,6.89s.66,4.29.85,6.45c-.08.29-.14.59-.22.88a3.1,3.1,0,0,0,.34,2.44c0,.62,0,1.24,0,1.86a20.56,20.56,0,0,0,.59,5.86c.64,2.11,1.6,4.14,2.42,6.18.69,1.69,1.31,3.42,1.92,5.15a82.59,82.59,0,0,1,2.85,10,73.81,73.81,0,0,1,1.11,8.52,57.21,57.21,0,0,1,0,6.28c-.21,2.85-.74,5.64-1.13,8.47a51.54,51.54,0,0,0-.55,9.45,41.34,41.34,0,0,0,.57,5.2c.29,1.71.69,3.4,1.1,5.07.78,3.2,1.72,6.36,2.79,9.48s2.28,6.35,3.56,9.48c1.14,2.78,2.38,5.51,3.59,8.26,1.34,3,2.53,6.13,3.69,9.23,1,2.81,2,5.64,3.25,8.39a82.09,82.09,0,0,0,5.52,10.13c1,1.55,2,3.08,3,4.63s1.94,3.24,2.81,4.92c.38.79.74,1.58,1.06,2.39q.12.4.21.81c.06.33.11.66.14,1,0,.15,0,.29,0,.43s-.07.5-.11.74-.16.61-.25.92-.16.4-.25.59-.29.52-.45.77-.39.52-.6.78l-.48.49-.5.39c-.18.11-.36.22-.55.32s-.41.18-.62.26-.57.16-.85.23-.74.11-1.11.15c-.7,0-1.4,0-2.11,0l-.65-.08-.34-.09-.47-.2c-.42-.24-.84-.49-1.24-.75-1.22-.84-2.41-1.73-3.55-2.68-.84-.77-1.64-1.59-2.41-2.44a95.18,95.18,0,0,1-6.58-8.65,82,82,0,0,1-5-8.29,3.2,3.2,0,0,0-4.35-1.14,3.24,3.24,0,0,0-1.46,1.89,3.37,3.37,0,0,0,.32,2.45,81.35,81.35,0,0,0,4.88,8.13,93.65,93.65,0,0,0,5.54,7.58c1,1.24,2,2.48,3.17,3.62a34.63,34.63,0,0,0,3.84,3.32,23.62,23.62,0,0,0,4.16,2.72,11.31,11.31,0,0,0,4.63,1,3.26,3.26,0,0,0,.4,1.05c0,.14,0,.28,0,.41-.05.48-.12.95-.2,1.42-.18.81-.4,1.6-.65,2.39s-.58,1.48-.93,2.21c-.25.46-.52.91-.8,1.36s-.58.76-.89,1.13-.43.43-.65.64-.55.44-.84.65l-.78.46-.12.06c-.4.15-.79.35-1.18.51q-1.2.39-2.43.66c-1.08.2-2.17.35-3.28.45-.43,0-.85,0-1.28,0l-.91-.13c-.53-.12-1-.26-1.56-.43s-1-.4-1.51-.63l-.64-.37c0-.82-.05-1.63-.09-2.44a3.16,3.16,0,0,0-5-2.62c-.34-.41-.69-.83-1-1.27l-.36-.53c-.36-.55-.72-1.11-1.07-1.67-.74-1.2-1.48-2.39-2.19-3.6-1.38-2.3-2.64-4.66-3.93-7s-2.82-4.87-4.15-7.35a3.18,3.18,0,0,0-5.49,3.21c1.55,2.89,3.26,5.7,4.83,8.58,1.48,2.7,3,5.39,4.61,8,.4.64.79,1.28,1.2,1.92.21.34.42.67.64,1a13.21,13.21,0,0,0,.78,1.17l.24.34a33.94,33.94,0,0,0,3,3.46c.57.6,1.13,1.2,1.72,1.79,0,1,0,2,0,3,0,.47-.09.94-.17,1.41-.06.28-.13.54-.21.82-.21.54-.43,1.07-.68,1.6l-.39.66-.23.3c-.07.07-.13.15-.2.21l-.18.13-.43.25c-.34.15-.67.28-1,.41s-.75.21-1.13.29l-1,.14a28.92,28.92,0,0,1-3.09-.06,37.93,37.93,0,0,1-4.25-.52c-.63-.15-1.25-.31-1.86-.5s-1-.42-1.55-.66-1-.54-1.43-.84-.84-.63-1.24-1c-.62-.58-1.2-1.18-1.77-1.8-.78-.92-1.51-1.87-2.2-2.86s-1.12-1.82-1.61-2.76-.91-2.07-1.3-3.13-.7-2.38-1-3.59-.45-2.71-.59-4.08c-.18-3.17-.07-6.36,0-9.53s.16-6.6.17-9.9a110.78,110.78,0,0,0-1.11-18.74c-.37-2.17-.82-4.31-1.23-6.46s-.71-4.42-1.17-6.6c-.41-1.93-.84-3.84-1.41-5.72-.48-1.57-1.09-3.11-1.63-4.66l0,.13a36.38,36.38,0,0,1-1.24-4.18c-.17-.86-.34-1.72-.52-2.57v.06c-.48-2.36-.91-4.72-1.38-7.08a46.6,46.6,0,0,0-2-7.89,31.27,31.27,0,0,0-1.5-3.15c-.5-1-1-1.95-1.6-2.92-1.18-2-2.35-4.06-3.42-6.15-.43-.9-.82-1.81-1.17-2.75-.22-.7-.41-1.41-.57-2.12-1.14-6-1.61-12.07-2.25-18.1a92.49,92.49,0,0,0-1.45-10.09,55.64,55.64,0,0,0-3-9.25,68.39,68.39,0,0,0-4.06-8.51,43,43,0,0,0-5.57-7.18c-1.91-2.1-3.91-4.1-5.89-6.14s-3.89-4.21-5.79-6.35h0c-4.35-5-8.46-10.1-12.61-15.22-2.08-2.57-4.26-5.07-6.37-7.61-2-2.39-3.86-4.87-5.68-7.39q-3.59-4.95-7-10a139,139,0,0,1-8-13.5c-2.69-5.47-5-11.14-7.39-16.75s-4.57-11.36-6.6-17.14c-1-3.08-2.08-6.17-3.14-9.25s-2.05-6-3-9c-1-3.29-2-6.58-3.11-9.85-1-3-2.09-6-3.14-9-.21-.61-.41-1.23-.61-1.84a3.23,3.23,0,0,0-3.91-2.22,3.19,3.19,0,0,0-2.22,3.91c1,2.93,2,5.83,3,8.75,2.14,6.31,4,12.71,6.17,19,2.22,6.53,4.31,13.12,6.79,19.55s5.18,12.64,7.88,18.92a120,120,0,0,0,9.18,17.68c3.6,5.62,7.48,11.08,11.42,16.47,3.81,5.23,8.19,10,12.24,15.06,3.93,4.9,7.9,9.73,12.06,14.43,2,2.29,4.08,4.55,6.21,6.73s4.15,4.27,6.13,6.49a45.85,45.85,0,0,1,2.84,3.66c.63,1,1.21,2,1.77,3.06a93.31,93.31,0,0,1,3.86,9.24c.51,1.59,1,3.18,1.33,4.8.61,3.13,1,6.29,1.3,9.47.27,2.5.53,5,.8,7.52l-.09.15-1.7,3.06c-1.06,1.89-2.09,3.79-3.17,5.67-2.37,4.14-5,8.14-7.63,12.1-1.08,1.57-2.19,3.11-3.4,4.57s-2.45,2.92-3.7,4.37a54,54,0,0,1-4.26,4.3c-2.5,2.15-5.15,4.11-7.76,6.13s-5.21,3.95-7.92,5.79l.07,0-.07,0-.26.18L798,705a87.42,87.42,0,0,1-8.25,4.86c-1.75.86-3.54,1.66-5.35,2.38.16-1.29.38-2.56.63-3.84.59-2.8,1.23-5.58,1.8-8.39s1.15-5.74,1.44-8.66a75.77,75.77,0,0,0,.27-9c0-1.57-.08-3.15-.19-4.72a8.13,8.13,0,0,0-.43-2.35,3.19,3.19,0,0,0-2.15-1.93,3.23,3.23,0,0,0-3.91,2.22,3.17,3.17,0,0,0,.11,2l.06.63a95.81,95.81,0,0,1,.07,10.85,89.53,89.53,0,0,1-1.57,10.17l0-.1a2.21,2.21,0,0,1,0,.25l0,.16v-.07c-1,4.81-2.32,9.62-2.65,14.53a13.37,13.37,0,0,0,3.31,11.3c.63.83,1.25,1.67,1.84,2.53s1,1.62,1.46,2.47c.19.39.36.79.52,1.2s.19.71.28,1.07a37.88,37.88,0,0,1,.45,3.82q.07,1.09.06,2.19c0,.33-.07.65-.13,1a11,11,0,0,1-.33,1.12c-.83,2.28-1.82,4.52-2.78,6.75-.35.83-.65,1.69-.95,2.53-.15.43-.32.84-.49,1.26l-.17,0A3.2,3.2,0,0,0,778,753c-.55,1-1.06,2-1.57,3h0l0,0-.17.33,0-.08-2.9,5.77q-1.45,2.88-2.88,5.78a9.65,9.65,0,0,0-1.71-1.6,21.69,21.69,0,0,0-9.51-4,30.34,30.34,0,0,0-10.49.54,20.7,20.7,0,0,0-8.86,4.26,19.23,19.23,0,0,0-4.87,6,21.65,21.65,0,0,0-1.66,4.09,7.15,7.15,0,0,0-.23,2.3,7,7,0,0,0,.48,2.11,7.55,7.55,0,0,0,3.16,3.34,19.31,19.31,0,0,0,3.17,1.62,16.62,16.62,0,0,0,3.16,1.09,16.13,16.13,0,0,0,3.17.44h.58a22.29,22.29,0,0,0-5.45,7.71,19.38,19.38,0,0,0-8.9-3.27,32.69,32.69,0,0,0-5-.37,30.85,30.85,0,0,0-5.42.64,21.54,21.54,0,0,0-4.09,1.27c-.54.23-1.08.5-1.62.75a24.75,24.75,0,0,0-2.3,1.16,5.15,5.15,0,0,0-.91.74c-.7-1.09-1.35-2.2-2-3.35-.42-.86-.81-1.73-1.16-2.63-.19-.59-.36-1.18-.51-1.78s-.15-.94-.2-1.42v-.82c0-.45.11-.89.19-1.33s.22-.92.36-1.37.33-.85.52-1.26.51-.94.79-1.39c.49-.7,1-1.38,1.57-2,.79-.86,1.6-1.67,2.46-2.44.7-.6,1.42-1.17,2.17-1.71a18.6,18.6,0,0,0,1.09,2.19,31.74,31.74,0,0,0,5,6.28,3.2,3.2,0,0,0,4.49,0,3.19,3.19,0,0,0,0-4.49c-.51-.53-1-1.06-1.49-1.61-.68-.8-1.33-1.62-1.93-2.48-.38-.61-.75-1.23-1.09-1.87l-.24-.57c0-.14-.08-.28-.11-.42s-.06-.37-.08-.56a2.54,2.54,0,0,1,0-.39,11.79,11.79,0,0,1,.19-1.19c.12-.53.25-1,.41-1.55.08-.19.16-.38.25-.57a6.11,6.11,0,0,1,.38-.65c.42-.58.87-1.14,1.34-1.68.25-.28.51-.55.79-.81l.49-.37c.74-.47,1.51-.89,2.28-1.29.38-.18.76-.35,1.16-.51s1-.29,1.52-.41c3-.57,6-1,8.94-1.49,1.57-.28,3.14-.54,4.72-.73.92-.11,1.82-.2,2.72-.36h0a3.18,3.18,0,0,0,0-6.36,6.64,6.64,0,0,0-1.34.17c-1.2.21-2.42.27-3.62.44-1.67.24-3.32.54-5,.82-2.93.5-5.94.81-8.82,1.56,0-.43-.08-.87-.15-1.3a18.69,18.69,0,0,0-.85-3.39,31.93,31.93,0,0,0-4-8.13,39.55,39.55,0,0,0-2.77-3.43c-1-1.19-2.1-2.36-3.23-3.46a33.69,33.69,0,0,0-3.69-3.15c-1.28-.92-2.61-1.77-3.94-2.61s-2.67-1.64-4.05-2.39-2.56-1.42-3.78-2.22a48.28,48.28,0,0,1-3.9-2.92c-.3-.28-.58-.56-.85-.85s-.53-.66-.77-1-.5-.84-.73-1.28c-.42-.9-.78-1.82-1.13-2.76a64,64,0,0,1-2-7c-.61-3.16-1-6.39-1.36-9.59s-.66-6.6-.89-9.9c-.17-2.88-.29-5.77-.33-8.65,0-3.09,0-6.28-.79-9.29a17.58,17.58,0,0,0-1.84-4.16,20.85,20.85,0,0,0-2-2.66c-1.77-2.14-3.49-4.32-5-6.61A111,111,0,0,1,674.54,648a106.67,106.67,0,0,1-4.08-10,55.69,55.69,0,0,1-1.6-5.86A102.47,102.47,0,0,1,667,619.74a66.89,66.89,0,0,1-.06-7.22l0-.3a2.71,2.71,0,0,0,.09-.41,3.23,3.23,0,0,0-.64-2.38,3.18,3.18,0,0,0-4.45-.57,3.68,3.68,0,0,0-1.26,2.23,13.43,13.43,0,0,0-.14,1.68c-.08,1.53-.08,3.06,0,4.58a70.84,70.84,0,0,0,1,9.85c.36,2.17.73,4.37,1.19,6.53-.38-.19-.76-.39-1.17-.56a29,29,0,0,0-3.27-1.06,49.63,49.63,0,0,0-6.5-1.34c-2.08-.32-4.16-.56-6.23-1l.17,0-.2,0-.21,0,.18,0c-1.41-.3-2.83-.61-4.25-.87s-2.88-.42-4.32-.65-2.94-.45-4.42-.61c-.69-.07-1.39-.14-2.08-.19-.25,0-.51-.05-.77-.06a20,20,0,0,0-2-.11c-2.85-.16-5.7-.17-8.55-.19-4.71,0-9.42,0-14.13.07-2.64.07-5.27.12-7.9.3-2.33.16-4.64.42-7,.59-2.6.16-5.22.27-7.83.43s-5.41.31-8.13.39c-2.87.08-5.75.12-8.62.15-2.7,0-5.39,0-8.09-.18l-.4,0-1.61-.11c-4-.28-8-.82-12-1.26s-8.24-.71-12.31-1.46c-1.16-.25-2.31-.54-3.44-.89a3,3,0,0,0-2.54.41l.06-.17c.8-3.18.48-6.56.1-9.78a71.08,71.08,0,0,0-1.75-9.36,23.15,23.15,0,0,0-2.68-6.65,6.29,6.29,0,0,0-2.1-2.13,5.33,5.33,0,0,0-2.56-.69c-.34,0-.68,0-1,0a3.18,3.18,0,1,0,0,6.35h.4l.39.71c.29.65.56,1.3.81,2a44.72,44.72,0,0,1,1.25,4.71,78,78,0,0,1,1.22,8.48,28.61,28.61,0,0,1,0,3.34c0,.38-.09.75-.16,1.13l-.18.65-.23.54c-.09.17-.2.35-.3.52s-.14.19-.22.28l-.27.26a3.3,3.3,0,0,1-.3.22l-.37.22a25,25,0,0,1-2.35.94c-1.46.5-2.92,1-4.4,1.4s-3,.82-4.48,1.28a3.21,3.21,0,0,0-2.22,3.91,3.25,3.25,0,0,0,3.07,2.34,3,3,0,0,0,.84-.12c2.86-.89,5.76-1.62,8.6-2.58a21.23,21.23,0,0,0,5.32-2.45,7.66,7.66,0,0,0,2.06-2.18,3.29,3.29,0,0,0,2.29,2.59c4.84,1.5,9.91,1.85,14.93,2.34,2.5.25,5,.57,7.49.87s4.91.48,7.38.65l1,.06c3.16.21,6.31.25,9.49.22s6.67-.09,10-.22c3.1-.12,6.18-.34,9.27-.5s6.25-.35,9.38-.63c1.16-.11,2.33-.22,3.5-.3,2.69-.15,5.39-.18,8.09-.24,2.42,0,4.85-.06,7.29,0,5,0,10.12,0,15.17.27H629l.46,0-.43,0c2.1.14,4.18.41,6.26.73s4.17.58,6.24,1,4.15.89,6.25,1.19,4.07.55,6.09.93a46.92,46.92,0,0,1,4.68,1.29q.63.24,1.23.51t1,.6q.79.56,1.53,1.17l.4.39.15.18a1.43,1.43,0,0,0,.08.22,4.92,4.92,0,0,0,1.47,2.34,2.94,2.94,0,0,0,1.78.64c.18.47.36.93.55,1.39a86,86,0,0,0,7.66,14.36c1.4,2.16,2.84,4.28,4.42,6.3l2.23,2.79c.51.63,1.07,1.22,1.55,1.88.24.38.46.77.67,1.17.27.56.52,1.14.74,1.72.07.24.13.47.19.71.15.82.24,1.66.31,2.49.16,2.83.11,5.68.21,8.51q.16,4.53.55,9c.27,3.16.6,6.29,1,9.43a88.88,88.88,0,0,0,1.52,9,49.82,49.82,0,0,0,2.74,8.33,17.21,17.21,0,0,0,5.35,6.89,52.8,52.8,0,0,0,7,4.65q3.6,2,7,4.25c.91.63,1.78,1.29,2.63,2a54.58,54.58,0,0,1,4.19,4.28c1,1.11,1.89,2.23,2.74,3.43.48.73.91,1.48,1.32,2.26a36.28,36.28,0,0,1,1.52,3.64c.18.54.35,1.09.48,1.65a19.62,19.62,0,0,1,.28,2c0,.71.06,1.41.08,2.12a14.58,14.58,0,0,0-2.56,2.35,17.76,17.76,0,0,0-2.43,3.41,13,13,0,0,0-1.11,3.15,2.9,2.9,0,0,0-.53.26,14.45,14.45,0,0,0-3,1.66,39.35,39.35,0,0,0-3.85,3.2,22,22,0,0,0-5.81,8.44,17.89,17.89,0,0,0-1,5.42,15.35,15.35,0,0,0,.78,4.79,27.33,27.33,0,0,0,2.16,5,40.14,40.14,0,0,0,2.55,4.15,14.56,14.56,0,0,0,2.78,3,2.74,2.74,0,0,0,1.16.57l.06.14c1.39,3,4.15,4.94,7.08,6.3a23.13,23.13,0,0,0,4.37,1.46c.71.17,1.43.29,2.15.39a14,14,0,0,0,2.06.19l.76,0c.44,0,.88,0,1.33,0,1,0,1.91,0,2.86-.06,1.55,0,3.1-.12,4.64-.26a69.75,69.75,0,0,0,9.74-1.54,28.13,28.13,0,0,0,15.72-9.59,28.5,28.5,0,0,0,2.74-4.05,33.1,33.1,0,0,0,1.89-4.31c.37-1,.69-2,1-3.06a3.08,3.08,0,0,0,1.24-.1,3.42,3.42,0,0,0,2.53-3.25,3.2,3.2,0,0,0-1.7-2.79c.62-1.84,1.15-3.7,1.76-5.54.53-1.48,1.13-2.91,1.8-4.33.86-1.79,1.7-3.58,2.57-5.36l-.11.22.12-.24.06-.13-.06.12q1.5-2.94,3-5.89l0,.06q1.22-2.42,2.42-4.83a3,3,0,0,0,.41,0,3.22,3.22,0,0,0,3-1.93c.55-1.33,1.14-2.65,1.63-4,.31-.85.59-1.7,1-2.54s.74-1.77,1.12-2.66c.63-1.5,1.29-3,1.82-4.56a14.3,14.3,0,0,0,.79-5.23,44.07,44.07,0,0,0-.36-4.43,18.47,18.47,0,0,0-1.17-4.61,23.25,23.25,0,0,0-2-3.62c-1.09-1.68-2.37-3.23-3.53-4.86-.11-.17-.22-.35-.32-.53s-.12-.27-.17-.4a51.51,51.51,0,0,0,8.28-3.5,86.39,86.39,0,0,0,8.46-5c2.74-1.83,5.38-3.77,8-5.79s5.22-3.93,7.72-6c1.22-1,2.38-2.1,3.5-3.22,1.28-1.26,2.43-2.65,3.59-4A90.62,90.62,0,0,0,830,683.9c2-2.87,3.85-5.79,5.71-8.74,1.21-1.91,2.32-3.88,3.42-5.85,0,.23.08.48.14.71a32.18,32.18,0,0,0,3.6,8.78c1.35,2.4,2.78,4.75,4,7.21.37.75.73,1.51,1,2.3a56.77,56.77,0,0,1,1.51,6.21c.51,2.6,1,5.2,1.52,7.79a46.89,46.89,0,0,0,1.31,5.35c.44,1.33.94,2.65,1.42,4a65.08,65.08,0,0,1,2,7.4c.29,1.52.53,3,.79,4.56s.58,3.11.88,4.66a82.3,82.3,0,0,1,1.36,9.5c.37,6.29.26,12.59.15,18.88-.07,3.29-.12,6.57-.09,9.85A37.36,37.36,0,0,0,860,776a32.08,32.08,0,0,0,3.89,9.06,30.31,30.31,0,0,0,6.34,7.3,18.39,18.39,0,0,0,3.93,2.4,23.32,23.32,0,0,0,5,1.49,41.5,41.5,0,0,0,5.33.55c.47,0,.94,0,1.41,0a19.43,19.43,0,0,0,3.94-.39,13.49,13.49,0,0,0,4.19-1.68,10.41,10.41,0,0,0,3.92-5.18,16.87,16.87,0,0,0,1-3.42c0-.32.08-.64.12-1a15.49,15.49,0,0,0,5,.95h.23a26.87,26.87,0,0,0,9.87-2c.22-.1.44-.21.65-.33a15.45,15.45,0,0,0,4-3,20.68,20.68,0,0,0,4.55-8.68,16.68,16.68,0,0,0,.71-4.64,8.1,8.1,0,0,0-.25-2.19,10.88,10.88,0,0,0,3.49-2.36,12.83,12.83,0,0,0,3.74-8.55c.07-2.9-1.13-5.56-2.43-8.08-1.4-2.71-3.06-5.24-4.71-7.8a95,95,0,0,1-4.89-8.33,82,82,0,0,1-3.46-8.21c-1.1-3-2.22-6-3.42-9s-2.49-5.58-3.68-8.39c-1.26-3-2.47-6-3.58-9-.19-.52-.37-1-.55-1.55a117.73,117.73,0,0,1-3.87-13.68,44,44,0,0,1-.67-4.86,44.88,44.88,0,0,1,0-4.64c.22-2.84.66-5.64,1.1-8.46a52.39,52.39,0,0,0,.61-9.19,67.13,67.13,0,0,0-2.79-17.92q-1.2-4-2.65-7.89c-1-2.68-2.17-5.29-3.15-8-.06-.2-.11-.4-.16-.6-.08-.46-.13-.93-.17-1.4-.13-2.28-.07-4.56-.17-6.84.81-3.29,1.36-6.66,1.9-10a105.56,105.56,0,0,0,1.35-11.61c.19-3.85.12-7.72.1-11.58s0-7.78-.16-11.67c-.13-3.57-.55-7.1-.92-10.65s-.6-7.36-1.25-11c-.7-3.93-1.66-7.84-2.6-11.72A93.91,93.91,0,0,0,887,520.63a99.52,99.52,0,0,0-4.53-9.71c-1.7-3.3-3.4-6.61-5.07-9.93l.06.11-.08-.16-.06-.11,0,.09q-2.7-5.44-5.33-10.93c-1.71-3.54-3.53-7-5.38-10.48q-2.94-5.47-5.89-10.93c-1.87-3.49-3.65-7-5.6-10.46-.53-.92-1.07-1.83-1.62-2.75-.27-.43-.55-.85-.82-1.29l-.43-.65c-.27-.47-.62-.91-.91-1.35l0-.05-.06-.09q-1.78-2.56-3.59-5.11c-2.25-3.16-4.45-6.37-6.72-9.51a86.33,86.33,0,0,0-7.7-9.56c-3-3.1-6.2-6-9.5-8.79-3.08-2.6-6.29-5-9.58-7.35a57.2,57.2,0,0,0-10.71-5.89c-3.36-1.42-6.87-2.5-10.33-3.67s-6.75-2.25-10.15-3.31-7.09-2.13-10.67-3.09c-3.38-.91-6.7-1.94-10-3.06-3-1.07-6-2.34-8.91-3.67s-5.91-2.73-8.82-4.17c-3.6-1.85-7.15-3.81-10.78-5.61s-7.51-3.45-11.27-5.18c-3.6-1.66-7.19-3.32-10.81-4.92-3.82-1.7-7.55-3.55-11.3-5.41a131.39,131.39,0,0,0-22.36-8.53,116.18,116.18,0,0,0-12.08-2.8c-4.18-.73-8.36-1.45-12.6-1.83-4.09-.36-8.22-.33-12.33-.36-3.92,0-7.84,0-11.76,0s-8,0-12.06.12c-4.18.1-8.35.29-12.52.44s-8.15.12-12.23.13-8,0-12,.08c-7.83.11-15.65.45-23.44,1.28-4.69.5-9.37,1.22-14,2S534,356,529.41,357l.11,0-.12,0-.29.06.28,0a37.9,37.9,0,0,1-4,.55,94.09,94.09,0,0,1-10.35-.19,63.24,63.24,0,0,1-6.87-.88,42,42,0,0,0,1.8-6.18,29.73,29.73,0,0,0,.65-4.69,11.23,11.23,0,0,0-.6-4.78,14.27,14.27,0,0,0-2.48-3.73,16,16,0,0,0-3.65-3.36,12.3,12.3,0,0,0-2.78-1.28,18.7,18.7,0,0,0-3.32-.63c-2.14-.28-4.29-.51-6.42-.89-2.84-.63-5.55-1.69-8.32-2.56a42.55,42.55,0,0,0-10.14-1.79c-3-.17-6.09-.2-9.15-.22-2.82,0-5.64.13-8.46.23s-5.83.13-8.75.15c-1.69,0-3.37,0-5.06,0a40.88,40.88,0,0,0-5.05.58c-1.49.26-3,.57-4.46.84s-3.26.56-4.88.84c-3.25.55-6.48,1.16-9.71,1.79-3.9.77-7.8,1.63-11.66,2.62-4.35,1.12-8.7,2.27-12.94,3.73-3,1-5.88,2.18-8.8,3.31a53.07,53.07,0,0,0-8.27,3.84,82,82,0,0,0-7.7,5.36c-1.18.91-2.35,1.85-3.44,2.86a34.35,34.35,0,0,0-3.4,3.73c-1.39,1.73-2.76,3.5-4.08,5.29s-2.48,3.61-3.69,5.43-2.25,3.42-3.33,5.16-1.78,3.44-2.84,5.07c-.25.37-.52.72-.8,1.07l-.25.25-.23.18c-.54.35-1.1.65-1.67.95-.91.44-1.83.82-2.77,1.17-2.43.81-4.92,1.43-7.41,2s-4.75,1.19-7.1,1.87c-1,.28-1.93.55-2.87.89a17.22,17.22,0,0,0-3.1,1.54,40.67,40.67,0,0,0-5.68,4.26,2.93,2.93,0,0,0-.43-.36,19.9,19.9,0,0,0-6.73-3.74c-2.73-1-5.5-1.68-8.3-2.37-3.33-.81-6.62-1.68-10-2.18a75.74,75.74,0,0,0-9.15-.62,45,45,0,0,0-9.18,1.13,51.42,51.42,0,0,0-8.09,2.28c-3.08,1.13-6.09,2.5-9.07,3.86l-8.09,3.69A100.83,100.83,0,0,0,229.8,403c-2.6,1.86-5.13,3.81-7.62,5.81-2.31,1.86-4.56,3.8-6.85,5.67a87.73,87.73,0,0,0-7.08,6.12c-2.14,2.17-4.19,4.44-6.15,6.77-1,1.23-2,2.5-3,3.75s-1.76,2.16-2.64,3.24q-2.4,2.92-4.69,5.92c-.43.56-.82,1.16-1.21,1.75l-.21.27-.61.61-.12.12-.28.22a24.64,24.64,0,0,1-2.41,1.79c-.76.5-1.54.95-2.36,1.38-1.26.62-2.53,1.23-3.75,1.95s-2.42,1.48-3.63,2.21-2.78,1.55-4.16,2.34-2.6,1.63-3.91,2.41-2.49,1.4-3.72,2.12l-4,2.3a37.7,37.7,0,0,0-3.69,2.41,43.29,43.29,0,0,0-3.56,3.07,26.23,26.23,0,0,0-3.57,4.23c-1.12,1.6-2.19,3.24-3.23,4.89a47.59,47.59,0,0,0-4.6,10l-.45,1.28.06-.15a46.47,46.47,0,0,0-2,7.06c-.51,2.6-1,5.22-1.34,7.85A18.65,18.65,0,0,0,139.62,507.94Zm377.94,118-.09.07,0,0Zm222,177c.14.21.26.42.39.63a4.51,4.51,0,0,0,.1.53,4.69,4.69,0,0,0,.61,1.3c0,.14,0,.27.07.42a1.59,1.59,0,0,0,.06.3c-1.49.22-3,.4-4.49.51a68.1,68.1,0,0,1-8,.16,24.71,24.71,0,0,1-2.57-.32,20.51,20.51,0,0,1-2.17-.6c-.67-.24-1.31-.49-1.95-.79s-1.09-.61-1.62-.95c-.28-.2-.56-.41-.82-.63l-.31-.31c-.11-.14-.22-.27-.32-.41s-.19-.31-.28-.46-.19-.42-.27-.63-.11-.37-.16-.56a37.91,37.91,0,0,1,3.56-1.6,21,21,0,0,1,2-.54c1.07-.19,2.15-.34,3.23-.44a23.82,23.82,0,0,1,2.39,0,36.78,36.78,0,0,1,4,.53,21.67,21.67,0,0,1,2.2.59c.33.12.65.26,1,.4s.74.41,1.1.63l.69.53c.24.23.47.46.69.7S739.35,802.58,739.59,802.92Zm7.31-3.64c.25-.65.53-1.28.83-1.91s.75-1.32,1.16-2c.3-.42.61-.82.94-1.23s1-1,1.48-1.5,1.16-.92,1.77-1.35.94-.57,1.43-.84c.67-.32,1.36-.61,2.06-.87s1.16-.34,1.75-.49c.76-.14,1.51-.25,2.28-.34s1.38,0,2.07,0c-.22.69-.45,1.39-.68,2.07a35.52,35.52,0,0,1-1.38,3.31c-.35.64-.72,1.26-1.11,1.87-.64.91-1.31,1.79-2,2.63-.4.43-.81.84-1.24,1.24a29,29,0,0,1-2.33,1.81c-.82.53-1.65,1-2.52,1.48s-1.83.83-2.77,1.18l-1.42.43a3,3,0,0,0-.79-2.5c0-.1,0-.2-.09-.31l0-.06c.05-.35.09-.7.15-1C746.57,800.35,746.72,799.82,746.9,799.28Zm17.79-25.62a3.19,3.19,0,0,0,2,2.94c-.58,1.74-1.09,3.49-1.68,5.22-.09.27-.18.55-.28.82a20.44,20.44,0,0,0-4.06-.2,19.87,19.87,0,0,0-2.18.22,3,3,0,0,0-.23-1.36,3.21,3.21,0,0,0-4.16-1.7c-1.17.48-2.34.92-3.53,1.34-.66.21-1.33.4-2,.55-.47.09-.94.15-1.41.2s-.76,0-1.14,0l-.81-.11c-.55-.13-1.09-.28-1.64-.46-.72-.27-1.43-.58-2.14-.91a16.81,16.81,0,0,1-1.59-.92l-.23-.17-.1-.1,0-.18c.07-.26.15-.52.23-.78.2-.51.42-1,.65-1.52s.56-1,.86-1.49.76-1,1.16-1.52,1-1,1.5-1.49c.38-.3.76-.6,1.15-.88s.85-.53,1.29-.78c.64-.31,1.28-.58,1.94-.83.83-.25,1.66-.46,2.5-.64,1.31-.22,2.61-.38,3.92-.48.7,0,1.39,0,2.09,0a21.93,21.93,0,0,1,2.28.32c.6.15,1.19.32,1.77.5s1.37.53,2,.83,1.12.63,1.66,1l.81.62A3.18,3.18,0,0,0,764.69,773.66Zm126.44,15.23,0,0L891,789ZM370.3,434.41c0-.3,0-.6,0-.9s.1-.82.16-1.22c.17-.77.38-1.52.61-2.27.37-1,.79-2,1.25-2.91q.6-1.14,1.29-2.22c.26-.37.54-.73.83-1.09s.43-.43.66-.64.53-.43.8-.63c.45-.3.91-.57,1.38-.83s1.14-.53,1.74-.76l1.32-.36c.66-.1,1.31-.18,2-.24h.9c.14,0,.27,0,.4,0l.22.06.2.08.3.18.38.28a3.25,3.25,0,0,0,1.14.55c-.06.47-.14.94-.23,1.41-.22.88-.48,1.73-.76,2.59-.44,1.18-.92,2.33-1.45,3.47a28,28,0,0,1-1.4,2.44c-.4.54-.8,1.06-1.24,1.57s-.8.84-1.23,1.24a21.87,21.87,0,0,1-1.88,1.45c-.43.28-.86.53-1.3.77l-.82.35c-.34.1-.68.19-1,.27-.86.16-1.73.3-2.6.38h-.18l-.12-.05-.49-.29L371,437,371,437l0,0a1,1,0,0,1-.08-.14l-.18-.42q-.13-.47-.24-.93C370.39,435.1,370.34,434.76,370.3,434.41Zm32.89,4.14c0,.39,0,.77,0,1.15-.07.71-.17,1.4-.29,2.1-.23,1.05-.51,2.08-.83,3.1-.18.45-.36.89-.55,1.34s-.41.75-.63,1.12-.65.89-1,1.32c-.27.28-.53.56-.81.82s-.73.58-1.11.85-.64.4-1,.59l-.27.12h-.36a3,3,0,0,0-1.08.2c-.33-.08-.66-.17-1-.27s-.92-.4-1.36-.61c-.23-.13-.46-.26-.68-.4l-.43-.33-.11-.11-.12-.15,0-.06-.08-.17v-.05c0-.1,0-.21-.05-.31a1.77,1.77,0,0,1,0-.23q0-.37.09-.75c.12-.53.27-1,.43-1.56.14-.35.28-.69.44-1s.33-.6.51-.89.39-.49.59-.74q1.56-1.65,3.25-3.16c.84-.7,1.69-1.37,2.58-2,.66-.43,1.33-.84,2-1.23.35-.17.69-.33,1-.48l.12,0,.18,0h0l.18.32v0l0-.08c0,.05.05.11.07.17s.1.33.14.51S403.16,438.24,403.19,438.55Zm15.95.12-.28.5q-2.49,2.73-5.21,5.23c.08-.26.14-.52.22-.77a29.31,29.31,0,0,1,1.12-2.72c.43-.81.88-1.59,1.36-2.37a16.12,16.12,0,0,1,1.07-1.43l.25-.26.1-.08.06,0h0l.18.11.33.25.41.39.17.22.08.14,0,.07,0,.12a2,2,0,0,1,0,.24C419.13,438.41,419.13,438.54,419.14,438.67ZM326,626.23l-.62.31a19.47,19.47,0,0,0-4.07,3.1,17.61,17.61,0,0,0-2.89,3.75l-.06-.21c-.13-.75-.19-1.5-.25-2.26a2.82,2.82,0,0,0-1.12-2,2.7,2.7,0,0,0,.33-.78,1.06,1.06,0,0,1,0-.19c.11-.27.22-.54.35-.81s.18-.31.27-.47c.81,0,1.62,0,2.43-.07,1.48-.07,3-.17,4.44-.29Zm14.84,3.19c0,.85,0,1.71-.05,2.57,0,.38-.08.75-.14,1.13s-.21.8-.33,1.19-.35.87-.55,1.29a21.74,21.74,0,0,1-1.14,1.93c-.28.4-.58.79-.89,1.18-.19.2-.38.4-.59.59s-.66.52-1,.77q-.78.51-1.59,1l-.52.21-.74.2c-1.16.23-2.32.49-3.47.74a35.49,35.49,0,0,1-4,.51l-.36,0h-.21c-.5,0-1,.06-1.5.06h0l-.19-.08-.3-.18-.2-.15,0,0,0,0s0-.08-.07-.13-.16-.37-.23-.56l-.09-.32c0-.11,0-.22-.05-.33v-.62c0-.24.06-.47.1-.7s.18-.72.29-1.08.35-.86.55-1.29.43-.76.66-1.14.72-1,1.11-1.46.63-.66,1-1,.88-.74,1.35-1.08,1-.6,1.5-.88a35.82,35.82,0,0,1,3.31-1.42c.71-.23,1.43-.44,2.16-.61a24.6,24.6,0,0,1,2.58-.34A35.13,35.13,0,0,1,340.79,629.42Zm1.91,21.12a3.22,3.22,0,0,0-2.33,2.7v0l-.15.92c-1.35.07-2.68.09-4,0l-1.12-.12h0l-.17-.1c.36-.38.72-.75,1.11-1.11.23-.19.46-.38.7-.55a9,9,0,0,1,.79-.46c.27-.13.56-.25.84-.36q1.5-.47,3-.81l1-.13h.16Zm-15.14-1.43-.19-.19c1.43-.14,2.84-.39,4.25-.67-.45.41-.89.83-1.31,1.29a12.28,12.28,0,0,0-.87,1C328.8,650.11,328.17,649.62,327.56,649.11Zm7.64-34.31-.37.18c1.16-.57,2.33-1.1,3.51-1.6,0,.1-.08.21-.13.31-.15.29-.32.56-.49.84s-.57.78-.88,1.16-.66.69-1,1-.54.44-.82.65-.77.46-1.17.67c-.56.26-1.12.5-1.69.72a24.67,24.67,0,0,1-2.52.68,38.86,38.86,0,0,1-4,.48c1.62-.95,3.24-1.92,4.93-2.76Z"/><path class="cls-7" d="M142.92,484c0,.1-.07.2-.1.29a1,1,0,0,1,0,.1Z"/><path class="cls-7" d="M555.39,635.08l.37,0h.06Z"/><path class="cls-7" d="M367,613.27l-.32.07-.09,0Z"/><path class="cls-7" d="M383.79,623.89c-.06-.32-.11-.64-.14-1s0-.48,0-.72l.09-.68s0-.11.05-.16a3.18,3.18,0,0,0,.71-2,3.08,3.08,0,0,0-.49-1.67,3.15,3.15,0,0,0-.24-1,7.8,7.8,0,0,0-1-1.86,5.34,5.34,0,0,0-1.64-1.35,8.64,8.64,0,0,0-2-.79,12.56,12.56,0,0,0-4.36-.35c-1.47.08-2.93.26-4.39.46-1.25.17-2.5.3-3.74.55a20.29,20.29,0,0,0-7.74,3.47,21.8,21.8,0,0,0-3.23,3.14c-1.06,1.2-2.08,2.42-3.05,3.69a22.86,22.86,0,0,0-2.29,3.68,9.54,9.54,0,0,0-.83,2.37,8.93,8.93,0,0,0-.13,2,41.46,41.46,0,0,0,.67,8.55,27.77,27.77,0,0,0,1.42,4.27,12.49,12.49,0,0,0,1.32,2.54,7,7,0,0,0,3.77,2.73,13.55,13.55,0,0,0,3.8.41h1c1.33,0,2.66,0,4-.1a61.58,61.58,0,0,0,9.26-1.38,17.57,17.57,0,0,0,8.52-5.07,13.45,13.45,0,0,0,2.58-3.67,12,12,0,0,0,1-4.12,15.22,15.22,0,0,0-.14-4.21,13.26,13.26,0,0,0-1.37-3.52c-.27-.56-.53-1.13-.75-1.72C384.22,625.57,384,624.74,383.79,623.89Zm-3.34,9.61c0,.48,0,1,0,1.45s-.09.82-.16,1.24-.17.64-.27,1l-.21.47-.33.54c-.16.21-.32.42-.49.62-.32.34-.64.67-1,1-.56.48-1.15.94-1.75,1.37-.41.25-.82.5-1.24.72s-.64.29-1,.42-.89.25-1.34.35a66.33,66.33,0,0,1-7.15,1.09,59.83,59.83,0,0,1-6.28.12l-.62-.08-.27-.07-.22-.09h0l0,0h0l-.09-.12c-.11-.18-.21-.36-.31-.54-.39-.85-.72-1.71-1-2.58-.17-.53-.33-1.06-.45-1.61a27.08,27.08,0,0,1-.36-3.12,39.27,39.27,0,0,1-.13-4.6.77.77,0,0,1,0-.15l.06-.19c.09-.23.19-.46.3-.68.32-.59.65-1.17,1-1.73a47.61,47.61,0,0,1,3-3.78,27.94,27.94,0,0,1,2-2.09c.36-.3.73-.58,1.11-.86s.89-.54,1.36-.79,1.19-.53,1.81-.76a15.12,15.12,0,0,1,1.5-.42h0l.09,0h0c1.09-.19,2.19-.31,3.29-.45s2.41-.32,3.62-.42c.54,0,1.07,0,1.61,0l.61.08c.22,0,.43.11.65.18l.06,0,0,.09a11.19,11.19,0,0,0-.56,4.12,21.47,21.47,0,0,0,2.6,8.49l-.09-.18c.17.34.33.7.47,1.06l.06.24C380.39,633,380.42,633.24,380.45,633.5Z"/><path class="cls-7" d="M241.68,266.79a20.09,20.09,0,0,0-1.14-5.38,10.69,10.69,0,0,0-4.64-5.79c.06-.58.11-1.16.14-1.74a18,18,0,0,0,0-2.32c-.08-1.39-.39-2.81-1.71-3.55a3.22,3.22,0,0,0-3.85.5,3.29,3.29,0,0,0-1,2.31,3.21,3.21,0,0,0,.19,1.07c0,.56,0,1.12,0,1.68a22.77,22.77,0,0,0-3.69-.2c-1.75,0-3.49.2-5.23.4l-.56.08c-.12-.69-.25-1.37-.36-2.06-.4-2.42-.81-4.84-1.16-7.28q5.15-.91,10.21-2.18a3.18,3.18,0,1,0-1.69-6.13c-2.36.6-4.75,1.11-7.14,1.61l-2.13.42c-.08-.82-.16-1.64-.23-2.47s-.06-1.73,0-2.59a3.16,3.16,0,0,0,.67-4.57,4,4,0,0,0-3.55-1.38c-1.78.17-2.8,1.9-3.21,3.45a12.86,12.86,0,0,0-.28,3.56c0,.76,0,1.53.11,2.3s.11,1.67.19,2.5l-.43,0c-.78,0-1.58.07-2.36,0l-1.87-.11-3-.37a3.18,3.18,0,0,0-.85,6.3,49.89,49.89,0,0,0,6.58.53H210c.79,0,1.58-.05,2.37-.09.19,1.37.39,2.75.62,4.13q.49,3,1,5.93a18.49,18.49,0,0,0-5.37,3.06,15.87,15.87,0,0,0-3.74,4.3,14.33,14.33,0,0,0-1.74,5.12,8.29,8.29,0,0,0,1.22,5.56,9,9,0,0,0,3.26,2.93,8.87,8.87,0,0,0,2.63,1,10.54,10.54,0,0,0,2.38.14,17.14,17.14,0,0,0,2.76-.39,31.53,31.53,0,0,0,5.18-1.57,26.27,26.27,0,0,0,4.61-2.34A21.84,21.84,0,0,0,233,264.9c.41-.79.78-1.6,1.11-2.41l.09.16c.19.41.35.82.5,1.24s.29,1,.41,1.55.21,1.29.26,1.95c0,.17,0,.33,0,.5a5.93,5.93,0,0,1-.07.59c-.1.37-.2.73-.32,1.09q-.35.89-.75,1.74c-.67,1.27-1.41,2.5-2.2,3.7-1.16,1.62-2.32,3.24-3.57,4.8s-2.68,3.33-4.05,5a3.19,3.19,0,0,0,.57,4.46,3.07,3.07,0,0,0,1.89.65,3.33,3.33,0,0,0,2.56-1.23c2-2.36,3.91-4.78,5.81-7.22a49.6,49.6,0,0,0,3.39-5C240.35,273.51,241.91,270.3,241.68,266.79Zm-27.48,4.09c-.57.11-1.14.21-1.73.27h-.78l-.26,0-.24-.07-.22-.1a6.16,6.16,0,0,1-.55-.33,3.15,3.15,0,0,1-.29-.22l-.34-.34a1.47,1.47,0,0,1-.1-.13l0,0-.09-.21a3,3,0,0,1-.08-.32v0l0,.17c0-.13,0-.26,0-.39v-.39c0-.17,0-.33.07-.5s.15-.62.24-.93.22-.54.34-.81.38-.68.6-1,.41-.55.63-.81.63-.65,1-1,.78-.64,1.19-.93,1-.61,1.51-.89l.16-.07c.19,1,.37,1.95.55,2.92s.33,1.77.5,2.65a13.93,13.93,0,0,0,.7,2.72C216,270.38,215.13,270.65,214.2,270.88Zm13.41-9.39c-.34.65-.7,1.28-1.1,1.89s-.7.95-1.07,1.4-1,1-1.54,1.53c-.39.33-.8.63-1.21.94a.29.29,0,0,0,0-.09c-.46-2.34-.9-4.68-1.34-7,.93-.13,1.86-.24,2.8-.33,1.31-.07,2.61-.08,3.92,0l.28,0C228.1,260.38,227.86,260.93,227.61,261.49Z"/><path class="cls-7" d="M211.09,312.92a16.15,16.15,0,0,0,1.35-2,11.92,11.92,0,0,0,1.33-3.17,6.26,6.26,0,0,0-.65-5,5.74,5.74,0,0,0-3.51-2.34c-1.42-.36-2.86-.64-4.3-.93a53.84,53.84,0,0,1-5.35-1.39c-.58-.21-1.16-.43-1.72-.69a3.16,3.16,0,0,0-2.08-.79,3.21,3.21,0,0,0-3.18,3.18,3.25,3.25,0,0,0,.46,1.69,4.43,4.43,0,0,0,2.11,1.68,23,23,0,0,0,3.38,1.28c2.24.65,4.5,1.13,6.79,1.59h-.08l.1,0,.12,0h-.09c.59.12,1.17.24,1.75.38v0c-.12.29-.24.57-.37.86s-.36.64-.55,1c-.67.94-1.41,1.82-2.15,2.71-1.16,1.4-2.43,3-2.49,4.89a8.63,8.63,0,0,0,1.22,4.42c.32.57.63,1.14,1,1.7.53.94,1,1.87,1.53,2.83.27.59.52,1.18.75,1.78.3.94.56,1.89.78,2.86.1.54.19,1.07.25,1.62,0,.36,0,.72,0,1.09a5.58,5.58,0,0,1-.08.57,6.22,6.22,0,0,1-.19.71c-.13.35-.28.69-.44,1-.08.15-.16.3-.25.44l-.36.47c-.11.12-.23.23-.35.35l-.08.06-.08,0-.24-.07a5.12,5.12,0,0,1-.53-.25c-.6-.33-1.17-.68-1.73-1.05a3.18,3.18,0,1,0-3.21,5.48c1.75,1.15,3.73,2.27,5.84,2.27a5.89,5.89,0,0,0,1.37-.16,7.59,7.59,0,0,0,4.34-3.11,13.11,13.11,0,0,0,2.3-6,15.33,15.33,0,0,0-.45-5.22,25.31,25.31,0,0,0-2-5.75c-.85-1.7-1.84-3.31-2.71-5-.08-.18-.16-.36-.23-.54l.06-.09C209.23,315.12,210.23,314.08,211.09,312.92Z"/><path class="cls-7" d="M191.5,319.74a3.2,3.2,0,0,0-3.15,2.75,10.43,10.43,0,0,1-.17,1.12,54.37,54.37,0,0,1-1.63,5.7,3.19,3.19,0,0,0,2.22,3.9,3.1,3.1,0,0,0,.84.12,3.3,3.3,0,0,0,3.07-2.34c.46-1.37.92-2.75,1.27-4.15a24.5,24.5,0,0,0,.7-3.49h0a3,3,0,0,0,0-.42h0A3.21,3.21,0,0,0,191.5,319.74Z"/><path class="cls-7" d="M229,324.69c-.93-1.49-1.91-2.95-3-4.35v0a3.18,3.18,0,0,0-5.46,3.15,7.94,7.94,0,0,0,1,1.5c.31.42.61.87.91,1.31.79,1.21,1.55,2.43,2.23,3.7.38.8.74,1.6,1.09,2.41a3.21,3.21,0,0,0,2.95,1.94,3,3,0,0,0,1.21-.25,3.2,3.2,0,0,0,1.69-4.16A38.31,38.31,0,0,0,229,324.69Z"/></g></svg>